<?xml version="1.0" encoding="UTF-8" standalone="no"?>
<!-- Created with Inkscape (http://www.inkscape.org/) -->

<svg
   width="92.456764mm"
   height="27.577805mm"
   viewBox="0 0 92.456764 27.577805"
   version="1.1"
   id="svg5"
   xmlns="http://www.w3.org/2000/svg"
   xmlns:svg="http://www.w3.org/2000/svg">
  <defs
     id="defs2" />
  <g
     id="layer1"
     transform="translate(-52.297098,-81.575735)">
    <g
       aria-label="WePlay"
       id="text1442"
       style="font-size:22.5778px;line-height:1.25;font-family:Montserrat;-inkscape-font-specification:Montserrat;fill:#ff8c68;stroke:#ffffff;stroke-width:4;stroke-miterlimit:4;stroke-dasharray:none;stroke-opacity:1;paint-order:markers stroke fill">
      <path
         d="m 78.134435,85.114314 -3.973693,16.120546 h -5.147739 l -1.53529,-7.021693 q -0.04516,-0.2032 -0.135467,-0.677334 -0.09031,-0.474134 -0.225778,-1.083734 -0.112889,-0.609601 -0.2032,-1.196624 -0.09031,-0.587022 -0.135467,-0.993423 -0.04516,0.406401 -0.158045,0.993423 -0.09031,0.587023 -0.2032,1.196624 -0.112889,0.6096 -0.225778,1.083734 -0.09031,0.474134 -0.135467,0.677334 l -1.557868,7.021693 h -5.147739 l -3.99627,-16.120546 h 4.199471 l 1.761068,8.082852 q 0.06773,0.293512 0.180623,0.857957 0.112889,0.541867 0.225778,1.174045 0.135466,0.632179 0.248355,1.241779 0.112889,0.587023 0.158045,0.993424 0.09031,-0.677334 0.225778,-1.557869 0.158045,-0.880534 0.338667,-1.761068 0.180622,-0.903112 0.338667,-1.670757 0.180622,-0.767646 0.293511,-1.264357 l 1.422402,-6.096006 h 4.041426 l 1.377246,6.096006 q 0.112889,0.474134 0.270934,1.264357 0.180622,0.767645 0.361244,1.670757 0.180623,0.903112 0.338667,1.783646 0.158045,0.880534 0.225778,1.535291 0.06773,-0.564445 0.225778,-1.399824 0.158045,-0.835379 0.31609,-1.625602 0.158044,-0.812801 0.248355,-1.219201 l 1.783647,-8.10543 z"
         style="font-weight:900;font-family:'Noto Sans';-inkscape-font-specification:'Noto Sans Heavy';stroke:#ffffff;stroke-width:4;stroke-miterlimit:4;stroke-dasharray:none;stroke-opacity:1"
         id="path9463" />
      <path
         d="m 85.133532,88.523561 q 2.731914,0 4.31236,1.422402 1.580446,1.422401 1.580446,4.289782 v 1.919113 h -7.69903 q 0.04515,0.970846 0.722489,1.603024 0.699912,0.632178 2.009424,0.632178 1.174046,0 2.144892,-0.225778 0.970845,-0.225778 2.009424,-0.722489 v 3.093157 q -0.903112,0.47414 -1.986847,0.69991 -1.061156,0.22578 -2.686758,0.22578 -1.896535,0 -3.38667,-0.65475 -1.467557,-0.67734 -2.325514,-2.09974 -0.857956,-1.422402 -0.857956,-3.635026 0,-2.25778 0.767645,-3.70276 0.790223,-1.444979 2.167469,-2.144891 1.399824,-0.699912 3.228626,-0.699912 z m 0.158044,2.935115 q -0.767645,0 -1.286934,0.474133 -0.496712,0.474134 -0.587023,1.512713 h 3.702759 Q 87.0978,92.610143 86.623667,92.045698 86.172111,91.458676 85.291576,91.458676 Z"
         style="font-weight:900;font-family:'Noto Sans';-inkscape-font-specification:'Noto Sans Heavy';stroke:#ffffff;stroke-width:4;stroke-miterlimit:4;stroke-dasharray:none;stroke-opacity:1"
         id="path9465" />
      <path
         d="m 99.289771,85.114314 q 3.070579,0 4.583289,1.33209 1.5353,1.33209 1.5353,3.79307 0,1.106313 -0.31609,2.122314 -0.31609,0.993423 -1.03858,1.806224 -0.69991,0.790223 -1.87396,1.264356 -1.17405,0.451557 -2.889959,0.451557 H 98.07057 v 5.350935 H 93.713054 V 85.114314 Z m -0.09031,3.522136 h -1.12889 v 3.70276 h 0.857956 q 0.857957,0 1.490133,-0.428978 0.63218,-0.451556 0.63218,-1.557869 0,-0.767645 -0.45156,-1.241779 -0.45155,-0.474134 -1.399819,-0.474134 z"
         style="font-weight:900;font-family:'Noto Sans';-inkscape-font-specification:'Noto Sans Heavy';stroke:#ffffff;stroke-width:4;stroke-miterlimit:4;stroke-dasharray:none;stroke-opacity:1"
         id="path9467" />
      <path
         d="m 112.04623,101.23486 h -4.31236 V 84.075735 h 4.31236 z"
         style="font-weight:900;font-family:'Noto Sans';-inkscape-font-specification:'Noto Sans Heavy';stroke:#ffffff;stroke-width:4;stroke-miterlimit:4;stroke-dasharray:none;stroke-opacity:1"
         id="path9469" />
      <path
         d="m 121.1225,88.523561 q 2.37067,0 3.70276,1.174046 1.33209,1.174046 1.33209,3.341515 v 8.195738 h -2.98027 l -0.83538,-1.648176 h -0.0903 q -0.51929,0.654756 -1.08373,1.083736 -0.54187,0.4064 -1.26436,0.58702 -0.72249,0.2032 -1.76107,0.2032 -1.6256,0 -2.70933,-0.99342 -1.08374,-0.993425 -1.08374,-3.048005 0,-2.009424 1.37725,-2.98027 1.39982,-0.970845 4.04142,-1.083734 l 2.07716,-0.06773 v -0.180622 q 0,-0.835379 -0.4064,-1.174046 -0.4064,-0.361244 -1.10631,-0.361244 -0.74507,0 -1.64818,0.270933 -0.90311,0.248356 -1.8288,0.654756 l -1.24178,-2.844803 q 1.08373,-0.564445 2.4384,-0.835378 1.37725,-0.293512 3.07058,-0.293512 z m -0.24835,7.179741 q -1.17405,0.04516 -1.67076,0.428978 -0.47413,0.361245 -0.47413,1.038579 0,0.632179 0.33866,0.948268 0.33867,0.293511 0.90311,0.293511 0.79023,0 1.3321,-0.496711 0.56444,-0.496712 0.56444,-1.286935 v -0.970846 z"
         style="font-weight:900;font-family:'Noto Sans';-inkscape-font-specification:'Noto Sans Heavy';stroke:#ffffff;stroke-width:4;stroke-miterlimit:4;stroke-dasharray:none;stroke-opacity:1"
         id="path9471" />
      <path
         d="m 127.57974,88.749339 h 4.53813 l 2.12232,7.157163 q 0.0677,0.225778 0.11289,0.609601 0.0677,0.383823 0.0903,0.745067 h 0.0903 q 0.0451,-0.451556 0.11289,-0.767645 0.0903,-0.338667 0.15804,-0.564445 l 2.16747,-7.179741 h 4.40267 l -4.94454,13.275751 q -0.56444,1.51271 -1.33209,2.55129 -0.74506,1.03858 -1.85138,1.55787 -1.10631,0.51929 -2.75449,0.51929 -0.58702,0 -1.016,-0.0677 -0.42898,-0.0452 -0.74507,-0.11289 v -3.38667 q 0.24836,0.0452 0.58703,0.0903 0.36124,0.0452 0.74506,0.0452 1.06116,0 1.55787,-0.63218 0.51929,-0.6096 0.83538,-1.4224 l 0.0452,-0.11289 z"
         style="font-weight:900;font-family:'Noto Sans';-inkscape-font-specification:'Noto Sans Heavy';stroke:#ffffff;stroke-width:4;stroke-miterlimit:4;stroke-dasharray:none;stroke-opacity:1"
         id="path9473" />
    </g>
  </g>
</svg>
