<?xml version="1.0" encoding="UTF-8" standalone="no"?>
<!-- Created with Inkscape (http://www.inkscape.org/) -->

<svg
   width="23.044922mm"
   height="10.93369mm"
   viewBox="0 0 23.044922 10.93369"
   version="1.1"
   id="svg5"
   xmlns="http://www.w3.org/2000/svg"
   xmlns:svg="http://www.w3.org/2000/svg">
  <defs
     id="defs2" />
  <g
     id="layer1"
     transform="translate(-51.363281,-131.02334)">
    <g
       aria-label="FAQ"
       id="text4810"
       style="font-size:10.5833px;font-family:'Noto Sans';-inkscape-font-specification:'Noto Sans';word-spacing:0px;fill:#ffe500;stroke:#c56027;stroke-width:1.5;paint-order:stroke fill markers">
      <g
         id="path836">
        <path
           style="color:#000000;-inkscape-font-specification:'Inter Bold';fill:#c56027;stroke:none;-inkscape-stroke:none"
           d="m 51.863281,131.62891 v 9.19726 h 0.75 2.376953 v -3.17969 h 3.13086 v -2.84179 h -3.13086 v -0.33399 h 3.46875 v -2.84179 z m 1.5,1.5 h 0.126953 v 3.01757 0.15821 3.02148 h -0.126953 z"
           id="path845" />
        <path
           style="color:#000000;-inkscape-font-specification:'Inter Bold';stroke:none;-inkscape-stroke:none"
           d="m 52.612603,140.07602 v -7.69695 h 5.09622 v 1.34171 h -3.468887 v 1.83404 h 3.130642 v 1.3417 h -3.130642 v 3.1795 z"
           id="path847" />
      </g>
      <g
         id="path838">
        <path
           style="color:#000000;-inkscape-font-specification:'Inter Bold';fill:#c56027;stroke:none;-inkscape-stroke:none"
           d="m 59.544922,131.62891 -3.173828,9.19726 h 3.339843 l 0.169922,-0.51758 0.402344,-1.23828 h 1.6875 l 0.570313,1.75586 h 3.341796 l -3.169921,-9.19726 z m 1.070312,1.5 h 1.027344 l 1.09375,3.17187 h -0.08594 l -0.947266,-2.91211 h -1.148438 l -0.947265,2.91211 h -0.08789 z m -2.050781,5.9414 h 0.140625 l -0.08398,0.25586 h -0.144532 z m 4.984375,0 h 0.140625 l 0.08984,0.25586 h -0.146485 z"
           id="path851" />
        <path
           style="color:#000000;-inkscape-font-specification:'Inter Bold';stroke:none;-inkscape-stroke:none"
           d="m 59.167014,140.07602 h -1.743839 l 2.6571,-7.69695 h 2.097117 l 2.653341,7.69695 H 63.086894 L 61.1589,134.13795 h -0.06013 z m -0.108989,-3.02541 h 4.119068 v 1.2703 h -4.119068 z"
           id="path853" />
      </g>
      <g
         id="path840">
        <path
           style="color:#000000;-inkscape-font-specification:'Inter Bold';fill:#c56027;stroke:none;-inkscape-stroke:none"
           d="m 68.863281,131.52344 c -0.796898,0 -1.550001,0.18717 -2.210937,0.56445 -0.66778,0.37851 -1.205406,0.94379 -1.580078,1.64258 -0.385828,0.71959 -0.5625,1.56466 -0.5625,2.49805 0,0.93115 0.176882,1.77298 0.5625,2.49218 0.374462,0.69841 0.911514,1.26557 1.578125,1.64649 0.661329,0.3779 1.415331,0.56445 2.21289,0.56445 0.35338,0 0.649863,-0.17592 0.982422,-0.25 l 0.630859,0.77539 h 3.431641 l -1.761719,-2.20898 c 0.151127,-0.19358 0.384794,-0.2995 0.503907,-0.52149 v -0.002 c 0.388469,-0.71958 0.566406,-1.56267 0.566406,-2.49609 0,-0.93344 -0.177936,-1.77847 -0.566406,-2.49805 v -0.002 c -0.374581,-0.69808 -0.913193,-1.26262 -1.582032,-1.64063 -0.660071,-0.37678 -1.412351,-0.56445 -2.205078,-0.56445 z m -1.449219,1.86133 c -0.420893,0.2799 -0.742821,0.69036 -0.951171,1.16796 l -0.002,0.002 v 0.002 c -0.21246,0.49463 -0.302734,1.05444 -0.302734,1.67188 0,0.61742 0.09027,1.17529 0.302734,1.66992 v 0.002 l 0.002,0.002 c 0.208349,0.47761 0.530269,0.88808 0.951171,1.16797 -0.0057,-0.003 -0.0138,-0.003 -0.01953,-0.006 -0.420782,-0.24044 -0.743074,-0.57354 -1,-1.05273 -0.245772,-0.45838 -0.384765,-1.04068 -0.384765,-1.7832 0,-0.74533 0.139203,-1.33108 0.384765,-1.78907 0.256717,-0.47879 0.578433,-0.80903 0.998047,-1.04687 l 0.002,-0.002 c 0.0057,-0.003 0.01378,-0.003 0.01953,-0.006 z m 2.898438,0.002 c 0.004,0.002 0.0096,0.002 0.01367,0.004 v 0.002 h 0.002 c 0.422027,0.23812 0.745627,0.56881 1.001953,1.04687 v 0.002 c 0.247329,0.45765 0.386719,1.04253 0.386719,1.78711 0,0.74457 -0.13939,1.3275 -0.386719,1.78515 v 0.002 c -0.02731,0.0509 -0.07857,0.0636 -0.107422,0.11133 l -0.07617,-0.0879 c 0.02811,-0.0558 0.09043,-0.0829 0.115235,-0.14062 0.21516,-0.49481 0.30664,-1.05274 0.30664,-1.66992 0,-0.61719 -0.09148,-1.17707 -0.30664,-1.67188 -0.205566,-0.47858 -0.528149,-0.88948 -0.949219,-1.16992 z m -1.449219,1.07617 c 0.270753,0 0.45273,0.0578 0.617188,0.16602 0.160033,0.10532 0.290862,0.25544 0.404297,0.51953 v 0.002 l 0.002,0.002 c 0.109502,0.25101 0.18164,0.60736 0.18164,1.07618 0,0.18418 -0.05209,0.27207 -0.07227,0.42187 h -2.267578 c -0.0198,-0.14988 -0.07031,-0.23798 -0.07031,-0.42187 0,-0.46832 0.07208,-0.82432 0.179688,-1.07618 0.115846,-0.26555 0.24735,-0.41757 0.408203,-0.52343 0.164458,-0.10824 0.346434,-0.16602 0.617187,-0.16602 z"
           id="path857" />
        <path
           style="color:#000000;-inkscape-font-specification:'Inter Bold';stroke:none;-inkscape-stroke:none"
           d="m 68.299632,137.40013 h 1.383045 l 0.695281,0.89447 0.684005,0.79675 1.289088,1.61606 h -1.518342 l -0.886953,-1.0899 -0.454751,-0.64642 z m 4.167926,-1.17258 q 0,1.25902 -0.477301,2.14221 -0.473542,0.8832 -1.292846,1.34922 -0.815546,0.46227 -1.834038,0.46227 -1.026009,0 -1.841554,-0.46603 -0.815546,-0.46602 -1.289088,-1.34922 -0.473543,-0.88319 -0.473543,-2.13845 0,-1.25903 0.473543,-2.14222 0.473542,-0.88319 1.289088,-1.34546 0.815545,-0.46603 1.841554,-0.46603 1.018492,0 1.834038,0.46603 0.819304,0.46227 1.292846,1.34546 0.477301,0.88319 0.477301,2.14222 z m -1.649882,0 q 0,-0.81555 -0.244288,-1.37553 -0.24053,-0.55998 -0.680248,-0.84937 -0.439718,-0.28939 -1.029767,-0.28939 -0.590049,0 -1.029767,0.28939 -0.439718,0.28939 -0.684006,0.84937 -0.240529,0.55998 -0.240529,1.37553 0,0.81554 0.240529,1.37552 0.244288,0.55999 0.684006,0.84937 0.439718,0.28939 1.029767,0.28939 0.590049,0 1.029767,-0.28939 0.439718,-0.28938 0.680248,-0.84937 0.244288,-0.55998 0.244288,-1.37552 z"
           id="path859" />
      </g>
    </g>
  </g>
</svg>
