<?xml version="1.0" encoding="UTF-8" standalone="no"?>
<!-- Created with Inkscape (http://www.inkscape.org/) -->

<svg
   width="111.80463mm"
   height="9.6582499mm"
   viewBox="0 0 111.80463 9.6582499"
   version="1.1"
   id="svg5"
   xmlns="http://www.w3.org/2000/svg"
   xmlns:svg="http://www.w3.org/2000/svg">
  <defs
     id="defs2" />
  <g
     id="layer1"
     transform="translate(-46.998094,-125.61914)">
    <g
       aria-label="SHOP BY CATEGORY"
       id="text4810"
       style="font-size:10.5833px;font-family:'Noto Sans';-inkscape-font-specification:'Noto Sans';word-spacing:0px;fill:#93258e;stroke:#ffffff;stroke-width:0.75;paint-order:stroke fill markers">
      <g
         id="path19197">
        <path
           style="color:#000000;-inkscape-font-specification:'Inter Heavy';fill:#ffffff;stroke:none;-inkscape-stroke:none"
           d="m 51.181641,126.11914 c -0.651022,0 -1.244225,0.11072 -1.769532,0.33984 -0.520141,0.22809 -0.948434,0.56 -1.255859,0.98633 -0.308913,0.4295 -0.463068,0.9432 -0.460938,1.49805 -2e-6,6.7e-4 3e-6,10e-4 0,0.002 -0.0024,0.68206 0.238251,1.28564 0.708985,1.70508 l 0.002,0.002 c 0.311043,0.2734 0.777138,0.40732 1.21875,0.56446 h -2.126953 l 0.002,0.375 c 0.0027,0.69661 0.152445,1.30528 0.474609,1.79297 h 0.002 v 0.002 c 0.318071,0.47422 0.773229,0.83056 1.330079,1.05273 0.552054,0.21916 1.184668,0.32227 1.890625,0.32227 0.686529,0 1.291232,-0.0959 1.810546,-0.30078 0.519395,-0.20436 0.94616,-0.51525 1.242188,-0.92969 0.299752,-0.4197 0.446378,-0.9344 0.449219,-1.50195 v -0.002 -0.004 c -0.0028,-0.33043 -0.05762,-0.64415 -0.166016,-0.93555 -0.108287,-0.29779 -0.279625,-0.56814 -0.505859,-0.80078 -0.229042,-0.23796 -0.514594,-0.43625 -0.84961,-0.59961 -0.268424,-0.13089 -0.599631,-0.2206 -0.9375,-0.30664 h 2.355469 l -0.002,-0.37695 c -0.0028,-0.56472 -0.147355,-1.08383 -0.4375,-1.52344 -0.285796,-0.43934 -0.697454,-0.7809 -1.205078,-1.01367 -0.512485,-0.23501 -1.106329,-0.34766 -1.769531,-0.34766 z m 0,0.75 c 0.579532,0 1.06252,0.0984 1.457031,0.2793 0.398485,0.18272 0.685398,0.42597 0.890625,0.74219 v 0.002 c 0.136375,0.20663 0.161479,0.47959 0.208984,0.73828 h -1.314453 c -0.07015,-0.17595 -0.09941,-0.37645 -0.244141,-0.49805 -4.69e-4,-4e-4 -0.0015,4e-4 -0.002,0 -0.261377,-0.22099 -0.606699,-0.29883 -0.996093,-0.29883 -0.245989,0 -0.46347,0.0277 -0.66211,0.10352 -0.182684,0.0681 -0.350447,0.17478 -0.46875,0.33398 -0.108783,0.14644 -0.168897,0.33037 -0.173828,0.51172 -0.0066,0.14614 0.01904,0.29782 0.08594,0.43164 l 0.0039,0.006 0.0039,0.008 c 0.07323,0.13272 0.180097,0.23903 0.300781,0.32421 l 0.002,0.002 0.0039,0.002 c 0.120358,0.0814 0.25613,0.14593 0.410156,0.20117 0.153686,0.0551 0.327199,0.10056 0.521484,0.14063 l 0.63086,0.13476 h 0.002 c 0.402958,0.0853 0.73787,0.19745 1.005859,0.32813 0.271319,0.1323 0.481864,0.28239 0.638672,0.44531 l 0.002,0.002 c 0.158663,0.16279 0.268042,0.3377 0.339844,0.53516 l 0.002,0.002 c 0.07571,0.20258 0.116553,0.42885 0.119141,0.68164 -0.0026,0.44359 -0.109591,0.78504 -0.310547,1.06641 -0.204553,0.28637 -0.494842,0.50846 -0.90625,0.66992 -0.407726,0.16089 -0.918819,0.24805 -1.535156,0.24805 -0.631988,0 -1.168141,-0.0928 -1.613282,-0.26953 -0.43438,-0.17331 -0.749425,-0.42507 -0.982422,-0.77149 -0.162889,-0.24657 -0.20678,-0.62834 -0.255859,-1.0039 h 1.248047 c 0.03931,0.1438 0.04862,0.30148 0.128906,0.42382 0.145937,0.22238 0.35892,0.39405 0.607422,0.50196 v 0.002 h 0.002 c 0.25019,0.10722 0.531439,0.1543 0.835938,0.1543 0.253896,0 0.480895,-0.0297 0.6875,-0.10547 0.197961,-0.0726 0.378186,-0.18459 0.507812,-0.34766 0.125023,-0.15728 0.197157,-0.35976 0.201172,-0.56054 v -0.008 -0.008 c -0.0042,-0.19339 -0.0798,-0.3905 -0.205078,-0.53906 -0.129906,-0.15875 -0.29931,-0.26223 -0.498047,-0.3457 -0.202971,-0.0879 -0.449752,-0.15877 -0.75,-0.22461 v -0.002 l -0.767578,-0.16406 c -0.635876,-0.13793 -1.108873,-0.36263 -1.441406,-0.6543 l -0.002,-0.002 c -0.309219,-0.2764 -0.45724,-0.62192 -0.455079,-1.14062 v -0.002 -0.002 c -0.0022,-0.42078 0.103749,-0.75945 0.320313,-1.06055 0.223743,-0.31028 0.530344,-0.5535 0.947266,-0.73633 0.416766,-0.18178 0.902091,-0.27734 1.46875,-0.27734 z m 0,1.71484 c 0.286393,0 0.444487,0.0624 0.513671,0.1211 v 0.002 h 0.002 c 0.08923,0.0746 0.134583,0.15498 0.148437,0.32813 l 0.01953,0.23632 -0.5,-0.10742 h -0.002 c -0.169856,-0.0349 -0.311049,-0.0736 -0.421875,-0.11328 -0.10868,-0.039 -0.187951,-0.078 -0.238281,-0.11133 l -0.002,-0.002 c -8.26e-4,-5.5e-4 -0.0031,-0.001 -0.0039,-0.002 -0.03925,-0.0291 -0.05677,-0.0519 -0.06445,-0.0645 -0.0056,-0.0124 -0.0096,-0.0243 -0.0078,-0.0566 v -0.006 -0.006 c 9.48e-4,-0.0427 0.0067,-0.0562 0.02734,-0.084 0.01142,-0.0154 0.04395,-0.0479 0.130859,-0.0801 h 0.002 c 0.07697,-0.0294 0.211524,-0.0547 0.396485,-0.0547 z m -0.951172,2.90235 0.720703,0.15625 c 0.271009,0.0594 0.478561,0.12222 0.611328,0.17969 l 0.002,0.002 h 0.0039 c 0.132873,0.0555 0.198943,0.11354 0.212891,0.13086 l 0.0039,0.004 0.0039,0.004 c 0.02017,0.0235 0.0221,0.0345 0.02344,0.0645 -0.0018,0.0428 -0.0089,0.0661 -0.03711,0.10157 -0.02572,0.0324 -0.07503,0.0717 -0.177735,0.10937 -0.09406,0.0345 -0.237602,0.0606 -0.429687,0.0606 -0.225876,0 -0.403586,-0.036 -0.539063,-0.0937 h -0.002 c -0.13136,-0.0573 -0.213089,-0.12866 -0.277344,-0.22656 -0.06277,-0.0957 -0.105426,-0.22184 -0.115234,-0.40625 z"
           id="path19228" />
        <path
           style="color:#000000;-inkscape-font-specification:'Inter Heavy';fill:#ffa800;stroke:none;-inkscape-stroke:none"
           d="m 52.219506,129.00555 q -0.03007,-0.37583 -0.28187,-0.5863 -0.248046,-0.21046 -0.755413,-0.21046 -0.323212,0 -0.529917,0.0789 -0.202947,0.0752 -0.300662,0.2067 -0.09772,0.13154 -0.101473,0.30066 -0.0075,0.13906 0.04886,0.25181 0.06013,0.10899 0.187914,0.19919 0.127781,0.0864 0.32697,0.15784 0.199189,0.0714 0.473543,0.12778 l 0.63139,0.1353 q 0.638906,0.1353 1.093657,0.35704 0.454751,0.22174 0.744139,0.5224 0.289387,0.2969 0.424685,0.66897 0.139056,0.37207 0.142814,0.81179 -0.0038,0.75917 -0.379586,1.28533 -0.375827,0.52616 -1.074866,0.80051 -0.695281,0.27435 -1.672432,0.27435 -1.003459,0 -1.751356,-0.2969 -0.744138,-0.2969 -1.157548,-0.91326 -0.409652,-0.62012 -0.41341,-1.58599 h 1.984368 q 0.01879,0.35328 0.176639,0.59381 0.157848,0.24052 0.443477,0.36455 0.289387,0.12402 0.687764,0.12402 0.334486,0 0.559983,-0.0827 0.225496,-0.0827 0.342003,-0.22926 0.116506,-0.14657 0.120264,-0.33448 -0.0038,-0.17664 -0.116506,-0.30818 -0.10899,-0.1353 -0.360795,-0.24053 -0.251804,-0.10899 -0.680247,-0.20295 l -0.766688,-0.16536 q -1.022251,-0.22174 -1.6123,-0.74038 -0.58629,-0.5224 -0.582532,-1.42439 -0.0038,-0.73286 0.39086,-1.28157 0.398377,-0.55246 1.101175,-0.86064 0.706555,-0.30818 1.619816,-0.30818 0.932052,0 1.612299,0.31194 0.680248,0.31193 1.048559,0.87943 0.372069,0.56374 0.375827,1.31916 z"
           id="path19230" />
      </g>
      <g
         id="path19199">
        <path
           style="color:#000000;-inkscape-font-specification:'Inter Heavy';fill:#ffffff;stroke:none;-inkscape-stroke:none"
           d="m 54.746094,126.22461 v 8.44726 h 0.375 2.464843 v -3.00585 h 2.015625 v 3.00585 h 2.839844 v -8.44726 h -2.839844 v 3.00781 h -2.015625 v -3.00781 z m 0.75,0.75 h 1.339843 v 3.00781 h 3.515625 v -3.00781 h 1.339844 v 6.94726 h -1.339844 v -3.00585 h -3.515625 v 3.00585 h -1.339843 z"
           id="path19234" />
        <path
           style="color:#000000;-inkscape-font-specification:'Inter Heavy';fill:#ffa800;stroke:none;-inkscape-stroke:none"
           d="m 55.120892,134.2972 v -7.69695 h 2.089601 v 3.00662 h 2.766089 v -3.00662 h 2.089601 v 7.69695 h -2.089601 v -3.00662 h -2.766089 v 3.00662 z"
           id="path19236" />
      </g>
      <g
         id="path19201">
        <path
           style="color:#000000;-inkscape-font-specification:'Inter Heavy';fill:#ffffff;stroke:none;-inkscape-stroke:none"
           d="m 66.771484,126.11914 c -0.755561,0 -1.455066,0.16642 -2.078125,0.5 -0.626355,0.33406 -1.131689,0.83659 -1.496093,1.48047 -0.36914,0.65438 -0.544922,1.44448 -0.544922,2.34961 0,0.90041 0.176376,1.68763 0.544922,2.34375 v 0.002 h 0.002 c 0.364289,0.64093 0.867349,1.14362 1.492187,1.48242 h 0.002 c 0.623059,0.33359 1.322564,0.5 2.078125,0.5 0.750491,0 1.447817,-0.1636 2.070313,-0.49414 v -0.002 c 0.62794,-0.3362 1.135398,-0.83704 1.5,-1.47852 0.371641,-0.65666 0.548828,-1.44801 0.548828,-2.35351 0,-0.9055 -0.176812,-1.69509 -0.548828,-2.34961 -0.364602,-0.64423 -0.871113,-1.14655 -1.5,-1.48047 -0.622653,-0.33337 -1.319374,-0.5 -2.070313,-0.5 z m 0,0.75 c 0.642127,0 1.206958,0.13914 1.716797,0.41211 h 0.002 c 0.503605,0.2674 0.897355,0.65413 1.199219,1.1875 0.294451,0.51805 0.451172,1.17219 0.451172,1.98047 0,0.80827 -0.156346,1.46148 -0.451172,1.98242 -0.301864,0.5311 -0.696619,0.91932 -1.201172,1.18945 -0.509567,0.27022 -1.074913,0.40625 -1.716797,0.40625 -0.646832,0 -1.213644,-0.13799 -1.722656,-0.41015 h -0.002 c -0.501231,-0.27207 -0.893578,-0.66152 -1.195313,-1.19141 -0.292909,-0.52146 -0.449218,-1.17321 -0.449218,-1.97656 0,-0.80864 0.156903,-1.46228 0.449218,-1.98047 0.302064,-0.53372 0.694188,-0.92023 1.195313,-1.1875 0.509434,-0.27275 1.077083,-0.41211 1.724609,-0.41211 z m 0,1.07031 c -0.405544,0 -0.781944,0.10054 -1.089843,0.31446 -0.30442,0.2105 -0.529804,0.52124 -0.673829,0.89453 v 0.002 c -0.141882,0.37244 -0.205078,0.80521 -0.205078,1.29883 0,0.49363 0.06364,0.92656 0.205078,1.30078 v 0.002 l 0.002,0.002 c 0.144113,0.37057 0.367632,0.68033 0.669921,0.89257 h 0.002 l 0.002,0.002 c 0.307863,0.21064 0.683252,0.31054 1.08789,0.31054 0.404639,0 0.77981,-0.0989 1.085938,-0.31054 v -0.002 c 0.305553,-0.21227 0.532018,-0.52228 0.673828,-0.89453 0.144663,-0.37494 0.208984,-0.80842 0.208984,-1.30273 0,-0.49358 -0.06431,-0.92604 -0.208984,-1.29883 v -0.002 c -0.14106,-0.37243 -0.366911,-0.6824 -0.671875,-0.89258 -5.07e-4,-3.6e-4 -0.0014,3.5e-4 -0.002,0 -0.305872,-0.21423 -0.681064,-0.31641 -1.085938,-0.31641 z m 0,0.75 c 0.285978,0 0.491364,0.0639 0.65625,0.17969 l 0.002,0.002 h 0.002 c 0.16838,0.11521 0.299617,0.28347 0.398437,0.54493 v 0.002 l 0.002,0.002 c 0.100421,0.25823 0.158203,0.60157 0.158203,1.0293 0,0.42773 -0.05928,0.77175 -0.160156,1.0332 v 0.002 c -0.09872,0.25914 -0.229896,0.42843 -0.400391,0.54688 -0.164907,0.11403 -0.371319,0.17773 -0.658203,0.17773 -0.285098,0 -0.492514,-0.064 -0.660156,-0.17773 -3.89e-4,-2.7e-4 3.89e-4,-0.002 0,-0.002 -0.167519,-0.11798 -0.301304,-0.28647 -0.402344,-0.54493 -0.09909,-0.26217 -0.15625,-0.60674 -0.15625,-1.03515 0,-0.42841 0.0576,-0.77231 0.15625,-1.03125 0.101516,-0.26311 0.233773,-0.43166 0.400391,-0.54688 v -0.002 c 0.168148,-0.11682 0.376132,-0.17969 0.662109,-0.17969 z"
           id="path19240" />
        <path
           style="color:#000000;-inkscape-font-specification:'Inter Heavy';fill:#ffa800;stroke:none;-inkscape-stroke:none"
           d="m 70.514783,130.44872 q 0,1.28533 -0.499851,2.16853 -0.49985,0.87943 -1.34922,1.33418 -0.84937,0.451 -1.89417,0.451 -1.052317,0 -1.901687,-0.45475 -0.845611,-0.45851 -1.345462,-1.33795 -0.496092,-0.88319 -0.496092,-2.16101 0,-1.28533 0.496092,-2.16476 0.499851,-0.8832 1.345462,-1.33419 0.84937,-0.45475 1.901687,-0.45475 1.0448,0 1.89417,0.45475 0.84937,0.45099 1.34922,1.33419 0.499851,0.87943 0.499851,2.16476 z m -2.149733,0 q 0,-0.69152 -0.184155,-1.16506 -0.180398,-0.4773 -0.537434,-0.72159 -0.353277,-0.24805 -0.871919,-0.24805 -0.518642,0 -0.875678,0.24805 -0.353278,0.24429 -0.537433,0.72159 -0.180397,0.47354 -0.180397,1.16506 0,0.69153 0.180397,1.16883 0.184155,0.47354 0.537433,0.72158 0.357036,0.24429 0.875678,0.24429 0.518642,0 0.871919,-0.24429 0.357036,-0.24804 0.537434,-0.72158 0.184155,-0.4773 0.184155,-1.16883 z"
           id="path19242" />
      </g>
      <g
         id="path19203">
        <path
           style="color:#000000;-inkscape-font-specification:'Inter Heavy';fill:#ffffff;stroke:none;-inkscape-stroke:none"
           d="m 71.101562,126.22461 v 8.44726 h 0.375 2.464844 v -2.28515 h 0.783203 c 0.632765,0 1.205,-0.1176 1.703125,-0.36524 0.498818,-0.24656 0.900324,-0.61052 1.179688,-1.07421 0.284985,-0.46819 0.423828,-1.02006 0.423828,-1.62696 0,-0.60067 -0.133557,-1.1479 -0.408203,-1.61914 -0.272193,-0.46703 -0.664708,-0.83812 -1.150391,-1.09375 -0.489228,-0.25748 -1.05323,-0.38281 -1.673828,-0.38281 z m 0.75,0.75 h 2.947266 c 0.521915,0 0.958515,0.10142 1.326172,0.29492 0.371203,0.19537 0.645755,0.45882 0.849609,0.80859 0.201402,0.34557 0.306641,0.75047 0.306641,1.24219 0,0.49553 -0.108357,0.8997 -0.314453,1.23828 v 0.002 c -0.206705,0.34309 -0.48797,0.59968 -0.871094,0.78906 h -0.002 c -0.378804,0.18832 -0.829325,0.28711 -1.369141,0.28711 h -0.783203 v -0.87305 h 0.361328 c 0.288908,0 0.556948,-0.0497 0.792969,-0.16601 h 0.002 v -0.002 c 0.232681,-0.11634 0.429412,-0.29528 0.558594,-0.51758 0.132628,-0.22413 0.195312,-0.48589 0.195312,-0.75781 0,-0.27314 -0.06408,-0.53186 -0.199218,-0.7539 -0.12936,-0.2185 -0.32515,-0.39525 -0.556641,-0.50586 -5.57e-4,-2.8e-4 -0.0014,2.7e-4 -0.002,0 -0.235619,-0.11573 -0.502787,-0.16602 -0.791016,-0.16602 h -1.111328 v 2.11914 h -0.826172 v 2.37305 h 0.826172 v 1.53515 h -1.339844 z m 2.089844,1.66992 h 0.361328 c 0.202171,0 0.353154,0.0338 0.462891,0.0879 l 0.002,0.002 0.0039,0.002 c 0.115181,0.0543 0.183396,0.11748 0.238282,0.21094 l 0.002,0.004 0.002,0.002 c 0.0539,0.0879 0.08789,0.20068 0.08789,0.36719 0,0.16338 -0.03467,0.28074 -0.0918,0.37696 v 0.002 l -0.002,0.002 c -0.05577,0.0965 -0.126663,0.16436 -0.242187,0.22266 -0.109739,0.0541 -0.260717,0.0898 -0.462891,0.0898 h -0.361328 z m -0.826172,2.11914 h 0.07617 v 0.87305 h -0.07617 z"
           id="path19246" />
        <path
           style="color:#000000;-inkscape-font-specification:'Inter Heavy';fill:#ffa800;stroke:none;-inkscape-stroke:none"
           d="m 71.476897,134.2972 v -7.69695 h 3.322314 q 0.856886,0 1.499551,0.33824 0.642665,0.33825 0.999701,0.95085 0.357036,0.6126 0.357036,1.4319 0,0.82682 -0.368311,1.4319 -0.364552,0.60509 -1.026009,0.93205 -0.657698,0.32697 -1.537134,0.32697 h -1.984368 v -1.62357 h 1.563442 q 0.368311,0 0.627631,-0.12778 0.26308,-0.13154 0.402136,-0.37207 0.142814,-0.24053 0.142814,-0.5675 0,-0.33073 -0.142814,-0.56374 -0.139056,-0.23677 -0.402136,-0.36079 -0.25932,-0.12779 -0.627631,-0.12779 h -0.736622 v 6.02828 z"
           id="path19248" />
      </g>
      <g
         id="path19205">
        <path
           style="color:#000000;-inkscape-font-specification:'Inter Heavy';fill:#ffffff;stroke:none;-inkscape-stroke:none"
           d="m 80.152344,126.22461 v 8.44726 h 0.375 3.623047 c 0.600771,0 1.1381,-0.1005 1.601562,-0.3164 0.45482,-0.21187 0.825338,-0.51583 1.083984,-0.9043 0.261863,-0.38981 0.394532,-0.84758 0.394532,-1.33398 0,-0.41847 -0.09431,-0.80654 -0.292969,-1.13867 -0.191005,-0.32232 -0.457428,-0.58383 -0.78125,-0.76758 -0.02652,-0.0152 -0.06084,-0.0113 -0.08789,-0.0254 0.263661,-0.18794 0.479949,-0.42772 0.628907,-0.70899 v -0.002 c 0.15467,-0.28839 0.232421,-0.61145 0.232421,-0.94922 0,-0.4559 -0.125695,-0.88127 -0.376953,-1.23437 -0.25132,-0.35682 -0.621033,-0.6243 -1.074218,-0.80274 -0.456946,-0.18105 -0.995291,-0.26367 -1.615235,-0.26367 z m 0.75,0.75 h 2.960937 c 0.552637,0 1.000038,0.0763 1.339844,0.21094 0.348579,0.13725 0.581756,0.31765 0.736328,0.53711 h 0.002 v 0.002 c 0.158919,0.22288 0.238281,0.47563 0.238281,0.80078 0,0.22781 -0.0473,0.41848 -0.142578,0.5957 v 0.002 h -0.002 c -0.0954,0.18107 -0.223887,0.32875 -0.402344,0.45507 -0.176997,0.12301 -0.386716,0.21051 -0.640625,0.26172 l -0.300781,0.0605 v 0.74414 l 0.361328,0.0137 c 0.276014,0.0105 0.511353,0.0785 0.728516,0.20313 h 0.002 0.002 c 0.215701,0.12183 0.378838,0.28235 0.507813,0.5 v 0.002 c 0.122049,0.20405 0.1875,0.44578 0.1875,0.75391 0,0.35545 -0.08847,0.64744 -0.267578,0.91406 v 0.002 c -0.177248,0.26689 -0.426275,0.47904 -0.777344,0.64258 -0.343313,0.15993 -0.768469,0.2461 -1.285156,0.24609 h -3.248047 z m 1.339843,0.88867 v 2.22461 h 0.375 0.855469 c 0.222268,0 0.433688,-0.0359 0.626953,-0.11523 0.19334,-0.0794 0.366563,-0.20669 0.488282,-0.375 0.130252,-0.1791 0.193359,-0.40171 0.193359,-0.62305 0,-0.3275 -0.148459,-0.65328 -0.410156,-0.8457 -0.243217,-0.18105 -0.546838,-0.26563 -0.867188,-0.26563 z m 0.75,0.75 h 0.511719 c 0.199277,0 0.322959,0.0445 0.419922,0.11719 l 0.002,0.002 h 0.002 c 0.07905,0.0581 0.103516,0.0936 0.103516,0.24219 0,0.0943 -0.01873,0.14025 -0.04883,0.18164 l -0.002,0.002 c -0.03357,0.0466 -0.07727,0.0855 -0.164063,0.1211 -0.08735,0.0359 -0.200212,0.0586 -0.34375,0.0586 h -0.480469 z m -0.75,2.01758 v 2.37305 h 0.375 0.976563 c 0.3972,0 0.740265,-0.0679 1.011719,-0.26954 l 0.002,-0.002 h 0.002 c 0.268591,-0.20336 0.412109,-0.54175 0.412109,-0.88476 0,-0.23769 -0.05924,-0.47168 -0.1875,-0.66602 -0.124453,-0.18856 -0.306058,-0.3342 -0.515625,-0.42383 h -0.002 c -0.209163,-0.0903 -0.442844,-0.12695 -0.693359,-0.12695 z m 0.75,0.75 h 0.63086 c 0.174739,0 0.305426,0.0269 0.396484,0.0664 h 0.002 c 0.09552,0.0407 0.146872,0.0869 0.1875,0.14843 0.0371,0.0562 0.0625,0.12886 0.0625,0.25196 0,0.1721 -0.03412,0.22341 -0.115234,0.28515 -4.78e-4,3.7e-4 4.81e-4,0.002 0,0.002 -0.08023,0.0585 -0.260379,0.11914 -0.5625,0.11914 h -0.601563 z"
           id="path19252" />
        <path
           style="color:#000000;-inkscape-font-specification:'Inter Heavy';fill:#ffa800;stroke:none;-inkscape-stroke:none"
           d="m 80.526823,134.2972 v -7.69695 h 3.337348 q 0.879436,0 1.477001,0.23677 0.601324,0.23677 0.905744,0.66897 0.308179,0.43221 0.308179,1.0185 0,0.42468 -0.187914,0.7742 -0.184155,0.34952 -0.518642,0.58629 -0.334486,0.23301 -0.781721,0.32321 v 0.0752 q 0.496093,0.0188 0.901986,0.2518 0.405894,0.22926 0.646423,0.63515 0.24053,0.40214 0.24053,0.94709 0,0.63139 -0.330728,1.12372 -0.32697,0.49233 -0.932052,0.7742 -0.605082,0.28188 -1.443177,0.28188 z m 2.089601,-1.66868 h 0.977151 q 0.526158,0 0.789238,-0.19543 0.263079,-0.19919 0.263079,-0.58629 0,-0.27059 -0.124023,-0.45851 -0.124023,-0.18791 -0.353278,-0.28563 -0.225497,-0.0977 -0.54495,-0.0977 h -1.007217 z m 0,-2.91642 h 0.856886 q 0.274354,0 0.484818,-0.0864 0.210463,-0.0864 0.326969,-0.24805 0.120265,-0.16536 0.120265,-0.40213 0,-0.35704 -0.255562,-0.54495 -0.255563,-0.19167 -0.646424,-0.19167 h -0.886952 z"
           id="path19254" />
      </g>
      <g
         id="path19207">
        <path
           style="color:#000000;-inkscape-font-specification:'Inter Heavy';fill:#ffffff;stroke:none;-inkscape-stroke:none"
           d="m 86.650391,126.22461 0.294921,0.55273 2.783204,5.19336 v 2.70117 h 2.824218 v -2.70117 l 3.078125,-5.74609 H 92.4375 l -1.296875,2.69922 -1.298828,-2.69922 z m 1.251953,0.75 h 1.46875 l 1.503906,3.12695 h 0.53125 l 1.503906,-3.12695 h 1.46875 l -2.576172,4.80859 v 2.13867 h -1.324218 v -2.13867 z"
           id="path19258" />
        <path
           style="color:#000000;-inkscape-font-specification:'Inter Heavy';fill:#ffa800;stroke:none;-inkscape-stroke:none"
           d="m 87.276688,126.60025 h 2.33013 l 1.503309,3.12688 h 0.06013 l 1.503309,-3.12688 h 2.33013 l -2.826222,5.27662 v 2.42033 H 90.10291 v -2.42033 z"
           id="path19260" />
      </g>
      <g
         id="path19209">
        <path
           style="color:#000000;-inkscape-font-specification:'Inter Heavy';fill:#ffffff;stroke:none;-inkscape-stroke:none"
           d="m 101.46875,126.11914 c -0.74633,0 -1.4407,0.16622 -2.058594,0.5 -0.623455,0.3343 -1.12483,0.83689 -1.486328,1.48047 -0.369139,0.65438 -0.544922,1.44448 -0.544922,2.34961 0,0.8993 0.171329,1.68613 0.53125,2.3418 h 0.002 c 0.356485,0.64441 0.853284,1.14919 1.47461,1.48632 h 0.002 c 0.619124,0.33445 1.319884,0.5 2.080074,0.5 0.60207,0 1.14564,-0.0925 1.625,-0.28711 0.46473,-0.18862 0.86655,-0.44254 1.19336,-0.76367 0.31882,-0.31332 0.56992,-0.66018 0.74805,-1.03906 v -0.002 c 0.17412,-0.37315 0.27966,-0.74915 0.30859,-1.125 l 0.0312,-0.40235 -2.8457,-0.0195 -0.0488,0.32031 c -0.0192,0.12698 -0.0556,0.23301 -0.10547,0.32422 v 0.002 c -0.048,0.0891 -0.10795,0.16046 -0.18359,0.22265 -0.0727,0.0598 -0.16087,0.10944 -0.27149,0.14649 -0.001,3.2e-4 -0.003,-3.2e-4 -0.004,0 -0.1095,0.0337 -0.2418,0.0547 -0.40235,0.0547 -0.27991,0 -0.48899,-0.0622 -0.66211,-0.17578 -0.16948,-0.1136 -0.3055,-0.28062 -0.41015,-0.53711 v -0.002 c -0.10183,-0.25936 -0.16211,-0.60792 -0.16211,-1.04492 0,-0.41157 0.0586,-0.74841 0.16015,-1.01172 0.10329,-0.26102 0.23958,-0.4366 0.41407,-0.56055 0.17359,-0.1217 0.38377,-0.1875 0.67382,-0.1875 0.16452,0 0.30033,0.0224 0.41016,0.0625 l 0.002,0.002 h 0.002 c 0.11338,0.0396 0.19833,0.0921 0.26757,0.1582 l 0.002,0.004 0.004,0.002 c 0.0744,0.0677 0.12916,0.14484 0.17188,0.24219 l 0.002,0.002 v 0.002 c 0.0456,0.10004 0.076,0.21734 0.0879,0.35547 l 0.0293,0.3418 h 2.87305 l -0.0352,-0.40625 c -0.0435,-0.5191 -0.1684,-0.99287 -0.38086,-1.41211 -0.20949,-0.4134 -0.49167,-0.76851 -0.83984,-1.05469 -0.34627,-0.28714 -0.74797,-0.5043 -1.19727,-0.65039 -0.45,-0.14632 -0.93681,-0.21875 -1.45703,-0.21875 z m 0,0.75 c 0.45192,0 0.85781,0.0624 1.22461,0.18164 0.3675,0.1195 0.68108,0.2897 0.95117,0.51367 l 0.002,0.002 c 0.26765,0.21977 0.48234,0.48864 0.64844,0.8164 0.10492,0.20704 0.14184,0.4752 0.19531,0.72852 h -1.35351 c -0.0232,-0.0832 -0.0274,-0.17418 -0.0625,-0.25196 v -0.002 c -0.082,-0.18635 -0.20237,-0.35343 -0.35156,-0.49023 -0.1496,-0.14186 -0.33006,-0.24817 -0.5293,-0.31836 -0.20587,-0.0751 -0.42966,-0.10938 -0.66602,-0.10938 -0.41149,0 -0.79299,0.10321 -1.10546,0.32227 v 0.002 h -0.002 c -0.30533,0.21627 -0.532801,0.52925 -0.679686,0.90235 h -0.002 v 0.002 c -0.143948,0.37309 -0.208984,0.80086 -0.208984,1.28125 0,0.50428 0.06646,0.94342 0.214844,1.32031 v 0.002 0.002 c 0.150198,0.37108 0.383816,0.67841 0.693356,0.88476 v 0.002 h 0.002 c 0.30794,0.20208 0.67764,0.29882 1.07422,0.29882 0.22376,0 0.4333,-0.0289 0.62891,-0.0898 h 0.004 0.002 c 0.19191,-0.063 0.36819,-0.15684 0.51953,-0.28125 0.14913,-0.12262 0.27306,-0.27488 0.36523,-0.44531 0.0419,-0.0765 0.0548,-0.16698 0.084,-0.25 l 1.36914,0.01 c -0.0403,0.15461 -0.0527,0.30355 -0.12891,0.4668 -0.13753,0.29208 -0.33561,0.56474 -0.59765,0.82227 -0.24946,0.24512 -0.56209,0.44638 -0.94922,0.60351 -0.37252,0.1512 -0.81639,0.23242 -1.3418,0.23242 -0.65293,0 -1.22128,-0.13826 -1.724606,-0.41015 -0.495722,-0.26899 -0.880925,-0.65501 -1.175782,-1.1875 v -0.002 c -0.285978,-0.52167 -0.439453,-1.17481 -0.439453,-1.97851 0,-0.80864 0.156903,-1.46228 0.449219,-1.98047 v -0.002 c 0.299719,-0.5336 0.689057,-0.91853 1.1875,-1.18555 v -0.002 h 0.002 c 0.504562,-0.27256 1.064442,-0.41016 1.701172,-0.41016 z"
           id="path19264" />
        <path
           style="color:#000000;-inkscape-font-specification:'Inter Heavy';fill:#ffa800;stroke:none;-inkscape-stroke:none"
           d="m 104.97064,129.4866 h -2.11967 q -0.0226,-0.26307 -0.12026,-0.4773 -0.094,-0.21422 -0.26308,-0.36831 -0.16537,-0.15784 -0.40214,-0.24053 -0.23677,-0.0864 -0.53743,-0.0864 -0.52616,0 -0.89071,0.25557 -0.3608,0.25556 -0.54871,0.73286 -0.184154,0.4773 -0.184154,1.14627 0,0.70656 0.187914,1.18386 0.19167,0.47354 0.55247,0.71407 0.36079,0.23677 0.86816,0.23677 0.28938,0 0.51864,-0.0714 0.22925,-0.0752 0.39838,-0.21423 0.16912,-0.13905 0.27435,-0.33448 0.10899,-0.19919 0.14657,-0.44724 l 2.11967,0.015 q -0.0376,0.48857 -0.27436,0.99594 -0.23677,0.50361 -0.67273,0.93205 -0.4322,0.42469 -1.0711,0.68401 -0.63891,0.25932 -1.48452,0.25932 -1.05984,0 -1.901689,-0.45475 -0.838095,-0.45476 -1.326671,-1.33795 -0.484817,-0.88319 -0.484817,-2.16101 0,-1.28533 0.496092,-2.16476 0.496092,-0.8832 1.337946,-1.33419 0.841849,-0.45475 1.879139,-0.45475 0.7291,0 1.3417,0.19919 0.6126,0.19919 1.07487,0.58253 0.46227,0.37959 0.74414,0.93581 0.28187,0.55622 0.342,1.27405 z"
           id="path19266" />
      </g>
      <g
         id="path19211">
        <path
           style="color:#000000;-inkscape-font-specification:'Inter Heavy';fill:#ffffff;stroke:none;-inkscape-stroke:none"
           d="m 107.69141,126.22461 -2.78907,8.44726 h 3.05274 l 0.0801,-0.26562 0.36523,-1.20703 h 1.98047 l 0.44531,1.47265 h 3.05078 l -2.78711,-8.44726 z m 0.54101,0.75 h 2.31446 l 1.29101,3.91016 h -1.37109 l -0.76758,-2.53907 h -0.61719 l -0.76562,2.53907 h -1.375 z m 1.15821,2.94336 0.29296,0.9668 h -0.58593 z m 2.47851,1.06055 0.97266,2.94335 h -1.45899 l -0.21875,-0.72265 h 0.70508 z m -4.98828,0.0918 v 0.18946 1.93945 h 0.73633 l -0.21875,0.72265 h -1.45899 z m 0.75,0.56446 h 0.45898 l -0.24609,0.81445 h -0.21289 z m 1.24023,0 h 1.03907 l 0.24414,0.81445 h -1.52735 z m 1.82032,0 h 0.42773 v 0.81445 h -0.18164 z"
           id="path19270" />
        <path
           style="color:#000000;-inkscape-font-specification:'Inter Heavy';fill:#ffa800;stroke:none;-inkscape-stroke:none"
           d="m 107.67658,134.2972 h -2.25496 l 2.54059,-7.69695 h 2.85629 l 2.54059,7.69695 h -2.25496 l -1.68371,-5.57728 h -0.0601 z m -0.42093,-3.03669 h 4.23934 v 1.56344 h -4.23934 z"
           id="path19272" />
      </g>
      <g
         id="path19213">
        <path
           style="color:#000000;-inkscape-font-specification:'Inter Heavy';fill:#ffffff;stroke:none;-inkscape-stroke:none"
           d="m 112.5332,126.22461 v 2.43359 h 0.375 1.93946 v 6.01367 h 2.81054 v -6.01367 h 2.31446 v -2.43359 z m 0.75,0.75 h 5.93946 v 0.93359 h -2.31446 v 6.01367 h -1.31054 v -6.01367 h -2.31446 z"
           id="path19276" />
        <path
           style="color:#000000;-inkscape-font-specification:'Inter Heavy';fill:#ffa800;stroke:none;-inkscape-stroke:none"
           d="m 112.9081,128.28396 v -1.68371 h 6.68972 v 1.68371 h -2.31509 v 6.01324 h -2.05954 v -6.01324 z"
           id="path19278" />
      </g>
      <g
         id="path19215">
        <path
           style="color:#000000;-inkscape-font-specification:'Inter Heavy';fill:#ffffff;stroke:none;-inkscape-stroke:none"
           d="m 120.00391,126.22461 v 8.44726 h 0.375 5.9082 v -2.43359 h -3.44336 v -0.57226 h 3.17188 v -2.4336 h -3.17188 v -0.57422 h 3.45703 v -2.43359 z m 0.75,0.75 h 4.79687 v 0.93359 h -3.45703 v 2.07422 h 3.17188 v 0.9336 h -3.17188 v 2.07226 h 3.44336 v 0.93359 h -4.7832 z"
           id="path19282" />
        <path
           style="color:#000000;-inkscape-font-specification:'Inter Heavy';fill:#ffa800;stroke:none;-inkscape-stroke:none"
           d="m 120.37954,134.2972 v -7.69695 h 5.54721 v 1.68371 h -3.45761 v 1.32291 h 3.17198 v 1.68371 h -3.17198 v 1.32291 h 3.44258 v 1.68371 z"
           id="path19284" />
      </g>
      <g
         id="path19217">
        <path
           style="color:#000000;-inkscape-font-specification:'Inter Heavy';fill:#ffffff;stroke:none;-inkscape-stroke:none"
           d="m 130.69141,126.11914 c -0.56092,0 -1.09345,0.0963 -1.5918,0.28906 -0.49963,0.19047 -0.94505,0.47649 -1.32617,0.85157 -0.38537,0.37698 -0.68586,0.8408 -0.89844,1.375 -0.21309,0.54239 -0.31641,1.15382 -0.31641,1.82812 0,0.8604 0.16797,1.62725 0.51758,2.2793 h 0.002 c 0.349,0.64579 0.84644,1.15787 1.47265,1.50976 0.62782,0.3528 1.35401,0.52539 2.15625,0.52539 0.72045,0 1.37821,-0.14293 1.95508,-0.43554 0.57974,-0.29545 1.04676,-0.73111 1.37695,-1.28516 0.33728,-0.56476 0.5,-1.23821 0.5,-1.99219 v -1.4414 h -4.16211 v 2.23828 h 1.28711 c -0.0616,0.0956 -0.14718,0.17227 -0.29883,0.23828 v 0.002 h -0.002 c -0.14667,0.0646 -0.35884,0.10742 -0.64062,0.10742 -0.30177,0 -0.5198,-0.0672 -0.69141,-0.1875 -0.17678,-0.12392 -0.3129,-0.30019 -0.41406,-0.56445 -0.10179,-0.26589 -0.15821,-0.60647 -0.15821,-1.02344 0,-0.41016 0.0593,-0.74318 0.16407,-1.00195 0.10695,-0.25788 0.24685,-0.43176 0.42578,-0.55469 0.18009,-0.12188 0.3985,-0.1875 0.68945,-0.1875 0.13399,0 0.2478,0.0158 0.3457,0.043 h 0.004 l 0.004,0.002 c 0.0994,0.0253 0.17493,0.0601 0.23632,0.10352 l 0.006,0.004 0.004,0.002 c 0.0669,0.0446 0.11683,0.0948 0.16016,0.1582 l 0.002,0.002 0.002,0.002 c 0.0412,0.0588 0.0728,0.13118 0.0957,0.22461 l 0.0703,0.28515 h 0.29492 2.52734 l -0.043,-0.41406 c -0.0451,-0.43424 -0.17312,-0.84197 -0.38477,-1.21093 -0.20928,-0.36484 -0.48763,-0.68188 -0.82617,-0.94532 -0.33746,-0.26715 -0.72647,-0.47108 -1.15821,-0.61133 -0.43135,-0.14332 -0.89635,-0.21484 -1.38671,-0.21484 z m 0,0.75 c 0.42028,0 0.80298,0.0613 1.15234,0.17774 h 0.002 0.002 c 0.35499,0.11531 0.65995,0.27743 0.92382,0.48632 v 0.002 h 0.002 c 0.26678,0.20724 0.4776,0.44772 0.63867,0.72851 0.0872,0.15203 0.10847,0.33372 0.1582,0.50195 h -1.37109 c -0.0297,-0.061 -0.0435,-0.13007 -0.082,-0.18554 -0.0951,-0.13932 -0.21538,-0.25867 -0.35547,-0.35352 l -0.004,-0.002 c -0.14201,-0.0997 -0.30343,-0.17029 -0.47656,-0.21484 -0.17163,-0.0473 -0.3526,-0.0703 -0.54297,-0.0703 -0.41059,0 -0.79338,0.10255 -1.10937,0.31641 h -0.002 c -0.31044,0.21224 -0.54423,0.52176 -0.69726,0.89258 h -0.002 v 0.002 c -0.15082,0.37263 -0.21875,0.80141 -0.21875,1.2832 0,0.48502 0.0652,0.9155 0.20899,1.29102 0.14438,0.37716 0.3743,0.69333 0.68359,0.91016 0.31446,0.22044 0.70128,0.32421 1.1211,0.32421 0.35461,0 0.66909,-0.0511 0.94336,-0.17187 0.26818,-0.11729 0.49828,-0.30107 0.64648,-0.54102 0.07,-0.11338 0.0682,-0.25543 0.10352,-0.38476 h 0.0957 l 0.0391,-0.74805 -0.77539,-0.0801 v 0.0781 h -0.64844 v -0.73828 h 2.66211 v 0.6914 c 0,0.64842 -0.13418,1.17532 -0.39258,1.60742 v 0.002 c -0.26111,0.43813 -0.61167,0.76428 -1.07421,1 -0.46041,0.23354 -0.99273,0.35351 -1.61524,0.35351 -0.69605,0 -1.28439,-0.14608 -1.78906,-0.42968 -0.50628,-0.28451 -0.89229,-0.67914 -1.17969,-1.21094 -0.28178,-0.52554 -0.42969,-1.16066 -0.42969,-1.92383 0,-0.59778 0.0913,-1.11137 0.26368,-1.55078 v -0.002 c 0.1782,-0.44722 0.41882,-0.81415 0.7246,-1.11328 h 0.002 v -0.002 c 0.30996,-0.30547 0.66184,-0.53058 1.06836,-0.68554 l 0.002,-0.002 c 0.40864,-0.15804 0.84589,-0.23828 1.32227,-0.23828 z"
           id="path19288" />
        <path
           style="color:#000000;-inkscape-font-specification:'Inter Heavy';fill:#ffa800;stroke:none;-inkscape-stroke:none"
           d="m 131.96255,129.14084 q -0.0488,-0.19919 -0.15409,-0.34952 -0.10523,-0.15409 -0.26308,-0.25932 -0.15408,-0.10899 -0.36079,-0.1616 -0.20295,-0.0564 -0.44723,-0.0564 -0.52616,0 -0.89823,0.25181 -0.36831,0.2518 -0.56374,0.72534 -0.19167,0.47355 -0.19167,1.14252 0,0.67649 0.18415,1.15755 0.18416,0.48106 0.54871,0.73662 0.36455,0.25556 0.90574,0.25556 0.4773,0 0.793,-0.13905 0.31945,-0.13906 0.4773,-0.39462 0.15785,-0.25557 0.15785,-0.60133 l 0.36079,0.0376 h -1.75887 v -1.48828 h 3.41251 v 1.06735 q 0,1.05232 -0.44723,1.80021 -0.44348,0.74414 -1.2252,1.14252 -0.77796,0.39462 -1.78518,0.39462 -1.12372,0 -1.97309,-0.4773 -0.84937,-0.4773 -1.32667,-1.3605 -0.47355,-0.88319 -0.47355,-2.10087 0,-0.95461 0.28939,-1.69123 0.29314,-0.73662 0.81179,-1.24399 0.51864,-0.51112 1.19889,-0.77044 0.68024,-0.26308 1.45821,-0.26308 0.684,0 1.27029,0.19543 0.59005,0.19167 1.04105,0.54871 0.45475,0.35327 0.73286,0.83809 0.27811,0.48482 0.33824,1.06359 z"
           id="path19290" />
      </g>
      <g
         id="path19219">
        <path
           style="color:#000000;-inkscape-font-specification:'Inter Heavy';fill:#ffffff;stroke:none;-inkscape-stroke:none"
           d="m 138.85547,126.11914 c -0.75556,0 -1.45507,0.16642 -2.07813,0.5 -0.62636,0.33405 -1.13169,0.83659 -1.49609,1.48047 -0.36914,0.65438 -0.54492,1.44448 -0.54492,2.34961 0,0.90041 0.17638,1.68763 0.54492,2.34375 v 0.002 c 0.36429,0.64093 0.8693,1.14362 1.49414,1.48242 h 0.002 c 0.62306,0.33359 1.32257,0.5 2.07813,0.5 0.75049,0 1.44782,-0.1636 2.07031,-0.49414 v -0.002 c 0.62794,-0.3362 1.13345,-0.83704 1.49805,-1.47852 h 0.002 c 0.37164,-0.65666 0.54688,-1.44801 0.54688,-2.35351 0,-0.9055 -0.17682,-1.69509 -0.54883,-2.34961 -0.36455,-0.64362 -0.86958,-1.14677 -1.49805,-1.48047 -0.62265,-0.33337 -1.31937,-0.5 -2.07031,-0.5 z m 0,0.75 c 0.64213,0 1.20696,0.13914 1.7168,0.41211 h 0.002 c 0.5036,0.2674 0.8954,0.65413 1.19726,1.1875 h 0.002 c 0.29445,0.51805 0.44922,1.17219 0.44922,1.98047 0,0.80827 -0.15635,1.46148 -0.45118,1.98242 -0.30176,0.53043 -0.69508,0.91954 -1.19921,1.18945 -0.50957,0.27022 -1.07492,0.40625 -1.7168,0.40625 -0.64683,0 -1.21364,-0.13798 -1.72266,-0.41015 h -0.002 c -0.50124,-0.27207 -0.89358,-0.66152 -1.19531,-1.19141 -0.29291,-0.52146 -0.44922,-1.17321 -0.44922,-1.97656 0,-0.80864 0.1569,-1.46228 0.44922,-1.98047 0.30196,-0.53304 0.69459,-0.92045 1.19531,-1.1875 0.50943,-0.27275 1.07709,-0.41211 1.72461,-0.41211 z m 0,1.07031 c -0.40554,0 -0.78194,0.10055 -1.08985,0.31446 -0.30441,0.2105 -0.5298,0.52124 -0.67382,0.89453 v 0.002 c -0.14189,0.37244 -0.20508,0.80521 -0.20508,1.29883 0,0.49363 0.0636,0.92655 0.20508,1.30078 v 0.002 0.002 c 0.14411,0.37057 0.36959,0.68033 0.67187,0.89257 h 0.002 l 0.002,0.002 c 0.30786,0.21064 0.68325,0.31054 1.08789,0.31054 0.40464,0 0.77981,-0.0989 1.08594,-0.31054 v -0.002 c 0.30555,-0.21227 0.53201,-0.52228 0.67382,-0.89453 0.14466,-0.37494 0.20899,-0.80843 0.20899,-1.30273 0,-0.4943 -0.0658,-0.92762 -0.21094,-1.30078 -0.14109,-0.37191 -0.36527,-0.68262 -0.66992,-0.89258 -5.1e-4,-3.6e-4 -0.001,3.5e-4 -0.002,0 -0.30588,-0.21423 -0.68107,-0.31641 -1.08594,-0.31641 z m 0,0.75 c 0.28597,0 0.49136,0.0639 0.65625,0.17969 l 0.002,0.002 h 0.002 c 0.16839,0.11521 0.29962,0.28347 0.39844,0.54493 v 0.002 l 0.002,0.002 c 0.10041,0.25823 0.1582,0.60157 0.1582,1.0293 0,0.42773 -0.0593,0.77175 -0.16016,1.0332 v 0.002 c -0.0987,0.25914 -0.22989,0.42843 -0.40039,0.54688 -0.16491,0.11403 -0.37132,0.17773 -0.6582,0.17773 -0.2851,0 -0.49251,-0.064 -0.66016,-0.17773 -3.9e-4,-2.7e-4 3.9e-4,-0.002 0,-0.002 -0.16751,-0.11798 -0.3013,-0.28647 -0.40234,-0.54493 -0.0991,-0.26217 -0.15625,-0.60674 -0.15625,-1.03515 0,-0.4284 0.0576,-0.77231 0.15625,-1.03125 h -0.002 c 0.10151,-0.26312 0.23573,-0.43166 0.40234,-0.54688 v -0.002 c 0.16815,-0.11682 0.37613,-0.17969 0.66211,-0.17969 z"
           id="path19294" />
        <path
           style="color:#000000;-inkscape-font-specification:'Inter Heavy';fill:#ffa800;stroke:none;-inkscape-stroke:none"
           d="m 142.59847,130.44872 q 0,1.28533 -0.49985,2.16853 -0.49985,0.87943 -1.34922,1.33418 -0.84937,0.451 -1.89417,0.451 -1.05231,0 -1.90168,-0.45475 -0.84562,-0.45851 -1.34547,-1.33795 -0.49609,-0.88319 -0.49609,-2.16101 0,-1.28533 0.49609,-2.16476 0.49985,-0.8832 1.34547,-1.33419 0.84937,-0.45475 1.90168,-0.45475 1.0448,0 1.89417,0.45475 0.84937,0.45099 1.34922,1.33419 0.49985,0.87943 0.49985,2.16476 z m -2.14973,0 q 0,-0.69152 -0.18415,-1.16506 -0.1804,-0.4773 -0.53744,-0.72159 -0.35328,-0.24805 -0.87192,-0.24805 -0.51864,0 -0.87568,0.24805 -0.35327,0.24429 -0.53743,0.72159 -0.1804,0.47354 -0.1804,1.16506 0,0.69153 0.1804,1.16883 0.18416,0.47354 0.53743,0.72158 0.35704,0.24429 0.87568,0.24429 0.51864,0 0.87192,-0.24429 0.35704,-0.24804 0.53744,-0.72158 0.18415,-0.4773 0.18415,-1.16883 z"
           id="path19296" />
      </g>
      <g
         id="path19221">
        <path
           style="color:#000000;-inkscape-font-specification:'Inter Heavy';fill:#ffffff;stroke:none;-inkscape-stroke:none"
           d="m 143.18555,126.22461 v 8.44726 h 0.375 2.46484 v -2.54101 h 0.12305 l 1.35156,2.54101 h 3.12695 l -1.73828,-3.1914 c 0.29176,-0.19813 0.60728,-0.37283 0.79688,-0.66797 0.29013,-0.4478 0.42773,-0.9895 0.42773,-1.5957 0,-0.60068 -0.13177,-1.14442 -0.41016,-1.60157 -0.27464,-0.45099 -0.66932,-0.80467 -1.15625,-1.04101 -0.48734,-0.23655 -1.0473,-0.34961 -1.66406,-0.34961 z m 0.75,0.75 h 2.94726 c 0.52575,0 0.96639,0.096 1.33594,0.27539 0.36995,0.17957 0.64234,0.42513 0.84375,0.75586 0.19767,0.32459 0.30078,0.71921 0.30078,1.21094 0,0.49553 -0.10638,0.88088 -0.30664,1.18945 l -0.002,0.002 c -0.12214,0.19014 -0.33538,0.29592 -0.51758,0.42969 l -0.24414,-0.44922 h -0.22266 -0.91992 c 0.22948,-0.0845 0.43491,-0.22957 0.57227,-0.42773 v -0.002 c 0.14896,-0.21252 0.21093,-0.47027 0.21093,-0.74218 0,-0.2723 -0.0612,-0.53231 -0.20703,-0.7461 -0.13744,-0.20686 -0.34449,-0.36114 -0.58008,-0.44922 -0.2281,-0.0886 -0.48117,-0.12695 -0.75976,-0.12695 h -1.11133 v 1.86328 h -0.82617 v 2.37305 h 0.82617 v 1.79101 h -1.33984 z m 2.08984,1.66992 h 0.36133 c 0.2111,0 0.37346,0.0285 0.49023,0.0742 l 0.004,0.002 0.004,0.002 c 0.11321,0.0421 0.17129,0.0903 0.21875,0.16211 l 0.002,0.004 0.002,0.004 c 0.042,0.0608 0.0762,0.15771 0.0762,0.32422 0,0.16338 -0.0336,0.25471 -0.0742,0.3125 v 0.002 l -0.002,0.002 c -0.0456,0.0666 -0.10415,0.11531 -0.21875,0.15625 -0.12075,0.0418 -0.28784,0.0684 -0.50195,0.0684 h -0.36133 z m -0.82617,1.86328 h 0.0762 v 0.87305 h -0.0762 z m 1.26953,0.63086 h 1.37891 l 0.0234,0.0449 c -0.32095,0.10045 -0.64424,0.19727 -1.0625,0.19727 h -0.21093 z m 1.77148,0.7207 1.12305,2.0625 h -1.41406 l -0.9707,-1.82421 c 0.45968,-0.0157 0.87584,-0.10125 1.26171,-0.23829 z"
           id="path19300" />
        <path
           style="color:#000000;-inkscape-font-specification:'Inter Heavy';fill:#ffa800;stroke:none;-inkscape-stroke:none"
           d="m 143.56058,134.2972 v -7.69695 h 3.32232 q 0.85688,0 1.49955,0.31194 0.64266,0.31193 0.9997,0.89822 0.35704,0.5863 0.35704,1.4056 0,0.82682 -0.36831,1.39432 -0.36456,0.5675 -1.02601,0.85689 -0.6577,0.28938 -1.53714,0.28938 h -1.98437 v -1.62357 h 1.56345 q 0.36831,0 0.62763,-0.0902 0.26308,-0.094 0.40213,-0.2969 0.14282,-0.20295 0.14282,-0.52992 0,-0.33073 -0.14282,-0.53743 -0.13905,-0.21047 -0.40213,-0.30818 -0.25932,-0.10148 -0.62763,-0.10148 h -0.73663 v 6.02828 z m 4.50993,-3.53278 1.92424,3.53278 h -2.27 l -1.87914,-3.53278 z"
           id="path19302" />
      </g>
      <g
         id="path19223">
        <path
           style="color:#000000;-inkscape-font-specification:'Inter Heavy';fill:#ffffff;stroke:none;-inkscape-stroke:none"
           d="m 149.32422,126.22461 0.29492,0.55273 2.78125,5.19336 v 2.70117 h 2.82422 v -2.70117 l 3.07812,-5.74609 h -3.1914 l -1.29883,2.69922 -1.29688,-2.69922 z m 1.25,0.75 h 1.4707 l 1.50195,3.12695 h 0.53125 l 1.50391,-3.12695 h 1.46875 l -2.57617,4.80859 v 2.13867 h -1.32422 v -2.13867 z"
           id="path19306" />
        <path
           style="color:#000000;-inkscape-font-specification:'Inter Heavy';fill:#ffa800;stroke:none;-inkscape-stroke:none"
           d="m 149.94967,126.60025 h 2.33013 l 1.50331,3.12688 h 0.0601 l 1.50331,-3.12688 h 2.33013 l -2.82622,5.27662 v 2.42033 h -2.07457 v -2.42033 z"
           id="path19308" />
      </g>
    </g>
  </g>
</svg>
