<?xml version="1.0" encoding="UTF-8" standalone="no"?>
<!-- Created with Inkscape (http://www.inkscape.org/) -->

<svg
   width="716.64392mm"
   height="105.1747mm"
   viewBox="0 0 716.64393 105.17469"
   version="1.1"
   id="svg5"
   xmlns="http://www.w3.org/2000/svg"
   xmlns:svg="http://www.w3.org/2000/svg">
  <defs
     id="defs2" />
  <g
     id="layer1"
     transform="matrix(10,0,0,10,-691.6781,-1432.4126)">
    <path
       id="path31901"
       style="color:#000000;font-size:10.5833px;font-family:'Noto Sans';-inkscape-font-specification:'Noto Sans Heavy';word-spacing:0px;fill:#ffffff;fill-opacity:0.5;stroke:none;stroke-width:1.75;stroke-opacity:1;-inkscape-stroke:none;paint-order:stroke fill markers"
       d="m 80.775639,143.74144 c -0.930164,0 -1.781384,0.23507 -2.429827,0.77307 -0.313743,0.25732 -0.557602,0.58412 -0.72657,0.95033 v -1.61799 H 76.74436 74.271644 v 5.49011 c 0,0.46613 -0.106852,0.67127 -0.144695,0.71468 l -0.0036,0.006 -0.0062,0.004 c -0.02451,0.029 -0.09411,0.10335 -0.462502,0.10335 -0.351814,0 -0.466495,-0.0742 -0.515731,-0.12092 -0.0018,-0.003 -0.122992,-0.19338 -0.122992,-0.69763 v -5.49993 H 69.66781 v 5.74384 c 0,1.02098 0.352015,1.97263 1.043347,2.65462 l 0.0021,0.002 0.0015,0.002 c 0.722604,0.70307 1.747208,1.00976 2.896981,1.00976 0.798663,0 1.522122,-0.13589 2.146123,-0.45735 l 0.0062,-0.002 0.0036,-0.002 c 0.593738,-0.31487 1.085413,-0.77719 1.396815,-1.35134 0.03248,-0.0593 0.06248,-0.11944 0.09147,-0.18035 v 1.21181 l 0.494027,0.23978 c 0.758553,0.36649 1.609416,0.54105 2.517677,0.54105 1.018628,0 1.924646,-0.22694 2.609141,-0.79065 h 0.0021 v -0.002 c 0.27681,-0.22867 0.503148,-0.50727 0.67386,-0.81753 v 1.50482 h 6.099886 3.175516 v -2.0836 l 1.292945,2.0836 H 98.0335 L 95.390767,149.239 c 0.0066,-0.005 0.01462,-0.008 0.02119,-0.0134 h 0.0021 v -0.002 c 0.305771,-0.25645 0.555299,-0.57539 0.734322,-0.93174 0.204528,-0.39982 0.299206,-0.84732 0.299206,-1.30482 0,-0.94908 -0.365204,-1.85135 -1.084172,-2.3983 -4.66e-4,-3.6e-4 -0.0016,3.6e-4 -0.0021,0 -0.723095,-0.55472 -1.671293,-0.74209 -2.806546,-0.74209 H 89.652616 83.55273 v 0.57466 l -0.187585,-0.0806 c -0.429199,-0.18396 -0.843219,-0.32887 -1.24592,-0.43356 -0.429768,-0.11175 -0.880769,-0.16589 -1.343586,-0.16589 z m 18.439183,0.10541 v 9.30641 h 3.349668 v -2.08566 l 1.29501,2.08566 h 3.90984 4.53151 v -0.87488 -2.19728 h -2.75177 v -0.1974 h 2.56056 v -2.26188 l 1.87482,5.53144 h 2.99982 l 2.23811,-6.57842 0.0899,0.0413 v 3.76773 l -0.91984,0.42375 v 2.34559 h 5.18987 5.64048 v -0.87488 -2.19728 h -2.75229 v -0.19741 h 2.56264 v -1.37976 l 1.18545,4.64933 h 3.17966 l 0.68988,-2.68562 0.69505,2.68562 h 3.17758 l 2.37143,-9.30641 h -1.125 -2.27169 l -0.66766,2.86494 -0.74414,-2.86494 h -2.86753 l -0.74414,2.86132 -0.66766,-2.86132 h -2.02158 -5.64048 -4.65243 -2.25981 l -1.18391,3.72638 -1.17564,-3.72638 h -2.00969 -6.09937 v 6.98407 l -1.07436,-1.59164 c 0.007,-0.005 0.0146,-0.008 0.0212,-0.0134 h 0.002 v -0.002 c 0.30467,-0.25552 0.55542,-0.57331 0.73432,-0.92811 0.20576,-0.40067 0.29921,-0.84963 0.29921,-1.30844 0,-0.94908 -0.36521,-1.85135 -1.08418,-2.39831 -4.6e-4,-3.6e-4 -0.002,3.6e-4 -0.002,0 -0.7231,-0.55472 -1.66923,-0.74207 -2.80448,-0.74207 z m -15.662092,2.29857 v 2.54455 c -0.21059,-0.35387 -0.500417,-0.65848 -0.839743,-0.90382 -4.2e-4,-3.1e-4 -0.0016,3.1e-4 -0.0021,0 -0.325991,-0.24005 -0.700231,-0.45658 -1.127062,-0.65836 h 0.0041 c -0.21848,-0.10435 -0.307268,-0.1632 -0.466638,-0.24805 0.06942,0.0126 0.142272,0.0102 0.210839,0.0295 0.233958,0.066 0.515194,0.16344 0.837676,0.29507 l 0.80667,0.32815 z m 39.57019,0.25839 v 4.1925 l -0.46095,-0.21239 v -3.76773 z m -33.662023,0.50539 h 0.01757 v 3.1719 H 86.90033 v -0.1974 h 2.560566 z m 3.367235,0.0568 c 0.06272,0.0148 0.188156,0.0287 0.251148,0.0367 -3.52e-4,0.009 -10e-4,0.0161 -10e-4,0.0279 0,0.14929 0.0094,0.0734 -0.0041,0.0837 l -0.0036,0.004 -0.0062,0.004 c 0.01415,-0.0111 -0.176461,0.0147 -0.236162,0.031 z m 9.736358,0 c 0.0627,0.0148 0.18816,0.0287 0.25115,0.0367 -3.5e-4,0.009 -0.001,0.0161 -0.001,0.0279 0,0.14929 0.009,0.0734 -0.004,0.0837 l -0.004,0.004 -0.006,0.004 c 0.0142,-0.0111 -0.17646,0.0147 -0.23616,0.031 z m -24.945248,1.09348 c 0.159422,0.3217 0.369152,0.61359 0.624769,0.85937 l 0.01189,0.0119 0.01395,0.0119 c 0.230087,0.20452 0.472805,0.38397 0.730186,0.53485 l 0.0098,0.006 0.0098,0.006 c 0.216715,0.11956 0.421301,0.22512 0.615466,0.31832 h 0.0015 l 0.0021,0.002 c 0.269995,0.12825 0.506836,0.24786 0.706935,0.3576 l 0.0098,0.006 0.0098,0.004 c 0.0051,0.003 0.0048,0.003 0.0098,0.006 -0.276502,-0.002 -0.558043,-0.0451 -0.857313,-0.14263 h -0.0036 c -0.356335,-0.12582 -0.701892,-0.26156 -1.037145,-0.40618 l -0.85783,-0.37103 z" />
    <g
       aria-label="USER REVIEW"
       id="text31858"
       style="font-size:10.5833px;font-family:'Noto Sans';-inkscape-font-specification:'Noto Sans';word-spacing:0px;fill:#ff6b00;stroke-width:1.75;stroke-opacity:0.5;paint-order:stroke fill markers"
       transform="translate(22.19392,17.98104)">
      <path
         d="m 54.675674,126.74072 v 4.88948 q 0,0.78317 -0.349249,1.41817 -0.338666,0.62441 -1.037163,0.99483 -0.698498,0.35983 -1.746245,0.35983 -1.502828,0 -2.285993,-0.762 -0.783164,-0.77258 -0.783164,-2.03199 v -4.86832 h 1.598078 v 4.6249 q 0,0.94192 0.380999,1.32291 0.380999,0.37042 1.132413,0.37042 0.783165,0 1.132413,-0.41275 0.359833,-0.41275 0.359833,-1.29116 v -4.61432 z"
         style="-inkscape-font-specification:'Noto Sans Heavy'"
         id="path31959" />
      <path
         d="m 60.983326,132.2017 q 0,1.00542 -0.730247,1.60866 -0.719665,0.59267 -2.053161,0.59267 -1.195912,0 -2.137826,-0.45508 v -1.49225 q 0.539748,0.23283 1.111246,0.43392 0.582082,0.1905 1.15358,0.1905 0.592665,0 0.836081,-0.22225 0.253999,-0.23284 0.253999,-0.58208 0,-0.28575 -0.201083,-0.48684 -0.190499,-0.20108 -0.518581,-0.37041 -0.328083,-0.17992 -0.751415,-0.381 -0.264582,-0.127 -0.571498,-0.29633 -0.306916,-0.17992 -0.592665,-0.43392 -0.275165,-0.26458 -0.455082,-0.635 -0.179916,-0.37041 -0.179916,-0.88899 0,-1.016 0.687915,-1.57692 0.687914,-0.57149 1.873244,-0.57149 0.592665,0 1.12183,0.13758 0.529165,0.13758 1.121829,0.39158 l -0.518581,1.24883 q -0.518582,-0.21167 -0.931331,-0.32808 -0.412748,-0.11642 -0.846664,-0.11642 -0.455082,0 -0.698497,0.21167 -0.243416,0.21166 -0.243416,0.55033 0,0.40217 0.359832,0.635 0.359832,0.23283 1.068913,0.5715 0.582082,0.27516 0.984247,0.57149 0.412749,0.29634 0.634998,0.6985 0.222249,0.40217 0.222249,0.99483 z"
         style="-inkscape-font-specification:'Noto Sans Heavy'"
         id="path31961" />
      <path
         d="m 66.708897,134.2972 h -4.349736 v -7.55648 h 4.349736 v 1.31233 h -2.751658 v 1.66158 h 2.561159 v 1.31233 h -2.561159 v 1.94732 h 2.751658 z"
         style="-inkscape-font-specification:'Noto Sans Heavy'"
         id="path31963" />
      <path
         d="m 70.487129,126.74072 q 1.545161,0 2.275409,0.56091 0.740831,0.56092 0.740831,1.70392 0,0.51858 -0.201083,0.91016 -0.190499,0.381 -0.518581,0.65616 -0.317499,0.26459 -0.687915,0.43392 l 2.222493,3.29141 h -1.777994 l -1.799161,-2.89983 h -0.857247 v 2.89983 h -1.598079 v -7.55648 z m -0.116417,1.31233 h -0.486831 v 2.04258 h 0.518581 q 0.793748,0 1.132413,-0.26459 0.349249,-0.26458 0.349249,-0.78316 0,-0.53975 -0.370415,-0.762 -0.370416,-0.23283 -1.142997,-0.23283 z"
         style="-inkscape-font-specification:'Noto Sans Heavy'"
         id="path31965" />
      <path
         d="m 80.223766,126.74072 q 1.545162,0 2.275409,0.56091 0.740831,0.56092 0.740831,1.70392 0,0.51858 -0.201083,0.91016 -0.190499,0.381 -0.518581,0.65616 -0.317499,0.26459 -0.687915,0.43392 l 2.222493,3.29141 h -1.777994 l -1.799161,-2.89983 h -0.857247 v 2.89983 h -1.598079 v -7.55648 z m -0.116417,1.31233 h -0.486831 v 2.04258 h 0.518581 q 0.793748,0 1.132413,-0.26459 0.349249,-0.26458 0.349249,-0.78316 0,-0.53975 -0.370415,-0.762 -0.370416,-0.23283 -1.142997,-0.23283 z"
         style="-inkscape-font-specification:'Noto Sans Heavy'"
         id="path31967" />
      <path
         d="m 89.357153,134.2972 h -4.349736 v -7.55648 h 4.349736 v 1.31233 h -2.751658 v 1.66158 h 2.561159 v 1.31233 h -2.561159 v 1.94732 h 2.751658 z"
         style="-inkscape-font-specification:'Noto Sans Heavy'"
         id="path31969" />
      <path
         d="m 96.860705,126.74072 -2.571742,7.55648 h -1.746245 l -2.561158,-7.55648 h 1.619245 l 1.418162,4.4979 q 0.03175,0.11642 0.116416,0.43392 0.08467,0.30691 0.169333,0.65616 0.08467,0.33867 0.116416,0.5715 0.03175,-0.23283 0.105833,-0.5715 0.08467,-0.34925 0.15875,-0.65616 0.08467,-0.3175 0.126999,-0.43392 l 1.428746,-4.4979 z"
         style="-inkscape-font-specification:'Noto Sans Heavy'"
         id="path31971" />
      <path
         d="m 100.63894,134.2972 h -3.439572 v -0.91017 l 0.920747,-0.42333 v -4.88948 l -0.920747,-0.42334 v -0.91016 h 3.439572 v 0.91016 l -0.920747,0.42334 v 4.88948 l 0.920747,0.42333 z"
         style="-inkscape-font-specification:'Noto Sans Heavy'"
         id="path31973" />
      <path
         d="m 106.27984,134.2972 h -4.34974 v -7.55648 h 4.34974 v 1.31233 h -2.75166 v 1.66158 h 2.56116 v 1.31233 h -2.56116 v 1.94732 h 2.75166 z"
         style="-inkscape-font-specification:'Noto Sans Heavy'"
         id="path31975" />
      <path
         d="m 117.1383,126.74072 -1.92616,7.55648 h -1.82033 l -1.02658,-3.96874 q -0.0318,-0.11642 -0.0847,-0.34925 -0.0423,-0.23283 -0.10583,-0.508 -0.0529,-0.27516 -0.10583,-0.51858 -0.0423,-0.24342 -0.0529,-0.39158 -0.0106,0.14816 -0.0635,0.39158 -0.0423,0.24342 -0.0952,0.51858 -0.0529,0.26458 -0.10583,0.508 -0.0529,0.23283 -0.0847,0.35983 l -1.01599,3.95816 h -1.82033 l -1.92616,-7.55648 h 1.57691 l 0.96308,4.12749 q 0.0635,0.24341 0.13758,0.61383 0.0741,0.37041 0.13758,0.74083 0.0635,0.37041 0.0953,0.62441 0.0318,-0.26458 0.0952,-0.62441 0.0635,-0.37042 0.127,-0.70908 0.0741,-0.34925 0.127,-0.53975 l 1.10067,-4.23332 h 1.51341 l 1.10066,4.23332 q 0.0529,0.1905 0.11642,0.53975 0.0741,0.33866 0.13758,0.70908 0.0635,0.37041 0.0953,0.62441 0.0318,-0.26458 0.0952,-0.62441 0.0635,-0.37042 0.13758,-0.73025 0.0847,-0.37041 0.13759,-0.62441 l 0.96308,-4.12749 z"
         style="-inkscape-font-specification:'Noto Sans Heavy'"
         id="path31977" />
    </g>
  </g>
</svg>
