<?xml version="1.0" encoding="UTF-8" standalone="no"?>
<!-- Created with Inkscape (http://www.inkscape.org/) -->

<svg
   width="98.246094mm"
   height="11.02986mm"
   viewBox="0 0 98.246094 11.02986"
   version="1.1"
   id="svg5"
   xmlns="http://www.w3.org/2000/svg"
   xmlns:svg="http://www.w3.org/2000/svg">
  <defs
     id="defs2" />
  <g
     id="layer1"
     transform="translate(-63.710937,-110.19922)">
    <g
       aria-label="NEWEST PRODUCT"
       id="text4824"
       style="font-size:10.5833px;font-family:'Noto Sans';-inkscape-font-specification:'Noto Sans';word-spacing:0px;fill:none;stroke:#ffffff;stroke-width:2.25;paint-order:stroke fill markers">
      <path
         style="color:#000000;-inkscape-font-specification:'Noto Sans Heavy';fill:#ffffff;stroke:none;-inkscape-stroke:none"
         d="m 64.210937,110.81641 v 9.80664 h 3.677735 v -2.54297 l 1.464844,2.54297 h 3.80664 v -1.125 -8.68164 h -3.689453 v 2.52734 l -1.464844,-2.52734 z"
         id="path9094" />
      <path
         style="color:#000000;-inkscape-font-specification:'Noto Sans Heavy';fill:#ffffff;stroke:none;-inkscape-stroke:none"
         d="m 72.814453,110.81641 v 9.80664 h 6.599609 v -1.125 -2.44922 h -0.189453 v -2.66992 h 0.189453 v -3.5625 z"
         id="path9096" />
      <path
         style="color:#000000;-inkscape-font-specification:'Noto Sans Heavy';fill:#ffffff;stroke:none;-inkscape-stroke:none"
         d="m 77.466797,110.81641 2.5,9.80664 h 3.566406 l 0.496094,-1.93555 0.501953,1.93555 h 3.564453 l 2.5,-9.80664 h -1.447266 -2.470703 l -0.482422,2.06836 -0.537109,-2.06836 h -3.253906 l -0.539063,2.07031 -0.482422,-2.07031 z m 6.564453,2.68554 0.04687,0.17969 h -0.09375 z m -2.195313,4.68164 -0.04883,0.18946 h -0.07227 l -0.04883,-0.1875 z m 4.560547,0 -0.04883,0.18946 h -0.07422 l -0.04883,-0.1875 z"
         id="path9098" />
      <path
         style="color:#000000;-inkscape-font-specification:'Noto Sans Heavy';fill:#ffffff;stroke:none;-inkscape-stroke:none"
         d="m 88.976562,110.81641 v 9.80664 h 6.59961 v -1.125 -2.44922 h -0.191406 v -2.66992 h 0.191406 v -3.5625 z"
         id="path9100" />
      <path
         style="color:#000000;-inkscape-font-specification:'Noto Sans Heavy';fill:#ffffff;stroke:none;-inkscape-stroke:none"
         d="m 98.207031,110.71094 c -0.968509,0 -1.883741,0.24546 -2.585937,0.82617 -0.715061,0.58428 -1.09961,1.51696 -1.09961,2.44727 0,0.47582 0.08288,0.94832 0.292969,1.38085 0.172428,0.355 0.403296,0.67985 0.6875,0.95313 l 0.01563,0.0156 0.01563,0.0137 c 0.0734,0.0652 0.158062,0.11142 0.234375,0.17187 L 94.4375,115.94531 v 3.90821 l 0.634766,0.30859 c 0.79587,0.38452 1.68698,0.56641 2.626953,0.56641 1.055661,0 2.024589,-0.23775 2.767581,-0.84961 h 0.002 c 0.72342,-0.59762 1.13867,-1.53393 1.13867,-2.47657 0,-0.53573 -0.1,-1.06618 -0.36133,-1.53906 -0.17299,-0.31305 -0.4467,-0.55061 -0.71289,-0.78906 l 0.01,0.004 1.37305,-3.3086 -1.02149,-0.43945 c -0.43893,-0.18812 -0.86429,-0.3369 -1.281249,-0.44531 -0.451769,-0.11746 -0.924089,-0.17383 -1.40625,-0.17383 z m 1.304688,5.48242 0.01953,0.0215 c -0.0046,-0.005 -0.01096,-0.007 -0.01563,-0.0117 -0.0024,-0.002 -0.0015,-0.007 -0.0039,-0.01 z"
         id="path9102" />
      <path
         style="color:#000000;-inkscape-font-specification:'Noto Sans Heavy';fill:#ffffff;stroke:none;-inkscape-stroke:none"
         d="m 99.992187,110.81641 v 3.58398 h 2.054693 v 6.22266 h 3.84765 v -1.125 -5.09766 h 2.05274 v -3.58398 z"
         id="path9104" />
      <path
         style="color:#000000;-inkscape-font-specification:'Noto Sans Heavy';fill:#ffffff;stroke:none;-inkscape-stroke:none"
         d="m 109.61328,110.81641 v 9.80664 h 3.84766 v -2.78321 c 0.65835,-0.0417 1.30086,-0.0995 1.83594,-0.39257 0.59634,-0.32321 1.10311,-0.81064 1.39648,-1.41993 0.25762,-0.53507 0.38672,-1.1273 0.38672,-1.72656 0,-0.9621 -0.34492,-1.90542 -1.03516,-2.54492 -0.74088,-0.70003 -1.76214,-0.93945 -2.89453,-0.93945 z"
         id="path9106" />
      <path
         style="color:#000000;-inkscape-font-specification:'Noto Sans Heavy';fill:#ffffff;stroke:none;-inkscape-stroke:none"
         d="m 116.25977,110.81641 v 9.80664 h 3.84765 v -1.45899 l 0.90625,1.45899 h 4.51953 l -2.80078,-4.15039 c 0.26306,-0.25171 0.50881,-0.52616 0.67188,-0.85157 0.22298,-0.43827 0.32226,-0.92823 0.32226,-1.41601 0,-1.00411 -0.39798,-2.00153 -1.18359,-2.59766 -0.79029,-0.60531 -1.79252,-0.79101 -2.95703,-0.79101 z m 4.93164,1.70507 0.0195,0.0117 c -0.004,-0.002 -0.008,3e-4 -0.0117,-0.002 -0.004,-0.002 -0.004,-0.008 -0.008,-0.01 z m 0.13476,3.39649 -0.0137,0.01 c 0.002,-0.002 10e-4,-0.006 0.004,-0.008 0.003,-0.002 0.007,3.5e-4 0.01,-0.002 z"
         id="path9108" />
      <path
         style="color:#000000;-inkscape-font-specification:'Noto Sans Heavy';fill:#ffffff;stroke:none;-inkscape-stroke:none"
         d="m 127.63867,110.69922 c -0.9714,0 -1.86683,0.19302 -2.62109,0.64844 -8.1e-4,4.8e-4 -10e-4,10e-4 -0.002,0.002 -0.71655,0.43061 -1.28277,1.07663 -1.62891,1.84375 l -0.002,0.004 -0.004,0.006 c -0.32911,0.74963 -0.47461,1.5913 -0.47461,2.49609 0,0.90478 0.14581,1.74643 0.47266,2.5 l 0.004,0.006 0.002,0.004 c 0.34468,0.77321 0.90905,1.42808 1.625,1.86719 l 0.002,0.002 h 0.002 c 0.75313,0.45584 1.64809,0.65039 2.61524,0.65039 0.96493,0 1.85506,-0.19297 2.60351,-0.65039 0.72143,-0.43666 1.29072,-1.088 1.63086,-1.86133 0.33593,-0.75509 0.48828,-1.60101 0.48828,-2.50782 0,-0.90394 -0.15227,-1.74476 -0.48828,-2.49414 -0.33746,-0.77516 -0.90032,-1.43057 -1.61914,-1.86328 -0.74845,-0.45743 -1.64053,-0.65234 -2.60547,-0.65234 z m -2.40429,2.51953 c -7e-4,0.001 6.9e-4,0.003 0,0.004 -8e-4,10e-4 -0.003,7.5e-4 -0.004,0.002 z m 2.40429,1.06445 c 0.42342,0 0.43134,0.0434 0.51563,0.17383 l 0.004,0.004 0.002,0.002 c 0.13117,0.19988 0.25976,0.5965 0.25976,1.24609 0,0.64767 -0.1296,1.0461 -0.26562,1.25782 -0.0762,0.11658 -0.0933,0.16797 -0.52539,0.16797 -0.41301,0 -0.43445,-0.0479 -0.52149,-0.17774 -0.13886,-0.21109 -0.26953,-0.60373 -0.26953,-1.24805 0,-0.64624 0.1297,-1.03693 0.26367,-1.23632 l 0.004,-0.002 0.002,-0.004 c 0.0908,-0.13731 0.10783,-0.1836 0.53125,-0.1836 z"
         id="path9110" />
      <path
         style="color:#000000;-inkscape-font-specification:'Noto Sans Heavy';fill:#ffffff;stroke:none;-inkscape-stroke:none"
         d="m 131.66797,110.81641 v 9.80664 h 3.26367 c 1.48368,0 2.80543,-0.38396 3.78125,-1.2461 l 0.004,-0.002 0.002,-0.002 c 1.00009,-0.89329 1.46484,-2.23807 1.46484,-3.72852 0,-0.95345 -0.19641,-1.84188 -0.64062,-2.59765 -0.42529,-0.73487 -1.06662,-1.32424 -1.83594,-1.69532 h -0.002 c -0.75864,-0.36888 -1.61905,-0.53515 -2.54102,-0.53515 z m 3.84961,3.64257 c 0.19315,0.0399 0.4245,0.0647 0.50586,0.15235 0.0988,0.10638 0.24804,0.40887 0.24804,1.07617 0,0.65429 -0.14608,0.9568 -0.27734,1.09766 -0.0684,0.0734 -0.32469,0.0879 -0.47656,0.13672 z"
         id="path9112" />
      <path
         style="color:#000000;-inkscape-font-specification:'Noto Sans Heavy';fill:#ffffff;stroke:none;-inkscape-stroke:none"
         d="m 139.44727,110.81641 v 5.99218 c 0,1.0728 0.37946,2.1043 1.11914,2.83399 l 0.002,0.002 0.002,0.004 c 0.77989,0.7588 1.87829,1.08008 3.07031,1.08008 0.82729,0 1.59248,-0.13962 2.26172,-0.48438 l 0.006,-0.004 0.006,-0.002 c 0.62868,-0.33338 1.16008,-0.83223 1.4961,-1.44922 0.32633,-0.59405 0.48828,-1.27029 0.48828,-1.95898 v -6.01367 h -1.125 -2.72266 v 5.73828 c 0,0.432 -0.10192,0.57554 -0.082,0.55273 l -0.006,0.006 -0.006,0.006 c 0.035,-0.0414 0.051,0.0156 -0.27344,0.0156 -0.30715,0 -0.34547,-0.0573 -0.33789,-0.0508 0.0652,0.065 -0.0508,-0.0502 -0.0508,-0.51757 v -5.75 z"
         id="path9114" />
      <path
         style="color:#000000;-inkscape-font-specification:'Noto Sans Heavy';fill:#ffffff;stroke:none;-inkscape-stroke:none"
         d="m 151.83398,110.71094 c -0.92519,0 -1.8001,0.20732 -2.53515,0.66797 l -0.002,0.002 -0.004,0.002 c -0.69961,0.44434 -1.25445,1.08815 -1.61133,1.84766 -0.35504,0.75559 -0.51953,1.60258 -0.51953,2.5 0,0.89202 0.13738,1.72182 0.44336,2.46875 l 0.002,0.002 v 0.002 c 0.3175,0.76573 0.85088,1.42327 1.53906,1.86914 l 0.006,0.002 0.004,0.004 c 0.72485,0.4594 1.59411,0.65039 2.5293,0.65039 0.4614,0 0.89416,-0.0368 1.30468,-0.11719 0.4001,-0.0783 0.79879,-0.19676 1.19141,-0.35547 l 0.70313,-0.28516 v -3.69336 l -1.5,0.5293 c -0.32574,0.11497 -0.62107,0.20072 -0.88086,0.25977 -0.23322,0.053 -0.45375,0.0781 -0.66993,0.0781 -0.40985,0 -0.43775,-0.0517 -0.51953,-0.16992 -0.1213,-0.18696 -0.25,-0.57661 -0.25,-1.23438 0,-0.64461 0.13232,-1.02668 0.2793,-1.23437 0.13136,-0.18562 0.15657,-0.21289 0.49023,-0.21289 0.14056,0 0.28828,0.0248 0.46289,0.0859 l 0.004,0.002 h 0.004 c 0.24787,0.0846 0.49389,0.18469 0.73828,0.30078 l 1.08398,0.51563 1.35547,-3.40039 -0.95898,-0.45118 c -0.41155,-0.19318 -0.84349,-0.34247 -1.29102,-0.45117 -0.46035,-0.12075 -0.92875,-0.18359 -1.39844,-0.18359 z"
         id="path9116" />
      <path
         style="color:#000000;-inkscape-font-specification:'Noto Sans Heavy';fill:#ffffff;stroke:none;-inkscape-stroke:none"
         d="m 153.50195,110.81641 v 3.58398 h 2.05274 v 6.22266 h 3.84765 v -1.125 -5.09766 h 2.05469 v -3.58398 z"
         id="path9118" />
    </g>
    <g
       aria-label="NEWEST PRODUCT"
       id="text9020"
       style="font-size:10.5833px;line-height:1.25;font-family:'Noto Sans';-inkscape-font-specification:'Noto Sans';word-spacing:0px;stroke-width:2.25;paint-order:stroke fill markers">
      <path
         d="m 72.03495,119.49765 h -2.031993 l -3.291407,-5.71498 h -0.04233 q 0.02117,0.53975 0.04233,1.07949 0.03175,0.53975 0.05292,1.0795 v 3.55599 h -1.428746 v -7.55648 h 2.021411 l 3.280823,5.66207 h 0.03175 q -0.02117,-0.51858 -0.04233,-1.03716 -0.02117,-0.51859 -0.03175,-1.04775 v -3.57716 h 1.439329 z"
         style="font-weight:900;-inkscape-font-specification:'Noto Sans Heavy';fill:#68a1ff"
         id="path9173" />
      <path
         d="m 78.289677,119.49765 h -4.349736 v -7.55648 h 4.349736 v 1.31233 h -2.751658 v 1.66158 h 2.561159 v 1.31233 h -2.561159 v 1.94733 h 2.751658 z"
         style="font-weight:900;-inkscape-font-specification:'Noto Sans Heavy';fill:#68a1ff"
         id="path9175" />
      <path
         d="m 89.148136,111.94117 -1.92616,7.55648 h -1.820328 l -1.02658,-3.96874 q -0.03175,-0.11641 -0.08467,-0.34925 -0.04233,-0.23283 -0.105833,-0.50799 -0.05292,-0.27517 -0.105833,-0.51859 -0.04233,-0.24341 -0.05292,-0.39158 -0.01058,0.14817 -0.0635,0.39158 -0.04233,0.24342 -0.09525,0.51859 -0.05292,0.26458 -0.105833,0.50799 -0.05292,0.23284 -0.08467,0.35984 l -1.015997,3.95815 h -1.820327 l -1.926161,-7.55648 h 1.576912 l 0.96308,4.12749 q 0.0635,0.24342 0.137583,0.61383 0.07408,0.37042 0.137583,0.74083 0.0635,0.37042 0.09525,0.62442 0.03175,-0.26458 0.09525,-0.62442 0.0635,-0.37041 0.127,-0.70908 0.07408,-0.34925 0.127,-0.53975 l 1.100663,-4.23332 h 1.513412 l 1.100663,4.23332 q 0.05292,0.1905 0.116416,0.53975 0.07408,0.33867 0.137583,0.70908 0.0635,0.37042 0.09525,0.62442 0.03175,-0.26458 0.09525,-0.62442 0.0635,-0.37041 0.137583,-0.73024 0.08467,-0.37042 0.137583,-0.62442 l 0.96308,-4.12749 z"
         style="font-weight:900;-inkscape-font-specification:'Noto Sans Heavy';fill:#68a1ff"
         id="path9177" />
      <path
         d="m 94.45036,119.49765 h -4.349736 v -7.55648 h 4.349736 v 1.31233 h -2.751658 v 1.66158 h 2.561158 v 1.31233 h -2.561158 v 1.94733 h 2.751658 z"
         style="font-weight:900;-inkscape-font-specification:'Noto Sans Heavy';fill:#68a1ff"
         id="path9179" />
      <path
         d="m 100.48283,117.40216 q 0,1.00541 -0.730243,1.60866 -0.719665,0.59266 -2.053161,0.59266 -1.195912,0 -2.137826,-0.45508 v -1.49224 q 0.539748,0.23283 1.111246,0.43391 0.582082,0.1905 1.15358,0.1905 0.592665,0 0.836081,-0.22225 0.253999,-0.23283 0.253999,-0.58208 0,-0.28575 -0.201083,-0.48683 -0.190499,-0.20108 -0.518582,-0.37042 -0.328082,-0.17991 -0.751414,-0.381 -0.264582,-0.127 -0.571498,-0.29633 -0.306916,-0.17991 -0.592665,-0.43391 -0.275166,-0.26459 -0.455082,-0.635 -0.179916,-0.37042 -0.179916,-0.889 0,-1.016 0.687915,-1.57691 0.687914,-0.5715 1.873244,-0.5715 0.592665,0 1.12183,0.13758 0.529165,0.13759 1.121825,0.39159 l -0.518577,1.24883 q -0.518582,-0.21167 -0.931331,-0.32809 -0.412748,-0.11641 -0.846664,-0.11641 -0.455082,0 -0.698498,0.21166 -0.243415,0.21167 -0.243415,0.55033 0,0.40217 0.359832,0.635 0.359832,0.23284 1.068913,0.5715 0.582082,0.27517 0.984247,0.5715 0.412753,0.29633 0.634993,0.6985 0.22225,0.40216 0.22225,0.99483 z"
         style="font-weight:900;-inkscape-font-specification:'Noto Sans Heavy';fill:#68a1ff"
         id="path9181" />
      <path
         d="M 104.76908,119.49765 H 103.171 v -6.22298 h -2.05316 v -1.3335 h 5.7044 v 1.3335 h -2.05316 z"
         style="font-weight:900;-inkscape-font-specification:'Noto Sans Heavy';fill:#68a1ff"
         id="path9183" />
      <path
         d="m 113.15106,111.94117 q 1.46049,0 2.12724,0.635 0.67733,0.62442 0.67733,1.72508 0,0.66675 -0.27516,1.23825 -0.27517,0.57149 -0.92075,0.92074 -0.635,0.34925 -1.73566,0.34925 h -0.68792 v 2.68816 h -1.59807 v -7.55648 z m -0.0847,1.31233 h -0.73025 v 2.24366 h 0.52917 q 0.67733,0 1.06891,-0.26458 0.40217,-0.27517 0.40217,-0.87841 0,-1.10067 -1.27,-1.10067 z"
         style="font-weight:900;-inkscape-font-specification:'Noto Sans Heavy';fill:#68a1ff"
         id="path9185" />
      <path
         d="m 119.58571,111.94117 q 1.54516,0 2.27541,0.56092 0.74083,0.56091 0.74083,1.70391 0,0.51858 -0.20108,0.91016 -0.1905,0.381 -0.51859,0.65617 -0.31749,0.26458 -0.68791,0.43391 l 2.22249,3.29141 h -1.77799 l -1.79916,-2.89982 h -0.85725 v 2.89982 h -1.59808 v -7.55648 z m -0.11642,1.31233 h -0.48683 v 2.04258 h 0.51858 q 0.79375,0 1.13241,-0.26458 0.34925,-0.26458 0.34925,-0.78317 0,-0.53974 -0.37041,-0.76199 -0.37042,-0.23284 -1.143,-0.23284 z"
         style="font-weight:900;-inkscape-font-specification:'Noto Sans Heavy';fill:#68a1ff"
         id="path9187" />
      <path
         d="m 131.22733,115.70883 q 0,1.17475 -0.39158,2.05316 -0.381,0.86783 -1.18533,1.35466 -0.79375,0.48683 -2.02141,0.48683 -1.22766,0 -2.03199,-0.48683 -0.79375,-0.48683 -1.18533,-1.36524 -0.381,-0.87842 -0.381,-2.05316 0,-1.17475 0.381,-2.04258 0.39158,-0.86783 1.18533,-1.34408 0.80433,-0.48683 2.04258,-0.48683 1.22766,0 2.02141,0.48683 0.79374,0.47625 1.17474,1.35466 0.39158,0.86783 0.39158,2.04258 z m -5.5139,0 q 0,1.18533 0.45509,1.87324 0.45508,0.67733 1.46049,0.67733 1.02658,0 1.47108,-0.67733 0.4445,-0.68791 0.4445,-1.87324 0,-1.18533 -0.4445,-1.86266 -0.4445,-0.68792 -1.46049,-0.68792 -1.016,0 -1.47108,0.68792 -0.45509,0.67733 -0.45509,1.86266 z"
         style="font-weight:900;-inkscape-font-specification:'Noto Sans Heavy';fill:#68a1ff"
         id="path9189" />
      <path
         d="m 139.05897,115.64533 q 0,1.91558 -1.09008,2.88924 -1.09008,0.96308 -3.0374,0.96308 h -2.13783 v -7.55648 h 2.37066 q 1.18533,0 2.05316,0.42334 0.87841,0.42333 1.35466,1.24883 0.48683,0.82549 0.48683,2.03199 z m -1.66157,0.0423 q 0,-1.24883 -0.55034,-1.84149 -0.55033,-0.59267 -1.59807,-0.59267 h -0.85725 v 4.92124 h 0.68791 q 2.31775,0 2.31775,-2.48708 z"
         style="font-weight:900;-inkscape-font-specification:'Noto Sans Heavy';fill:#68a1ff"
         id="path9191" />
      <path
         d="m 146.77419,111.94117 v 4.88949 q 0,0.78316 -0.34925,1.41816 -0.33866,0.62442 -1.03716,0.99483 -0.6985,0.35983 -1.74624,0.35983 -1.50283,0 -2.286,-0.76199 -0.78316,-0.77259 -0.78316,-2.032 v -4.86832 h 1.59808 v 4.62491 q 0,0.94191 0.381,1.32291 0.38099,0.37041 1.13241,0.37041 0.78316,0 1.13241,-0.41274 0.35983,-0.41275 0.35983,-1.29117 v -4.61432 z"
         style="font-weight:900;-inkscape-font-specification:'Noto Sans Heavy';fill:#68a1ff"
         id="path9193" />
      <path
         d="m 151.83302,113.16884 q -0.92075,0 -1.40758,0.68791 -0.48683,0.68792 -0.48683,1.88383 0,1.20649 0.4445,1.87324 0.45508,0.65617 1.44991,0.65617 0.45508,0 0.92075,-0.10584 0.46566,-0.10583 1.00541,-0.29633 v 1.34408 q -0.49742,0.20108 -0.98425,0.29633 -0.48683,0.0953 -1.09008,0.0953 -1.17474,0 -1.92616,-0.47625 -0.75141,-0.48683 -1.11124,-1.35466 -0.35984,-0.87841 -0.35984,-2.04257 0,-1.143 0.41275,-2.02141 0.41275,-0.87842 1.19592,-1.37583 0.79374,-0.49742 1.93674,-0.49742 0.56091,0 1.12183,0.14817 0.5715,0.13758 1.09008,0.381 l -0.51858,1.30174 q -0.42333,-0.20108 -0.85725,-0.34925 -0.42333,-0.14816 -0.83608,-0.14816 z"
         style="font-weight:900;-inkscape-font-specification:'Noto Sans Heavy';fill:#68a1ff"
         id="path9195" />
      <path
         d="m 158.27824,119.49765 h -1.59808 v -6.22298 H 154.627 v -1.3335 h 5.7044 v 1.3335 h -2.05316 z"
         style="font-weight:900;-inkscape-font-specification:'Noto Sans Heavy';fill:#68a1ff"
         id="path9197" />
    </g>
  </g>
</svg>
