<?xml version="1.0" encoding="UTF-8" standalone="no"?>
<!-- Created with Inkscape (http://www.inkscape.org/) -->

<svg
   width="57.15062mm"
   height="11.02986mm"
   viewBox="0 0 57.15062 11.02986"
   version="1.1"
   id="svg5"
   sodipodi:docname="menu_about_us.svg"
   inkscape:version="1.1.2 (b8e25be833, 2022-02-05)"
   xmlns:inkscape="http://www.inkscape.org/namespaces/inkscape"
   xmlns:sodipodi="http://sodipodi.sourceforge.net/DTD/sodipodi-0.dtd"
   xmlns="http://www.w3.org/2000/svg"
   xmlns:svg="http://www.w3.org/2000/svg">
  <sodipodi:namedview
     id="namedview7"
     pagecolor="#ffffff"
     bordercolor="#666666"
     borderopacity="1.0"
     inkscape:pageshadow="2"
     inkscape:pageopacity="0.0"
     inkscape:pagecheckerboard="0"
     inkscape:document-units="mm"
     showgrid="false"
     fit-margin-top="0.5"
     fit-margin-bottom="0.5"
     fit-margin-right="0.5"
     fit-margin-left="0.5"
     inkscape:zoom="3.7543719"
     inkscape:cx="254.50329"
     inkscape:cy="39.28753"
     inkscape:window-width="2560"
     inkscape:window-height="1377"
     inkscape:window-x="-8"
     inkscape:window-y="-8"
     inkscape:window-maximized="1"
     inkscape:current-layer="layer1" />
  <defs
     id="defs2" />
  <g
     inkscape:label="Layer 1"
     inkscape:groupmode="layer"
     id="layer1"
     transform="translate(-62.294922,-110.19922)">
    <g
       aria-label="ABOUT US"
       id="text4824"
       style="font-size:10.5833px;font-family:'Noto Sans';-inkscape-font-specification:'Noto Sans';word-spacing:0px;fill:none;stroke:#ffffff;stroke-width:2.25;paint-order:stroke fill markers">
      <path
         style="color:#000000;-inkscape-font-specification:'Noto Sans Heavy';fill:#ffffff;stroke:none;-inkscape-stroke:none"
         d="m 66.253906,110.78516 -3.458984,9.83789 h 4.146484 l 0.548828,-1.79883 h 1.087891 l 0.550781,1.79883 h 0.832031 3.314454 l -3.470704,-9.83789 z"
         id="path21380" />
      <path
         style="color:#000000;-inkscape-font-specification:'Noto Sans Heavy';fill:#ffffff;stroke:none;-inkscape-stroke:none"
         d="m 71.513672,110.81641 v 1.125 8.68164 h 3.951172 c 1.021618,0 1.968291,-0.23891 2.708984,-0.81836 l 0.002,-0.002 c 0.752712,-0.58428 1.185547,-1.53815 1.185547,-2.49609 0,-0.50895 -0.06839,-0.99421 -0.298828,-1.45508 -0.07796,-0.15593 -0.249082,-0.2472 -0.361328,-0.38672 0.299947,-0.48412 0.470703,-1.04137 0.470703,-1.60742 0,-0.98736 -0.502493,-2.01185 -1.373047,-2.48242 -0.783559,-0.42776 -1.70539,-0.55859 -2.810547,-0.55859 z m 6.599609,4.01953 0.03906,0.0234 c -0.0085,-0.005 -0.01883,-0.007 -0.02734,-0.0117 -0.0049,-0.003 -0.0068,-0.009 -0.01172,-0.0117 z m 0.5625,0.73437 -0.0098,0.0156 c 0.0024,-0.003 0.0015,-0.008 0.0039,-0.0117 0.0013,-0.002 0.0045,-0.002 0.0059,-0.004 z m -1.664062,0.0469 0.03125,0.0273 c -0.0067,-0.006 -0.01477,-0.002 -0.02148,-0.008 -0.0056,-0.005 -0.0041,-0.0147 -0.0098,-0.0195 z"
         id="path21382" />
      <path
         style="color:#000000;-inkscape-font-specification:'Noto Sans Heavy';fill:#ffffff;stroke:none;-inkscape-stroke:none"
         d="m 83.019531,110.69922 c -0.971398,0 -1.866836,0.19302 -2.621094,0.64844 -8.03e-4,4.8e-4 -0.0011,10e-4 -0.002,0.002 -0.716546,0.43061 -1.282765,1.07663 -1.628906,1.84375 l -0.002,0.004 -0.0039,0.006 c -0.329109,0.74963 -0.47461,1.5913 -0.47461,2.49609 0,0.90478 0.14581,1.74643 0.472657,2.5 l 0.002,0.006 0.0039,0.004 c 0.344683,0.77321 0.909059,1.42808 1.625,1.86719 l 0.002,0.002 h 0.002 c 0.75313,0.45584 1.648087,0.65039 2.615235,0.65039 0.964932,0 1.855062,-0.19297 2.603515,-0.65039 0.721433,-0.43666 1.290715,-1.088 1.63086,-1.86133 0.335932,-0.75509 0.488281,-1.60101 0.488281,-2.50782 0,-0.90394 -0.152271,-1.74476 -0.488281,-2.49414 -0.337465,-0.77516 -0.900312,-1.43057 -1.619141,-1.86328 -0.748454,-0.45743 -1.640534,-0.65234 -2.605469,-0.65234 z m -2.404297,2.51953 c -6.94e-4,0.001 6.94e-4,0.003 0,0.004 -7.98e-4,10e-4 -0.0031,7.5e-4 -0.0039,0.002 z m 2.404297,1.06445 c 0.423423,0 0.431339,0.0434 0.515625,0.17383 l 0.0039,0.004 0.002,0.002 c 0.131173,0.19988 0.259765,0.5965 0.259765,1.24609 0,0.64767 -0.129602,1.0461 -0.265625,1.25782 -0.07617,0.11658 -0.09327,0.16797 -0.52539,0.16797 -0.413015,0 -0.434449,-0.0479 -0.521485,-0.17774 -0.138858,-0.21109 -0.269531,-0.60373 -0.269531,-1.24805 0,-0.64624 0.129702,-1.03693 0.263672,-1.23632 l 0.0039,-0.002 0.002,-0.004 c 0.09083,-0.13731 0.107828,-0.1836 0.53125,-0.1836 z"
         id="path21384" />
      <path
         style="color:#000000;-inkscape-font-specification:'Noto Sans Heavy';fill:#ffffff;stroke:none;-inkscape-stroke:none"
         d="m 86.996094,110.81641 v 5.99218 c 0,1.0728 0.379463,2.1043 1.11914,2.83399 l 0.002,0.002 0.0039,0.004 c 0.779889,0.7588 1.878289,1.08008 3.070312,1.08008 0.827284,0 1.59248,-0.13962 2.261719,-0.48438 l 0.0059,-0.004 0.0059,-0.002 c 0.62867,-0.33338 1.158124,-0.83223 1.49414,-1.44922 0.326332,-0.59405 0.490235,-1.27029 0.490235,-1.95898 v -6.01367 h -1.125 -2.72461 v 5.73828 c 0,0.432 -0.101917,0.57554 -0.08203,0.55273 l -0.0059,0.006 -0.0059,0.006 c 0.03502,-0.0414 0.05104,0.0156 -0.273437,0.0156 -0.307144,0 -0.345465,-0.0573 -0.337891,-0.0508 0.0652,0.065 -0.05078,-0.0502 -0.05078,-0.51757 v -5.75 z"
         id="path21386" />
      <path
         style="color:#000000;-inkscape-font-specification:'Noto Sans Heavy';fill:#ffffff;stroke:none;-inkscape-stroke:none"
         d="m 94.310547,110.81641 v 3.58398 h 2.052734 v 6.22266 h 3.847659 v -1.125 -5.09766 h 2.05273 v -3.58398 z"
         id="path21388" />
      <path
         style="color:#000000;-inkscape-font-specification:'Noto Sans Heavy';fill:#ffffff;stroke:none;-inkscape-stroke:none"
         d="m 103.87695,110.81641 v 5.99218 c 0,1.0728 0.37751,2.1043 1.11719,2.83399 l 0.004,0.002 0.002,0.004 c 0.77989,0.7588 1.87829,1.08008 3.07031,1.08008 0.82729,0 1.59248,-0.13962 2.26172,-0.48438 l 0.006,-0.004 0.006,-0.002 c 0.62867,-0.33338 1.16007,-0.83223 1.49609,-1.44922 0.32634,-0.59405 0.48829,-1.27029 0.48829,-1.95898 v -6.01367 h -1.125 -2.72266 v 5.73828 c 0,0.43199 -0.10192,0.57554 -0.082,0.55273 l -0.006,0.006 -0.006,0.006 c 0.035,-0.0414 0.051,0.0156 -0.27344,0.0156 -0.30714,0 -0.34546,-0.0573 -0.33789,-0.0508 0.0652,0.065 -0.0508,-0.0502 -0.0508,-0.51757 v -5.75 z"
         id="path21390" />
      <path
         style="color:#000000;-inkscape-font-specification:'Noto Sans Heavy';fill:#ffffff;stroke:none;-inkscape-stroke:none"
         d="m 115.23633,110.71094 c -0.96851,0 -1.88374,0.24547 -2.58594,0.82617 -0.71506,0.58428 -1.09961,1.51696 -1.09961,2.44727 0,0.47582 0.0829,0.94832 0.29297,1.38085 0.17243,0.35501 0.40134,0.67985 0.68555,0.95313 l 0.0176,0.0156 0.0156,0.0137 c 0.0745,0.0662 0.1608,0.11255 0.23828,0.17382 l -1.33594,-0.57617 v 3.90821 l 0.63672,0.30859 c 0.79588,0.38452 1.68698,0.56641 2.62696,0.56641 1.05566,0 2.02459,-0.23774 2.76757,-0.84961 h 0.002 c 0.72342,-0.59762 1.13867,-1.53392 1.13867,-2.47657 0,-0.53573 -0.10195,-1.06618 -0.36328,-1.53906 -0.17294,-0.31294 -0.44486,-0.55066 -0.71094,-0.78906 l 0.008,0.004 1.375,-3.3086 -1.02343,-0.43945 c -0.43894,-0.18812 -0.86431,-0.3369 -1.28125,-0.44531 -0.45177,-0.11746 -0.92214,-0.17383 -1.4043,-0.17383 z m 1.30273,5.48242 0.0215,0.0215 c -0.005,-0.006 -0.0123,-0.008 -0.0176,-0.0137 -0.002,-0.002 -0.002,-0.006 -0.004,-0.008 z"
         id="path21392" />
    </g>
    <g
       aria-label="ABOUT US"
       id="text9020"
       style="font-size:10.5833px;font-family:'Noto Sans';-inkscape-font-specification:'Noto Sans';word-spacing:0px;fill:#f48787;stroke-width:2.25;paint-order:stroke fill markers">
      <path
         d="m 69.960623,119.49765 -0.550331,-1.79916 h -2.751658 l -0.550332,1.79916 h -1.725078 l 2.666992,-7.58823 h 1.95791 l 2.677575,7.58823 z m -0.93133,-3.14324 -0.550332,-1.75683 q -0.05292,-0.17991 -0.137582,-0.45508 -0.08467,-0.27517 -0.169333,-0.56091 -0.08467,-0.28575 -0.137583,-0.49742 -0.05292,0.21167 -0.148166,0.52917 -0.08467,0.30691 -0.169333,0.59266 -0.07408,0.27517 -0.116416,0.39158 l -0.539749,1.75683 z"
         style="-inkscape-font-specification:'Noto Sans Heavy'"
         id="path21423" />
      <path
         d="m 72.638204,111.94117 h 2.349493 q 1.502828,0 2.275409,0.42334 0.783164,0.42333 0.783164,1.49224 0,0.64558 -0.306916,1.09008 -0.296332,0.4445 -0.857247,0.53975 v 0.0529 q 0.370416,0.0847 0.677331,0.27516 0.317499,0.17992 0.497415,0.53975 0.179917,0.35983 0.179917,0.9525 0,1.02658 -0.751415,1.60866 -0.740831,0.58208 -2.02141,0.58208 h -2.825741 z m 1.598078,2.99508 h 0.931331 q 0.698497,0 0.96308,-0.21167 0.275166,-0.22225 0.275166,-0.65616 0,-0.43392 -0.317499,-0.62442 -0.317499,-0.1905 -1.005414,-0.1905 h -0.846664 z m 0,1.26999 v 1.9685 h 1.047747 q 0.719664,0 1.005413,-0.27517 0.28575,-0.28575 0.28575,-0.75141 0,-0.42333 -0.296333,-0.67733 -0.285749,-0.26459 -1.047747,-0.26459 z"
         style="-inkscape-font-specification:'Noto Sans Heavy'"
         id="path21425" />
      <path
         d="m 86.608168,115.70883 q 0,1.17475 -0.391582,2.05316 -0.380998,0.86783 -1.185329,1.35466 -0.793748,0.48683 -2.02141,0.48683 -1.227663,0 -2.031994,-0.48683 -0.793747,-0.48683 -1.18533,-1.36524 -0.380998,-0.87842 -0.380998,-2.05316 0,-1.17475 0.380998,-2.04258 0.391583,-0.86783 1.18533,-1.34408 0.804331,-0.48683 2.042577,-0.48683 1.227663,0 2.02141,0.48683 0.793748,0.47625 1.174746,1.35466 0.391582,0.86783 0.391582,2.04258 z m -5.513899,0 q 0,1.18533 0.455082,1.87324 0.455082,0.67733 1.460496,0.67733 1.02658,0 1.471078,-0.67733 0.444499,-0.68791 0.444499,-1.87324 0,-1.18533 -0.444499,-1.86266 -0.444498,-0.68792 -1.460495,-0.68792 -1.015997,0 -1.471079,0.68792 -0.455082,0.67733 -0.455082,1.86266 z"
         style="-inkscape-font-specification:'Noto Sans Heavy'"
         id="path21427" />
      <path
         d="m 94.323388,111.94117 v 4.88949 q 0,0.78316 -0.349248,1.41816 -0.338666,0.62442 -1.037164,0.99483 -0.698498,0.35983 -1.746244,0.35983 -1.502829,0 -2.285993,-0.76199 -0.783164,-0.77259 -0.783164,-2.032 v -4.86832 h 1.598078 v 4.62491 q 0,0.94191 0.380999,1.32291 0.380999,0.37041 1.132413,0.37041 0.783164,0 1.132413,-0.41274 0.359832,-0.41275 0.359832,-1.29117 v -4.61432 z"
         style="-inkscape-font-specification:'Noto Sans Heavy'"
         id="path21429" />
      <path
         d="m 99.085879,119.49765 h -1.598078 v -6.22298 h -2.05316 v -1.3335 h 5.704399 v 1.3335 h -2.053161 z"
         style="-inkscape-font-specification:'Noto Sans Heavy'"
         id="path21431" />
      <path
         d="m 111.20377,111.94117 v 4.88949 q 0,0.78316 -0.34925,1.41816 -0.33867,0.62442 -1.03717,0.99483 -0.69849,0.35983 -1.74624,0.35983 -1.50283,0 -2.28599,-0.76199 -0.78317,-0.77259 -0.78317,-2.032 v -4.86832 h 1.59808 v 4.62491 q 0,0.94191 0.381,1.32291 0.381,0.37041 1.13241,0.37041 0.78317,0 1.13241,-0.41274 0.35984,-0.41275 0.35984,-1.29117 v -4.61432 z"
         style="-inkscape-font-specification:'Noto Sans Heavy'"
         id="path21433" />
      <path
         d="m 117.51142,117.40216 q 0,1.00541 -0.73025,1.60866 -0.71966,0.59266 -2.05316,0.59266 -1.19591,0 -2.13783,-0.45508 v -1.49224 q 0.53975,0.23283 1.11125,0.43391 0.58208,0.1905 1.15358,0.1905 0.59266,0 0.83608,-0.22225 0.254,-0.23283 0.254,-0.58208 0,-0.28575 -0.20108,-0.48683 -0.1905,-0.20108 -0.51859,-0.37042 -0.32808,-0.17991 -0.75141,-0.381 -0.26458,-0.127 -0.5715,-0.29633 -0.30691,-0.17991 -0.59266,-0.43391 -0.27517,-0.26459 -0.45508,-0.635 -0.17992,-0.37042 -0.17992,-0.889 0,-1.016 0.68791,-1.57691 0.68792,-0.5715 1.87325,-0.5715 0.59266,0 1.12183,0.13758 0.52916,0.13759 1.12183,0.39159 l -0.51858,1.24883 q -0.51859,-0.21167 -0.93133,-0.32809 -0.41275,-0.11641 -0.84667,-0.11641 -0.45508,0 -0.6985,0.21166 -0.24341,0.21167 -0.24341,0.55033 0,0.40217 0.35983,0.635 0.35983,0.23284 1.06891,0.5715 0.58209,0.27517 0.98425,0.5715 0.41275,0.29633 0.635,0.6985 0.22225,0.40216 0.22225,0.99483 z"
         style="-inkscape-font-specification:'Noto Sans Heavy'"
         id="path21435" />
    </g>
  </g>
</svg>
