<?xml version="1.0" encoding="UTF-8" standalone="no"?>
<!-- Created with Inkscape (http://www.inkscape.org/) -->

<svg
   width="48.465118mm"
   height="9.4065304mm"
   viewBox="0 0 48.465118 9.4065304"
   version="1.1"
   id="svg5"
   xmlns="http://www.w3.org/2000/svg"
   xmlns:svg="http://www.w3.org/2000/svg">
  <defs
     id="defs2" />
  <g
     id="layer1"
     transform="translate(-64.726562,-127.78883)">
    <g
       aria-label="PROMOS"
       id="text4810"
       style="font-size:10.5833px;font-family:'Noto Sans';-inkscape-font-specification:'Noto Sans';word-spacing:0px;fill:#93258e;stroke:#ffffff;stroke-width:0.5;paint-order:stroke fill markers">
      <g
         id="path9660">
        <path
           style="color:#000000;-inkscape-font-specification:'Inter Heavy';fill:#ffffff;stroke:none;-inkscape-stroke:none"
           d="m 65.226562,128.39453 v 8.19727 h 0.25 2.339844 v -2.28516 h 0.908203 c 0.617273,0 1.170199,-0.11576 1.648438,-0.35352 0.479533,-0.23704 0.861652,-0.58375 1.128906,-1.02734 0.271193,-0.44625 0.404297,-0.9729 0.404297,-1.56055 0,-0.58251 -0.128186,-1.1083 -0.390625,-1.55859 -0.260804,-0.44748 -0.633006,-0.79934 -1.099609,-1.04492 -0.468968,-0.24683 -1.013035,-0.36719 -1.617188,-0.36719 z m 0.5,0.5 h 3.072266 c 0.538362,0 0.996847,0.10442 1.384766,0.30859 0.390281,0.20541 0.683193,0.48616 0.898437,0.85547 0.213609,0.36651 0.324219,0.79676 0.324219,1.30664 0,0.5141 -0.112788,0.9406 -0.332031,1.30079 v 0.002 c -0.218816,0.36319 -0.521421,0.63702 -0.923828,0.83594 v 0.002 c -0.398691,0.19821 -0.870474,0.30078 -1.425782,0.30078 h -0.908203 v -1.125 h 0.486328 c 0.274452,0 0.523307,-0.0464 0.738282,-0.15234 h 0.002 v -0.002 c 0.214144,-0.10707 0.388848,-0.2683 0.505859,-0.4707 0.119298,-0.2024 0.177734,-0.43837 0.177734,-0.69141 0,-0.25494 -0.05649,-0.49188 -0.177734,-0.6914 l -0.002,-0.002 c -0.117195,-0.19839 -0.292982,-0.35382 -0.505859,-0.45507 -0.214975,-0.10593 -0.46383,-0.1543 -0.738282,-0.1543 h -0.986328 v 2.11914 h -0.826172 v 2.125 h 0.826172 v 1.78516 h -1.589844 z m 2.089844,1.66797 h 0.486328 c 0.21663,0 0.386792,0.0371 0.517578,0.10156 l 0.002,0.002 h 0.002 c 0.135248,0.0637 0.225477,0.1468 0.292968,0.26171 l 0.002,0.002 0.002,0.002 c 0.06767,0.11041 0.105468,0.24909 0.105468,0.43359 0,0.18159 -0.0376,0.32186 -0.107421,0.43946 l -0.002,0.002 c -0.0684,0.11831 -0.160247,0.20512 -0.296875,0.27344 -0.130786,0.0644 -0.300948,0.10156 -0.517578,0.10156 h -0.486328 z m -0.826172,2.11914 h 0.326172 v 1.125 h -0.326172 z"
           id="path9675" />
        <path
           style="color:#000000;-inkscape-font-specification:'Inter Heavy';stroke:none;-inkscape-stroke:none"
           d="m 65.477301,136.34093 v -7.69695 h 3.322314 q 0.856887,0 1.499552,0.33825 0.642664,0.33824 0.9997,0.95084 0.357036,0.6126 0.357036,1.4319 0,0.82682 -0.36831,1.4319 -0.364553,0.60509 -1.026009,0.93206 -0.657698,0.32697 -1.537134,0.32697 h -1.984369 v -1.62358 h 1.563442 q 0.368311,0 0.627632,-0.12778 0.263079,-0.13154 0.402135,-0.37207 0.142815,-0.24053 0.142815,-0.5675 0,-0.33073 -0.142815,-0.56374 -0.139056,-0.23677 -0.402135,-0.36079 -0.259321,-0.12778 -0.627632,-0.12778 h -0.736622 v 6.02827 z"
           id="path9677" />
      </g>
      <g
         id="path9662">
        <path
           style="color:#000000;-inkscape-font-specification:'Inter Heavy';fill:#ffffff;stroke:none;-inkscape-stroke:none"
           d="m 72.171875,128.39453 v 8.19727 h 0.25 2.339844 v -2.54102 h 0.324218 l 1.351563,2.54102 h 2.839844 L 77.59375,133.5 c 0.322391,-0.19829 0.64799,-0.39707 0.849609,-0.71094 0.275056,-0.42455 0.408203,-0.94166 0.408203,-1.52929 0,-0.58252 -0.1296,-1.10012 -0.394531,-1.53516 -0.262437,-0.43095 -0.636082,-0.76726 -1.103515,-0.99414 -0.46771,-0.22702 -1.007782,-0.33594 -1.609375,-0.33594 z m 0.5,0.5 h 3.072266 c 0.54092,0 1.001449,0.0982 1.390625,0.28711 0.389452,0.18904 0.682874,0.45197 0.896484,0.80273 0.211117,0.34668 0.320312,0.76551 0.320312,1.2754 0,0.51409 -0.112768,0.92598 -0.328125,1.25781 v 0.002 c -0.156879,0.24422 -0.412925,0.39487 -0.664062,0.55274 l -0.279297,-0.51368 h -0.148437 -2.169922 v -0.13086 h 0.486328 c 0.265948,0 0.50337,-0.0333 0.710937,-0.10546 h 0.002 c 0.215012,-0.0768 0.397415,-0.20878 0.521485,-0.38868 0.131572,-0.18697 0.189453,-0.41945 0.189453,-0.67382 0,-0.25492 -0.05658,-0.48729 -0.185547,-0.67579 -2.87e-4,-4.3e-4 -0.0017,4.4e-4 -0.002,0 -0.122067,-0.1841 -0.303082,-0.32178 -0.517578,-0.40234 -5.56e-4,-2.2e-4 -0.0014,2.2e-4 -0.002,0 -0.209883,-0.0818 -0.449009,-0.11914 -0.716797,-0.11914 h -0.986328 v 1.86523 H 73.4355 v 2.12305 h 0.826172 v 2.04102 h -1.589844 z m 2.089844,1.66797 h 0.486328 c 0.222581,0 0.40163,0.031 0.537109,0.084 l 0.002,0.002 h 0.002 c 0.133943,0.0497 0.21871,0.11628 0.28125,0.21093 l 0.002,0.002 v 0.004 c 0.05976,0.0865 0.09961,0.21003 0.09961,0.39454 0,0.18158 -0.03881,0.30309 -0.09766,0.38671 h -0.002 v 0.002 c -0.06084,0.0888 -0.144349,0.1531 -0.277344,0.20117 -0.138194,0.0481 -0.321744,0.0781 -0.546875,0.0781 h -0.486328 z m -0.826172,1.86523 h 0.326172 v 1.12305 h -0.326172 z m 1.1875,0.63086 h 1.660156 l 0.140625,0.25586 c -0.367031,0.13531 -0.765687,0.23633 -1.253906,0.23633 h -0.285156 z m -0.361328,0.38477 0.05664,0.10742 h -0.05664 z m 2.408203,0.32226 1.265625,2.32618 h -1.699219 l -1.085937,-2.04102 h 0.01953 c 0.562484,0 1.052702,-0.10971 1.500001,-0.28516 z"
           id="path9681" />
        <path
           style="color:#000000;-inkscape-font-specification:'Inter Heavy';stroke:none;-inkscape-stroke:none"
           d="m 72.422592,136.34093 v -7.69695 h 3.322314 q 0.856886,0 1.499551,0.31194 0.642665,0.31194 0.999701,0.89823 0.357036,0.58629 0.357036,1.40559 0,0.82682 -0.368311,1.39432 -0.364552,0.5675 -1.026009,0.85689 -0.657698,0.28938 -1.537134,0.28938 h -1.984368 v -1.62357 h 1.563442 q 0.36831,0 0.627631,-0.0902 0.26308,-0.094 0.402136,-0.2969 0.142814,-0.20295 0.142814,-0.52992 0,-0.33073 -0.142814,-0.53743 -0.139056,-0.21047 -0.402136,-0.30818 -0.259321,-0.10147 -0.627631,-0.10147 h -0.736622 v 6.02827 z m 4.509928,-3.53278 1.924237,3.53278 h -2.269998 l -1.879137,-3.53278 z"
           id="path9683" />
      </g>
      <g
         id="path9664">
        <path
           style="color:#000000;-inkscape-font-specification:'Inter Heavy';fill:#ffffff;stroke:none;-inkscape-stroke:none"
           d="m 83.201172,128.28906 c -0.737556,0 -1.41541,0.16093 -2.019531,0.48438 -0.605485,0.32292 -1.091299,0.80612 -1.445313,1.43164 -0.356335,0.63168 -0.527344,1.39806 -0.527344,2.28711 0,0.88423 0.171404,1.64952 0.527344,2.2832 v 0.002 c 0.353937,0.62272 0.838886,1.10584 1.443359,1.4336 h 0.002 c 0.604121,0.32344 1.281975,0.48437 2.019531,0.48437 0.732503,0 1.407973,-0.15794 2.011719,-0.47851 v -0.002 c 0.607374,-0.32519 1.095073,-0.80661 1.449218,-1.42968 v -0.002 c 0.358839,-0.63404 0.533204,-1.40172 0.533203,-2.29101 10e-7,-0.8893 -0.174114,-1.65534 -0.533203,-2.28711 -0.354145,-0.62575 -0.841211,-1.10881 -1.449218,-1.43164 -0.603851,-0.3233 -1.278916,-0.48438 -2.011719,-0.48438 z m 0,0.5 c 0.660262,0 1.246749,0.14275 1.77539,0.42578 h 0.002 c 0.524485,0.27849 0.935726,0.68448 1.248046,1.23633 0.307379,0.5408 0.468751,1.21654 0.46875,2.04102 10e-7,0.82448 -0.161121,1.50136 -0.46875,2.04492 -0.31183,0.54863 -0.724106,0.95522 -1.248046,1.23633 -0.528747,0.28075 -1.116782,0.42187 -1.777344,0.42187 -0.665532,0 -1.254832,-0.14094 -1.783203,-0.42383 -0.522599,-0.28336 -0.933654,-0.69102 -1.246094,-1.24023 v -0.002 c -0.30497,-0.54365 -0.462891,-1.21833 -0.462891,-2.03711 0,-0.82472 0.157771,-1.50013 0.462891,-2.04102 0.312453,-0.55208 0.724097,-0.95793 1.246094,-1.23633 0.528371,-0.28288 1.117671,-0.42578 1.783203,-0.42578 z m 0,1.31836 c -0.385617,0 -0.732971,0.0952 -1.017578,0.29297 -0.281453,0.19462 -0.491967,0.48297 -0.628907,0.83789 -0.134676,0.35353 -0.197265,0.77116 -0.197265,1.25391 0,0.48276 0.06288,0.90226 0.197265,1.25781 v 0.002 c 0.136999,0.35228 0.346924,0.63932 0.626954,0.83594 h 0.002 v 0.002 c 0.284583,0.19471 0.632567,0.28711 1.017578,0.28711 0.385011,0 0.731081,-0.0937 1.013672,-0.28906 h 0.002 c 0.282618,-0.19635 0.492299,-0.48326 0.626953,-0.83594 v -0.002 c 0.136936,-0.35568 0.201172,-0.77533 0.201172,-1.25781 0,-0.48247 -0.06394,-0.90024 -0.201172,-1.25391 v -0.002 c -0.134589,-0.3553 -0.344877,-0.6416 -0.628906,-0.83594 -0.282333,-0.19771 -0.62874,-0.29297 -1.013672,-0.29297 z m 0,0.5 c 0.305905,0 0.540085,0.0708 0.728515,0.20313 h 0.002 v 0.002 c 0.191594,0.13109 0.339345,0.32314 0.445312,0.60352 v 0.002 c 0.107871,0.27738 0.167969,0.6354 0.167969,1.07422 0,0.43883 -0.05979,0.79775 -0.167969,1.07812 v 0.002 c -0.105901,0.27799 -0.254259,0.47137 -0.447266,0.60546 -0.188205,0.12968 -0.422767,0.19922 -0.728515,0.19922 -0.306511,0 -0.542911,-0.0702 -0.734375,-0.20117 -0.189612,-0.13378 -0.337225,-0.32635 -0.445313,-0.60351 v -0.002 c -0.10579,-0.28063 -0.164062,-0.63962 -0.164062,-1.07812 0,-0.4385 0.05857,-0.79657 0.164062,-1.07422 v -0.002 c 0.108539,-0.28053 0.258077,-0.47465 0.447266,-0.60547 0.19144,-0.13301 0.426517,-0.20313 0.732422,-0.20313 z"
           id="path9687" />
        <path
           style="color:#000000;-inkscape-font-specification:'Inter Heavy';stroke:none;-inkscape-stroke:none"
           d="m 86.944566,132.49245 q 0,1.28533 -0.499851,2.16853 -0.49985,0.87943 -1.34922,1.33419 -0.84937,0.45099 -1.89417,0.45099 -1.052317,0 -1.901687,-0.45475 -0.845612,-0.45851 -1.345462,-1.33795 -0.496092,-0.88319 -0.496092,-2.16101 0,-1.28533 0.496092,-2.16476 0.49985,-0.8832 1.345462,-1.33419 0.84937,-0.45475 1.901687,-0.45475 1.0448,0 1.89417,0.45475 0.84937,0.45099 1.34922,1.33419 0.499851,0.87943 0.499851,2.16476 z m -2.149733,0 q 0,-0.69152 -0.184156,-1.16506 -0.180397,-0.4773 -0.537433,-0.72159 -0.353277,-0.24805 -0.871919,-0.24805 -0.518642,0 -0.875678,0.24805 -0.353278,0.24429 -0.537433,0.72159 -0.180397,0.47354 -0.180397,1.16506 0,0.69153 0.180397,1.16883 0.184155,0.47354 0.537433,0.72159 0.357036,0.24428 0.875678,0.24428 0.518642,0 0.871919,-0.24428 0.357036,-0.24805 0.537433,-0.72159 0.184156,-0.4773 0.184156,-1.16883 z"
           id="path9689" />
      </g>
      <g
         id="path9666">
        <path
           style="color:#000000;-inkscape-font-specification:'Inter Heavy';fill:#ffffff;stroke:none;-inkscape-stroke:none"
           d="m 87.65625,128.39453 v 0.25 7.94727 h 2.544922 v -3.54883 l 1.353515,3.48828 h 1.574219 l 1.353516,-3.46875 v 3.5293 h 2.542969 v -8.19727 h -3.017579 l -1.666015,4.05859 -1.666016,-4.05859 z m 0.5,0.5 h 2.183594 l 1.789062,4.35938 h 0.425781 l 1.789063,-4.35938 h 2.181641 v 7.19727 h -1.542969 v -4.45118 H 94.5 l -1.712891,4.39063 h -0.890625 l -1.714843,-4.41992 h -0.480469 v 4.48047 H 88.15625 Z"
           id="path9693" />
        <path
           style="color:#000000;-inkscape-font-specification:'Inter Heavy';stroke:none;-inkscape-stroke:none"
           d="m 87.906679,128.64398 h 2.600726 l 1.788939,4.3596 h 0.0902 l 1.788939,-4.3596 h 2.600725 v 7.69695 h -2.044501 v -4.4498 h -0.06013 l -1.713773,4.38966 H 91.72509 l -1.713773,-4.41973 h -0.06013 v 4.47987 h -2.044502 z"
           id="path9695" />
      </g>
      <g
         id="path9668">
        <path
           style="color:#000000;-inkscape-font-specification:'Inter Heavy';fill:#ffffff;stroke:none;-inkscape-stroke:none"
           d="m 101.48242,128.28906 c -0.73755,0 -1.41736,0.16093 -2.021483,0.48438 -0.604908,0.32292 -1.089587,0.80655 -1.443359,1.43164 -0.356335,0.63168 -0.529297,1.39806 -0.529297,2.28711 0,0.88423 0.171404,1.64952 0.527344,2.2832 l 0.002,0.002 c 0.353937,0.62272 0.838886,1.10584 1.443359,1.4336 0.604126,0.32344 1.283936,0.48437 2.021486,0.48437 0.73251,0 1.40602,-0.15794 2.00977,-0.47851 l 0.002,-0.002 c 0.60737,-0.32519 1.09312,-0.80661 1.44727,-1.42968 h 0.002 v -0.002 c 0.35884,-0.63404 0.53125,-1.40172 0.53125,-2.29101 0,-0.8893 -0.17412,-1.65534 -0.5332,-2.28711 -0.35385,-0.6247 -0.84026,-1.10903 -1.44727,-1.43164 -0.60385,-0.3233 -1.27891,-0.48438 -2.01172,-0.48438 z m 0,0.5 c 0.66026,0 1.24675,0.14275 1.77539,0.42578 0.52449,0.27849 0.93768,0.68448 1.25,1.23633 0.30738,0.5408 0.4668,1.21654 0.4668,2.04102 0,0.82448 -0.15917,1.50136 -0.4668,2.04492 -0.31232,0.54949 -0.72488,0.95713 -1.25,1.23828 v -0.002 c -0.52874,0.28075 -1.11483,0.42187 -1.77539,0.42187 -0.66484,0 -1.25525,-0.14152 -1.783201,-0.42383 h -0.002 c -0.521603,-0.28311 -0.932037,-0.6921 -1.244141,-1.24023 -0.305516,-0.54391 -0.464844,-1.21954 -0.464844,-2.03906 0,-0.82472 0.159724,-1.50013 0.464844,-2.04102 0.312361,-0.55141 0.722556,-0.95815 1.244141,-1.23633 0.528371,-0.28288 1.119621,-0.42578 1.785151,-0.42578 z m 0,1.31836 c -0.38561,0 -0.73493,0.0952 -1.01953,0.29297 -0.28145,0.19462 -0.490009,0.48297 -0.626953,0.83789 h -0.002 c -0.134674,0.35353 -0.195312,0.77116 -0.195312,1.25391 0,0.48276 0.06093,0.90226 0.195312,1.25781 h 0.002 v 0.002 c 0.137002,0.35228 0.346923,0.63932 0.626953,0.83594 l 0.002,0.002 c 0.28458,0.19471 0.63257,0.28711 1.01758,0.28711 0.38502,0 0.73109,-0.0936 1.01367,-0.28906 0.28263,-0.19635 0.49425,-0.48326 0.62891,-0.83594 v -0.002 c 0.13693,-0.35568 0.19922,-0.77533 0.19922,-1.25781 0,-0.48321 -0.0635,-0.90186 -0.20117,-1.25586 -0.13461,-0.35475 -0.3452,-0.64182 -0.62891,-0.83594 -0.28206,-0.19699 -0.62747,-0.29297 -1.01172,-0.29297 z m 0,0.5 c 0.30591,0 0.53814,0.0708 0.72656,0.20313 h 0.002 l 0.002,0.002 c 0.1916,0.13109 0.33739,0.32314 0.44336,0.60352 h 0.002 v 0.002 c 0.10787,0.27738 0.16602,0.6354 0.16602,1.07422 0,0.43883 -0.0579,0.7997 -0.16602,1.08008 -0.1059,0.27799 -0.25425,0.47137 -0.44726,0.60546 -0.18844,0.13031 -0.422,0.19922 -0.72852,0.19922 -0.30479,0 -0.54153,-0.0696 -0.73242,-0.19922 -4e-4,-2.7e-4 4e-4,-0.002 0,-0.002 -0.18975,-0.1336 -0.33905,-0.32661 -0.44727,-0.60351 -0.10614,-0.28085 -0.16406,-0.6408 -0.16406,-1.08008 0,-0.43928 0.0582,-0.79831 0.16406,-1.07617 0.1085,-0.27983 0.25642,-0.47485 0.44532,-0.60547 0.19143,-0.133 0.42847,-0.20313 0.73437,-0.20313 z"
           id="path9699" />
        <path
           style="color:#000000;-inkscape-font-specification:'Inter Heavy';stroke:none;-inkscape-stroke:none"
           d="m 105.2248,132.49245 q 0,1.28533 -0.49985,2.16853 -0.49985,0.87943 -1.34922,1.33419 -0.84937,0.45099 -1.89417,0.45099 -1.05231,0 -1.901683,-0.45475 -0.845612,-0.45851 -1.345462,-1.33795 -0.496092,-0.88319 -0.496092,-2.16101 0,-1.28533 0.496092,-2.16476 0.49985,-0.8832 1.345462,-1.33419 0.849373,-0.45475 1.901683,-0.45475 1.0448,0 1.89417,0.45475 0.84937,0.45099 1.34922,1.33419 0.49985,0.87943 0.49985,2.16476 z m -2.14973,0 q 0,-0.69152 -0.18415,-1.16506 -0.1804,-0.4773 -0.53744,-0.72159 -0.35327,-0.24805 -0.87192,-0.24805 -0.51864,0 -0.87567,0.24805 -0.35328,0.24429 -0.53744,0.72159 -0.180394,0.47354 -0.180394,1.16506 0,0.69153 0.180394,1.16883 0.18416,0.47354 0.53744,0.72159 0.35703,0.24428 0.87567,0.24428 0.51865,0 0.87192,-0.24428 0.35704,-0.24805 0.53744,-0.72159 0.18415,-0.4773 0.18415,-1.16883 z"
           id="path9701" />
      </g>
      <g
         id="path9670">
        <path
           style="color:#000000;-inkscape-font-specification:'Inter Heavy';fill:#ffffff;stroke:none;-inkscape-stroke:none"
           d="m 109.29883,128.28906 c -0.63696,0 -1.21349,0.10689 -1.7207,0.32813 -0.50294,0.22054 -0.90965,0.53637 -1.20313,0.94336 -0.2943,0.40896 -0.44041,0.89587 -0.4375,1.42968 -0.002,0.65482 0.22206,1.2138 0.66602,1.60938 v 0.002 c 0.43386,0.38136 1.01338,0.6426 1.72461,0.79688 l 0.76757,0.16601 v -0.002 c 0.27588,0.0605 0.48834,0.12692 0.63282,0.18945 h 0.002 0.002 c 0.14454,0.0604 0.2282,0.12636 0.26172,0.16797 l 0.004,0.002 0.002,0.004 c 0.0389,0.0455 0.0525,0.0836 0.0547,0.14649 -0.002,0.0711 -0.0198,0.12156 -0.0645,0.17773 -0.043,0.0541 -0.11384,0.1069 -0.23242,0.15039 -0.11282,0.0414 -0.27222,0.0664 -0.47461,0.0664 -0.23964,0 -0.43314,-0.0372 -0.58789,-0.10352 -0.15169,-0.0659 -0.25589,-0.15248 -0.33398,-0.27148 -0.0769,-0.11722 -0.126,-0.26925 -0.13672,-0.47071 l -0.0117,-0.23632 h -2.47266 l 0.002,0.25195 c 0.003,0.67905 0.14927,1.25973 0.45508,1.72265 0.30391,0.45312 0.73684,0.79372 1.27343,1.00782 0.53424,0.21209 1.15012,0.31445 1.84375,0.31445 0.67483,0 1.26296,-0.0954 1.76368,-0.29297 0.50243,-0.19719 0.90432,-0.49301 1.18554,-0.88672 0.28318,-0.3967 0.42485,-0.88265 0.42774,-1.42968 v -0.002 -0.002 c -0.003,-0.3189 -0.0564,-0.61888 -0.16016,-0.89649 -0.10251,-0.28076 -0.2634,-0.53515 -0.47852,-0.75585 -0.217,-0.22546 -0.49005,-0.41409 -0.81445,-0.57227 -0.32662,-0.15926 -0.70913,-0.28351 -1.15039,-0.37695 l -0.63281,-0.13672 c -0.17421,-0.0358 -0.3213,-0.0748 -0.43945,-0.11719 -0.11864,-0.0425 -0.20975,-0.0891 -0.27149,-0.13086 -0.0556,-0.0402 -0.0877,-0.0766 -0.10547,-0.10742 -0.0162,-0.0331 -0.0246,-0.0679 -0.0215,-0.12109 v -0.004 -0.006 c 0.001,-0.0661 0.0153,-0.10849 0.0508,-0.15625 0.0293,-0.0395 0.0845,-0.0829 0.1875,-0.12109 l 0.002,-0.002 c 0.0972,-0.0371 0.24628,-0.0625 0.44141,-0.0625 0.30368,0 0.49251,0.0664 0.59375,0.15235 h 0.002 c 0.11543,0.0965 0.17547,0.2151 0.19141,0.41406 l 0.0195,0.23047 h 0.23047 2.25 v -0.25 c -0.003,-0.54435 -0.14186,-1.03868 -0.41797,-1.45703 -0.27235,-0.41864 -0.66306,-0.74439 -1.15234,-0.96875 -0.49283,-0.226 -1.06755,-0.33399 -1.7168,-0.33399 z m 0,0.5 c 0.59347,0 1.09364,0.0991 1.50781,0.28906 0.41682,0.19114 0.7247,0.45019 0.94336,0.78711 v 0.002 h 0.002 c 0.17319,0.26241 0.22513,0.59197 0.26368,0.93164 h -1.54297 c -0.0595,-0.19367 -0.10459,-0.39926 -0.25782,-0.52735 -0.22936,-0.19387 -0.54393,-0.26953 -0.91601,-0.26953 -0.23582,0 -0.44078,0.0276 -0.61914,0.0957 -0.16689,0.0621 -0.31147,0.15559 -0.41211,0.29101 -0.0939,0.12646 -0.14403,0.28351 -0.14844,0.44141 -0.006,0.12848 0.0165,0.25861 0.0742,0.37304 l 0.002,0.004 0.002,0.004 c 0.0622,0.11274 0.15283,0.20636 0.26171,0.2832 l 0.002,0.002 h 0.002 c 0.10864,0.0735 0.23586,0.1348 0.38281,0.1875 0.14691,0.0527 0.31512,0.0974 0.50586,0.13672 l 0.63086,0.13477 h 0.002 c 0.41062,0.087 0.75544,0.2015 1.03515,0.33789 0.28194,0.13747 0.50498,0.29528 0.67383,0.4707 0.17008,0.1745 0.2912,0.36576 0.36914,0.58008 v 0.002 h 0.002 c 0.0817,0.21849 0.12467,0.45917 0.12696,0.72657 -0.003,0.46416 -0.11673,0.83431 -0.33399,1.13867 -0.21989,0.30784 -0.53327,0.54428 -0.96289,0.71289 -0.42632,0.16823 -0.95204,0.25781 -1.58008,0.25781 -0.64431,0 -1.1972,-0.0955 -1.66015,-0.2793 -0.45559,-0.18177 -0.79372,-0.45161 -1.04102,-0.82031 -0.19837,-0.30087 -0.26889,-0.73155 -0.30664,-1.19726 h 1.49219 c 0.0346,0.16839 0.0551,0.34413 0.14453,0.48046 0.13236,0.20171 0.32359,0.35754 0.55273,0.45704 h 0.002 c 0.2311,0.099 0.49362,0.14453 0.78515,0.14453 0.24359,0 0.45864,-0.0288 0.64649,-0.0977 0.18208,-0.0668 0.33886,-0.16732 0.45117,-0.30859 0.10924,-0.13743 0.17227,-0.30877 0.17578,-0.48438 v -0.006 -0.006 c -0.004,-0.16877 -0.0685,-0.33449 -0.17773,-0.46289 -0.11094,-0.13528 -0.26367,-0.22994 -0.45118,-0.30859 -0.19127,-0.0828 -0.43119,-0.15397 -0.72656,-0.21875 l -0.76562,-0.16406 h -0.002 c -0.65003,-0.14127 -1.14563,-0.37427 -1.49804,-0.6836 -0.33731,-0.30054 -0.50033,-0.68937 -0.49805,-1.23633 v -0.002 c -0.002,-0.44333 0.11157,-0.81211 0.34375,-1.13476 0.23769,-0.32963 0.56393,-0.58698 0.99805,-0.77735 0.43486,-0.18967 0.93881,-0.28711 1.51953,-0.28711 z"
           id="path9705" />
        <path
           style="color:#000000;-inkscape-font-specification:'Inter Heavy';stroke:none;-inkscape-stroke:none"
           d="m 110.33605,131.04928 q -0.0301,-0.37583 -0.28187,-0.58629 -0.24804,-0.21047 -0.75541,-0.21047 -0.32321,0 -0.52992,0.0789 -0.20294,0.0752 -0.30066,0.2067 -0.0977,0.13154 -0.10147,0.30066 -0.008,0.13906 0.0489,0.25181 0.0601,0.10899 0.18791,0.19919 0.12778,0.0864 0.32697,0.15784 0.19919,0.0714 0.47354,0.12779 l 0.63139,0.13529 q 0.63891,0.1353 1.09366,0.35704 0.45475,0.22174 0.74414,0.5224 0.28938,0.2969 0.42468,0.66897 0.13906,0.37207 0.14282,0.81179 -0.004,0.75917 -0.37959,1.28533 -0.37583,0.52616 -1.07487,0.80051 -0.69528,0.27436 -1.67243,0.27436 -1.00346,0 -1.75135,-0.29691 -0.74414,-0.2969 -1.15755,-0.91326 -0.40965,-0.62011 -0.41341,-1.58599 h 1.98437 q 0.0188,0.35328 0.17664,0.59381 0.15784,0.24053 0.44347,0.36455 0.28939,0.12402 0.68777,0.12402 0.33448,0 0.55998,-0.0827 0.2255,-0.0827 0.342,-0.22925 0.11651,-0.14658 0.12027,-0.33449 -0.004,-0.17664 -0.11651,-0.30818 -0.10899,-0.1353 -0.36079,-0.24053 -0.25181,-0.10899 -0.68025,-0.20295 l -0.76669,-0.16536 q -1.02225,-0.22174 -1.6123,-0.74038 -0.58629,-0.5224 -0.58253,-1.42439 -0.004,-0.73286 0.39086,-1.28157 0.39838,-0.55246 1.10117,-0.86064 0.70656,-0.30818 1.61982,-0.30818 0.93205,0 1.6123,0.31194 0.68025,0.31193 1.04856,0.87943 0.37207,0.56374 0.37582,1.31916 z"
           id="path9707" />
      </g>
    </g>
  </g>
</svg>
