<?xml version="1.0" encoding="UTF-8" standalone="no"?>
<!-- Created with Inkscape (http://www.inkscape.org/) -->

<svg
   width="51.498093mm"
   height="13.703091mm"
   viewBox="0 0 51.498093 13.703091"
   version="1.1"
   id="svg5"
   xmlns="http://www.w3.org/2000/svg"
   xmlns:svg="http://www.w3.org/2000/svg">
  <defs
     id="defs2" />
  <g
     id="layer1"
     transform="translate(-54.77535,-90.351562)">
    <g
       aria-label="Category"
       id="text1178"
       style="font-size:10.5833px;font-family:'Noto Sans';-inkscape-font-specification:'Noto Sans';word-spacing:0px;fill:#ffffff;stroke:#ffffff;stroke-width:2.5;paint-order:stroke fill markers">
      <g
         id="path29157">
        <path
           style="color:#000000;-inkscape-font-specification:'Noto Sans Heavy';stroke:none;-inkscape-stroke:none"
           d="m 60.070312,90.851562 c -0.943324,10e-7 -1.841676,0.212529 -2.599609,0.6875 l -0.0039,0.0039 -0.002,0.002 c -0.71932,0.456865 -1.292248,1.11961 -1.658203,1.898437 -0.363912,0.774478 -0.53125,1.640275 -0.53125,2.552735 0,0.904896 0.13981,1.752723 0.453125,2.517578 l 0.002,0.002 v 0.002 c 0.326123,0.786531 0.876951,1.466438 1.585937,1.925778 l 0.0059,0.002 0.0059,0.004 c 0.749726,0.47518 1.641668,0.66992 2.59375,0.66992 0.467955,0 0.910043,-0.035 1.330078,-0.11719 0.408496,-0.0799 0.813491,-0.20377 1.212891,-0.36523 l 0.783203,-0.31445 v -3.955079 l -1.666016,0.587891 c -0.32195,0.11363 -0.613021,0.198094 -0.867187,0.255859 -0.224632,0.05105 -0.438043,0.07617 -0.644532,0.07617 -0.379599,0 -0.356742,-0.03465 -0.412109,-0.117187 -0.102548,-0.159111 -0.232422,-0.521027 -0.232422,-1.16211 0,-0.627658 0.130567,-0.982306 0.257813,-1.162109 0.109899,-0.155292 0.08419,-0.160156 0.386718,-0.160156 0.125593,0 0.261166,0.02119 0.423829,0.07813 l 0.0039,0.002 h 0.0059 c 0.243271,0.08307 0.48442,0.182785 0.72461,0.296875 L 62.431641,95.632812 63.880859,92 62.814453,91.5 c -0.419885,-0.197089 -0.860282,-0.350294 -1.316406,-0.460938 -0.469109,-0.122726 -0.948327,-0.1875 -1.427735,-0.1875 z"
           id="path29176" />
        <path
           style="color:#000000;-inkscape-font-specification:'Noto Sans Heavy';stroke:none;-inkscape-stroke:none"
           d="m 60.070984,93.435278 q -0.920747,0 -1.407579,0.687915 -0.486832,0.687914 -0.486832,1.883827 0,1.206496 0.444499,1.873244 0.455082,0.656165 1.449912,0.656165 0.455082,0 0.920747,-0.105833 0.465665,-0.105833 1.005413,-0.296333 v 1.344079 q -0.497415,0.201083 -0.984247,0.296333 -0.486831,0.09525 -1.090079,0.09525 -1.174747,0 -1.926161,-0.476248 -0.751414,-0.486832 -1.111246,-1.354662 -0.359833,-0.878414 -0.359833,-2.042577 0,-1.142997 0.412749,-2.02141 0.412749,-0.878414 1.195913,-1.375829 0.793747,-0.497415 1.936744,-0.497415 0.560915,0 1.121829,0.148166 0.571499,0.137583 1.09008,0.380999 l -0.518581,1.301745 q -0.423332,-0.201082 -0.857248,-0.349248 -0.423332,-0.148167 -0.83608,-0.148168 z"
           id="path29178" />
      </g>
      <g
         id="path29159">
        <path
           style="color:#000000;-inkscape-font-specification:'Noto Sans Heavy';stroke:none;-inkscape-stroke:none"
           d="m 65.849609,92.619141 c -0.504484,0 -1.002859,0.06212 -1.484375,0.185546 -0.461285,0.111493 -0.895277,0.265235 -1.296875,0.470704 l -1.089843,0.55664 0.949218,1.955078 c -0.675457,0.537153 -1.080078,1.406645 -1.080078,2.251953 0,0.852661 0.267584,1.741705 0.935547,2.326168 0.575002,0.50313 1.348737,0.75391 2.103516,0.75391 0.475967,0 0.911996,-0.12004 1.345703,-0.27539 l 0.06641,0.16992 h 3.203125 v -5.101561 c 0,-0.938997 -0.347792,-1.907928 -1.089844,-2.503906 -0.706733,-0.579618 -1.609244,-0.789062 -2.5625,-0.789062 z m -1.236328,1.339843 c -0.008,0.0023 -0.01541,0.0074 -0.02344,0.0098 -0.0017,5.1e-4 -0.0041,-5.12e-4 -0.0059,0 z m 2.648438,0.34375 0.02148,0.01758 c -0.0051,-0.0046 -0.01249,-0.0013 -0.01758,-0.0059 -0.0035,-0.0031 -3.97e-4,-0.0087 -0.0039,-0.01172 z"
           id="path29182" />
        <path
           style="color:#000000;-inkscape-font-specification:'Noto Sans Heavy';stroke:none;-inkscape-stroke:none"
           d="m 65.849456,93.869194 q 1.164163,0 1.777995,0.507998 0.624414,0.497415 0.624414,1.534578 v 3.852321 h -1.100663 l -0.306916,-0.783164 h -0.04233 q -0.370415,0.465666 -0.783164,0.677331 -0.412749,0.211666 -1.132413,0.211666 -0.772581,0 -1.280579,-0.444498 -0.507999,-0.444499 -0.507999,-1.386412 0,-0.920747 0.645582,-1.354663 0.645581,-0.433915 1.936744,-0.486831 l 1.005413,-0.03175 v -0.254 q 0,-0.455081 -0.243416,-0.666747 -0.232833,-0.211666 -0.656164,-0.211666 -0.423332,0 -0.825498,0.126999 -0.402165,0.116416 -0.804331,0.296333 L 63.63755,94.387775 q 0.455082,-0.232832 1.02658,-0.370415 0.571498,-0.148166 1.185329,-0.148166 z m 0.836081,3.217323 -0.613831,0.02117 q -0.761998,0.02117 -1.05833,0.275166 -0.296333,0.253999 -0.296333,0.666748 0,0.359832 0.211666,0.518582 0.211666,0.148166 0.550332,0.148166 0.507998,0 0.857247,-0.296333 0.349249,-0.306915 0.349249,-0.857247 z"
           id="path29184" />
      </g>
      <g
         id="path29161">
        <path
           style="color:#000000;-inkscape-font-specification:'Noto Sans Heavy';stroke:none;-inkscape-stroke:none"
           d="m 69.744141,91.507812 -0.607422,1.625 -1.097657,0.669922 v 2.619141 h 0.751954 v 1.533203 c 0,0.630051 0.07787,1.219454 0.392578,1.777344 l 0.0078,0.0098 0.0059,0.01172 c 0.277296,0.470198 0.716576,0.880768 1.236328,1.099618 l 0.0059,0.002 0.0059,0.002 c 0.44524,0.18266 0.922523,0.26172 1.404297,0.26172 0.365774,0 0.719321,-0.0294 1.060547,-0.0977 0.320959,-0.0627 0.61881,-0.14576 0.910156,-0.27929 l 0.730469,-0.33399 V 96.671875 L 72.888672,97.25 c -0.0073,0.0025 -0.01421,0.0034 -0.02148,0.0059 v -0.833984 h 1.619141 v -3.685547 h -1.619141 v -1.228516 z"
           id="path29188" />
        <path
           style="color:#000000;-inkscape-font-specification:'Noto Sans Heavy';stroke:none;-inkscape-stroke:none"
           d="m 72.305271,98.610512 q 0.264582,0 0.507998,-0.04233 0.243416,-0.05292 0.486832,-0.137583 v 1.174746 q -0.253999,0.116416 -0.634998,0.190499 -0.370416,0.07408 -0.814914,0.07408 -0.518582,0 -0.931331,-0.169332 -0.402165,-0.169333 -0.645581,-0.582082 -0.232833,-0.412748 -0.232833,-1.164163 V 95.170939 H 69.28903 v -0.666747 l 0.867831,-0.529165 0.455082,-1.21708 h 1.005413 v 1.227663 h 1.619245 v 1.185329 h -1.619245 v 2.783408 q 0,0.328083 0.190499,0.497415 0.1905,0.15875 0.497416,0.15875 z"
           id="path29190" />
      </g>
      <g
         id="path29163">
        <path
           style="color:#000000;-inkscape-font-specification:'Noto Sans Heavy';stroke:none;-inkscape-stroke:none"
           d="m 76.845703,92.628906 c -0.716435,0 -1.419123,0.155338 -2.033203,0.494141 -0.630044,0.34761 -1.140055,0.897806 -1.470703,1.539062 l -0.002,0.0059 -0.0039,0.0078 c -0.336414,0.672831 -0.470703,1.431562 -0.470703,2.242188 0,0.828169 0.155619,1.611868 0.548828,2.289062 l 0.0039,0.0039 0.002,0.0039 c 0.369108,0.625433 0.92097,1.138511 1.572265,1.458991 l 0.0078,0.004 0.0059,0.004 c 0.634565,0.30217 1.341274,0.4375 2.072266,0.4375 0.505663,0 0.964053,-0.0378 1.396484,-0.13476 0.408953,-0.0849 0.80664,-0.22042 1.183594,-0.4043 l 0.701172,-0.34181 V 98.515625 H 80.6875 v -2.011719 c 0,-1.068807 -0.333351,-2.109128 -1.074219,-2.830078 -0.719536,-0.706257 -1.732496,-1.044922 -2.767578,-1.044922 z m 1.806641,1.949219 0.01563,0.01758 c -0.0028,-0.0037 -0.0089,-0.0022 -0.01172,-0.0059 -0.0026,-0.0034 -0.0013,-0.0084 -0.0039,-0.01172 z"
           id="path29194" />
        <path
           style="color:#000000;-inkscape-font-specification:'Noto Sans Heavy';stroke:none;-inkscape-stroke:none"
           d="m 76.845505,93.879777 q 1.195913,0 1.894411,0.687914 0.698498,0.677332 0.698498,1.936744 v 0.761998 h -3.725322 q 0.02117,0.666748 0.391582,1.047746 0.380999,0.380999 1.047747,0.380999 0.550331,0 1.005413,-0.105833 0.465665,-0.116416 0.952497,-0.349249 v 1.21708 q -0.433915,0.211666 -0.89958,0.306915 -0.465665,0.105833 -1.132413,0.105833 -0.867831,0 -1.534579,-0.317499 -0.666748,-0.328082 -1.047746,-0.973663 -0.380999,-0.656165 -0.380999,-1.661578 0,-1.005414 0.338665,-1.682745 0.349249,-0.677331 0.963081,-1.015997 0.613831,-0.338665 1.428745,-0.338665 z m 0.01058,1.12183 q -0.465665,0 -0.761997,0.296332 -0.296333,0.296332 -0.349249,0.920747 h 2.21191 q -0.01058,-0.518582 -0.28575,-0.86783 -0.264582,-0.349249 -0.814914,-0.349249 z"
           id="path29196" />
      </g>
      <g
         id="path29165">
        <path
           style="color:#000000;-inkscape-font-specification:'Noto Sans Heavy';stroke:none;-inkscape-stroke:none"
           d="m 82.591797,92.628906 c -1.010319,0 -2.026612,0.487616 -2.63086,1.296875 -0.608629,0.815129 -0.841796,1.839415 -0.841796,2.958985 0,0.703889 0.137993,1.343485 0.353515,1.943359 l -0.0039,-0.002 v 3.999995 l 0.802734,0.30664 c 0.416537,0.15951 0.848316,0.27129 1.28711,0.33399 h 0.002 l 0.002,0.002 c 0.418515,0.0586 0.856887,0.0859 1.316406,0.0859 1.140768,0 2.19642,-0.26066 2.986328,-0.95899 0.783948,-0.69305 1.152344,-1.74909 1.152344,-2.820306 v -7.039063 h -3.378906 l -0.02148,-0.107422 z"
           id="path29200" />
        <path
           style="color:#000000;-inkscape-font-specification:'Noto Sans Heavy';stroke:none;-inkscape-stroke:none"
           d="m 82.592233,93.879777 q 1.068913,0 1.672161,0.846664 h 0.04233 l 0.126999,-0.740831 h 1.333496 v 5.789065 q 0,1.238245 -0.730248,1.883825 -0.730247,0.64558 -2.158993,0.64558 -0.613831,0 -1.142996,-0.0741 -0.518582,-0.0741 -1.015997,-0.26458 v -1.25941 q 1.05833,0.44449 2.254243,0.44449 1.217079,0 1.217079,-1.312325 v -0.116417 q 0,-0.169333 0.01058,-0.359832 0.01058,-0.201083 0.03175,-0.349249 h -0.04233 q -0.296332,0.455082 -0.709081,0.656165 -0.412748,0.201082 -0.93133,0.201082 -1.02658,0 -1.608662,-0.783164 -0.571498,-0.793747 -0.571498,-2.201326 0,-1.418162 0.592665,-2.21191 0.592665,-0.793747 1.629828,-0.793747 z m 0.497415,1.280579 q -1.111246,0 -1.111246,1.746245 0,1.725077 1.132413,1.725077 0.603248,0 0.888997,-0.338665 0.296332,-0.349249 0.296332,-1.206496 v -0.1905 q 0,-0.93133 -0.285749,-1.333495 -0.285749,-0.402166 -0.920747,-0.402166 z"
           id="path29202" />
      </g>
      <g
         id="path29167">
        <path
           style="color:#000000;-inkscape-font-specification:'Noto Sans Heavy';stroke:none;-inkscape-stroke:none"
           d="m 89.884766,92.628906 c -1.120181,0 -2.206411,0.376562 -2.960938,1.152344 -0.771447,0.793179 -1.105469,1.906909 -1.105469,3.083984 0,0.797731 0.150812,1.558238 0.50586,2.226563 l 0.002,0.0039 0.002,0.002 c 0.340087,0.630162 0.851841,1.165343 1.474609,1.513673 l 0.0039,0.002 0.0039,0.002 c 0.618606,0.34024 1.323875,0.50391 2.041015,0.50391 1.116991,0 2.200682,-0.38388 2.951172,-1.164061 0.772726,-0.796222 1.115235,-1.911269 1.115235,-3.089844 0,-0.792404 -0.151724,-1.551413 -0.509766,-2.214843 -0.340168,-0.630303 -0.851922,-1.163532 -1.47469,-1.51186 -0.618471,-0.345925 -1.326981,-0.509766 -2.048828,-0.509766 z m 1.923828,2.25586 0.01953,0.0293 c -0.0037,-0.0059 -0.01181,-0.0078 -0.01563,-0.01367 -0.0032,-0.0048 -6.78e-4,-0.01084 -0.0039,-0.01563 z m 0.01953,3.951171 -0.0039,0.0059 c 7.23e-4,-0.0011 -7.22e-4,-0.0028 0,-0.0039 7.64e-4,-0.0012 0.0031,-7.53e-4 0.0039,-0.002 z"
           id="path29206" />
        <path
           style="color:#000000;-inkscape-font-specification:'Noto Sans Heavy';stroke:none;-inkscape-stroke:none"
           d="m 92.667528,96.864267 q 0,1.439329 -0.761997,2.222493 -0.751415,0.783164 -2.05316,0.783164 -0.804331,0 -1.439329,-0.349248 -0.624415,-0.349249 -0.984247,-1.015997 -0.359832,-0.677331 -0.359832,-1.640412 0,-1.439328 0.751414,-2.211909 0.751414,-0.772581 2.063743,-0.772581 0.814915,0 1.439329,0.349249 0.624415,0.349249 0.984247,1.015997 0.359832,0.666747 0.359832,1.619244 z m -3.989904,0 q 0,0.857248 0.275166,1.301746 0.285749,0.433916 0.920747,0.433916 0.624415,0 0.899581,-0.433916 0.285749,-0.444498 0.285749,-1.301746 0,-0.857247 -0.285749,-1.280579 -0.275166,-0.433915 -0.910164,-0.433915 -0.624415,0 -0.910164,0.433915 -0.275166,0.423332 -0.275166,1.280579 z"
           id="path29208" />
      </g>
      <g
         id="path29169">
        <path
           style="color:#000000;-inkscape-font-specification:'Noto Sans Heavy';stroke:none;-inkscape-stroke:none"
           d="m 97.197266,92.628906 c -0.349431,0 -0.662124,0.193685 -0.996094,0.3125 l -0.04883,-0.205078 H 92.71875 v 8.277342 h 4.078125 v -4.191404 c 0,-0.18573 0.0292,-0.191934 -0.0039,-0.140625 0.0012,-6.71e-4 -0.0021,-0.0059 0.01367,-0.01172 l 0.01563,-0.0039 0.01367,-0.0059 c 0.102107,-0.04084 0.193993,-0.05859 0.308594,-0.05859 -0.01279,0 0.0086,-9.27e-4 0.05273,0.0059 l 0.04687,0.0078 0.04687,0.0039 c 0.04772,0.0037 0.0662,0.01069 0.01563,-0.002 l 1.433593,0.357422 0.316407,-4.037109 -1.058594,-0.236328 c -0.164023,-0.03646 -0.298882,-0.04896 -0.44336,-0.05859 -0.126062,-0.0084 -0.241944,-0.01367 -0.357421,-0.01367 z m -1.261719,1.699219 c -0.0031,0.0011 -0.0048,0.0047 -0.0078,0.0059 -0.0062,0.0024 -0.01333,0.0014 -0.01953,0.0039 z"
           id="path29212" />
        <path
           style="color:#000000;-inkscape-font-specification:'Noto Sans Heavy';stroke:none;-inkscape-stroke:none"
           d="m 97.197176,93.879777 q 0.116416,0 0.275166,0.01058 0.158749,0.01058 0.253999,0.03175 l -0.116416,1.481662 q -0.08467,-0.02117 -0.22225,-0.03175 -0.137583,-0.02117 -0.243416,-0.02117 -0.402165,0 -0.77258,0.148166 -0.370416,0.137583 -0.603249,0.455082 -0.222249,0.317499 -0.222249,0.86783 v 2.942157 H 93.969269 V 93.98561 h 1.195913 l 0.232833,0.973663 h 0.07408 q 0.253999,-0.444498 0.698498,-0.761997 0.444498,-0.317499 1.02658,-0.317499 z"
           id="path29214" />
      </g>
      <g
         id="path29171">
        <path
           style="color:#000000;-inkscape-font-specification:'Noto Sans Heavy';stroke:none;-inkscape-stroke:none"
           d="m 96.101562,92.736328 0.6875,1.714844 2.107422,5.269531 c -0.01105,0.01881 -0.02147,0.04276 -0.0332,0.05859 -0.04242,-0.0018 -0.08741,-0.0012 -0.125,-0.0059 v -0.002 c -0.09362,-0.01167 -0.160619,-0.02274 -0.183594,-0.02734 l -1.496093,-0.298829 v 3.785156 l 0.988281,0.21094 c 0.139396,0.0298 0.282502,0.0492 0.429687,0.0664 0.211104,0.0328 0.417226,0.0469 0.636719,0.0469 0.777297,0 1.550716,-0.23869 2.177736,-0.69336 0.65079,-0.46537 1.11404,-1.14505 1.40429,-1.91602 l 3.07813,-8.20898 h -4.40039 l -0.39649,1.205078 -0.40429,-1.205078 z m 4.529298,8.841802 -0.0156,0.0176 c 0.004,-0.004 0.005,-0.0111 0.01,-0.0156 0.001,-0.002 0.004,-3.8e-4 0.006,-0.002 z"
           id="path29218" />
        <path
           style="color:#000000;-inkscape-font-specification:'Noto Sans Heavy';stroke:none;-inkscape-stroke:none"
           d="m 97.948593,93.98561 h 1.725078 l 1.090079,3.249073 q 0.0847,0.243416 0.127,0.486832 0.0423,0.243416 0.0635,0.518581 h 0.0318 q 0.0318,-0.275165 0.0847,-0.518581 0.0529,-0.243416 0.13758,-0.486832 l 1.06891,-3.249073 h 1.69333 l -2.44474,6.51931 q -0.33867,0.89958 -0.96308,1.34408 -0.624417,0.45508 -1.449914,0.45508 -0.275166,0 -0.465665,-0.0318 -0.190499,-0.0212 -0.338666,-0.0529 v -1.24883 q 0.105833,0.0212 0.275166,0.0423 0.169333,0.0212 0.349249,0.0212 0.497415,0 0.783164,-0.30692 0.285746,-0.29633 0.433916,-0.71966 l 0.0953,-0.285752 z"
           id="path29220" />
      </g>
    </g>
    <g
       aria-label="Category"
       id="text29065"
       style="font-size:10.5833px;line-height:1.25;font-family:'Noto Sans';-inkscape-font-specification:'Noto Sans';word-spacing:0px;fill:#ff8c68;stroke-width:2.5;paint-order:stroke fill markers">
      <path
         d="m 60.070984,93.435278 q -0.920747,0 -1.407579,0.687915 -0.486832,0.687914 -0.486832,1.883827 0,1.206496 0.444499,1.873244 0.455082,0.656165 1.449912,0.656165 0.455082,0 0.920747,-0.105833 0.465665,-0.105833 1.005413,-0.296333 v 1.344079 q -0.497415,0.201083 -0.984247,0.296333 -0.486831,0.09525 -1.090079,0.09525 -1.174747,0 -1.926161,-0.476248 -0.751414,-0.486832 -1.111246,-1.354662 -0.359833,-0.878414 -0.359833,-2.042577 0,-1.142997 0.412749,-2.02141 0.412749,-0.878414 1.195913,-1.375829 0.793747,-0.497415 1.936744,-0.497415 0.560915,0 1.121829,0.148166 0.571499,0.137583 1.09008,0.380999 l -0.518581,1.301745 q -0.423332,-0.201082 -0.857248,-0.349248 -0.423332,-0.148167 -0.83608,-0.148168 z"
         style="font-weight:900;-inkscape-font-specification:'Noto Sans Heavy'"
         id="path29222" />
      <path
         d="m 65.849456,93.869194 q 1.164163,0 1.777995,0.507998 0.624414,0.497415 0.624414,1.534578 v 3.852321 h -1.100663 l -0.306916,-0.783164 h -0.04233 q -0.370415,0.465666 -0.783164,0.677331 -0.412749,0.211666 -1.132413,0.211666 -0.772581,0 -1.280579,-0.444498 -0.507999,-0.444499 -0.507999,-1.386412 0,-0.920747 0.645582,-1.354663 0.645581,-0.433915 1.936744,-0.486831 l 1.005413,-0.03175 v -0.254 q 0,-0.455081 -0.243416,-0.666747 -0.232833,-0.211666 -0.656164,-0.211666 -0.423332,0 -0.825498,0.126999 -0.402165,0.116416 -0.804331,0.296333 L 63.63755,94.387775 q 0.455082,-0.232832 1.02658,-0.370415 0.571498,-0.148166 1.185329,-0.148166 z m 0.836081,3.217323 -0.613831,0.02117 q -0.761998,0.02117 -1.05833,0.275166 -0.296333,0.253999 -0.296333,0.666748 0,0.359832 0.211666,0.518582 0.211666,0.148166 0.550332,0.148166 0.507998,0 0.857247,-0.296333 0.349249,-0.306915 0.349249,-0.857247 z"
         style="font-weight:900;-inkscape-font-specification:'Noto Sans Heavy'"
         id="path29224" />
      <path
         d="m 72.305271,98.610512 q 0.264582,0 0.507998,-0.04233 0.243416,-0.05292 0.486832,-0.137583 v 1.174746 q -0.253999,0.116416 -0.634998,0.190499 -0.370416,0.07408 -0.814914,0.07408 -0.518582,0 -0.931331,-0.169332 -0.402165,-0.169333 -0.645581,-0.582082 -0.232833,-0.412748 -0.232833,-1.164163 V 95.170939 H 69.28903 v -0.666747 l 0.867831,-0.529165 0.455082,-1.21708 h 1.005413 v 1.227663 h 1.619245 v 1.185329 h -1.619245 v 2.783408 q 0,0.328083 0.190499,0.497415 0.1905,0.15875 0.497416,0.15875 z"
         style="font-weight:900;-inkscape-font-specification:'Noto Sans Heavy'"
         id="path29226" />
      <path
         d="m 76.845505,93.879777 q 1.195913,0 1.894411,0.687914 0.698498,0.677332 0.698498,1.936744 v 0.761998 h -3.725322 q 0.02117,0.666748 0.391582,1.047746 0.380999,0.380999 1.047747,0.380999 0.550331,0 1.005413,-0.105833 0.465665,-0.116416 0.952497,-0.349249 v 1.21708 q -0.433915,0.211666 -0.89958,0.306915 -0.465665,0.105833 -1.132413,0.105833 -0.867831,0 -1.534579,-0.317499 -0.666748,-0.328082 -1.047746,-0.973663 -0.380999,-0.656165 -0.380999,-1.661578 0,-1.005414 0.338665,-1.682745 0.349249,-0.677331 0.963081,-1.015997 0.613831,-0.338665 1.428745,-0.338665 z m 0.01058,1.12183 q -0.465665,0 -0.761997,0.296332 -0.296333,0.296332 -0.349249,0.920747 h 2.21191 q -0.01058,-0.518582 -0.28575,-0.86783 -0.264582,-0.349249 -0.814914,-0.349249 z"
         style="font-weight:900;-inkscape-font-specification:'Noto Sans Heavy'"
         id="path29228" />
      <path
         d="m 82.592233,93.879777 q 1.068913,0 1.672161,0.846664 h 0.04233 l 0.126999,-0.740831 h 1.333496 v 5.789065 q 0,1.238245 -0.730248,1.883825 -0.730247,0.64558 -2.158993,0.64558 -0.613831,0 -1.142996,-0.0741 -0.518582,-0.0741 -1.015997,-0.26458 v -1.25941 q 1.05833,0.44449 2.254243,0.44449 1.217079,0 1.217079,-1.312325 v -0.116417 q 0,-0.169333 0.01058,-0.359832 0.01058,-0.201083 0.03175,-0.349249 h -0.04233 q -0.296332,0.455082 -0.709081,0.656165 -0.412748,0.201082 -0.93133,0.201082 -1.02658,0 -1.608662,-0.783164 -0.571498,-0.793747 -0.571498,-2.201326 0,-1.418162 0.592665,-2.21191 0.592665,-0.793747 1.629828,-0.793747 z m 0.497415,1.280579 q -1.111246,0 -1.111246,1.746245 0,1.725077 1.132413,1.725077 0.603248,0 0.888997,-0.338665 0.296332,-0.349249 0.296332,-1.206496 v -0.1905 q 0,-0.93133 -0.285749,-1.333495 -0.285749,-0.402166 -0.920747,-0.402166 z"
         style="font-weight:900;-inkscape-font-specification:'Noto Sans Heavy'"
         id="path29230" />
      <path
         d="m 92.667528,96.864267 q 0,1.439329 -0.761997,2.222493 -0.751415,0.783164 -2.05316,0.783164 -0.804331,0 -1.439329,-0.349248 -0.624415,-0.349249 -0.984247,-1.015997 -0.359832,-0.677331 -0.359832,-1.640412 0,-1.439328 0.751414,-2.211909 0.751414,-0.772581 2.063743,-0.772581 0.814915,0 1.439329,0.349249 0.624415,0.349249 0.984247,1.015997 0.359832,0.666747 0.359832,1.619244 z m -3.989904,0 q 0,0.857248 0.275166,1.301746 0.285749,0.433916 0.920747,0.433916 0.624415,0 0.899581,-0.433916 0.285749,-0.444498 0.285749,-1.301746 0,-0.857247 -0.285749,-1.280579 -0.275166,-0.433915 -0.910164,-0.433915 -0.624415,0 -0.910164,0.433915 -0.275166,0.423332 -0.275166,1.280579 z"
         style="font-weight:900;-inkscape-font-specification:'Noto Sans Heavy'"
         id="path29232" />
      <path
         d="m 97.197176,93.879777 q 0.116416,0 0.275166,0.01058 0.158749,0.01058 0.253999,0.03175 l -0.116416,1.481662 q -0.08467,-0.02117 -0.22225,-0.03175 -0.137583,-0.02117 -0.243416,-0.02117 -0.402165,0 -0.77258,0.148166 -0.370416,0.137583 -0.603249,0.455082 -0.222249,0.317499 -0.222249,0.86783 v 2.942157 H 93.969269 V 93.98561 h 1.195913 l 0.232833,0.973663 h 0.07408 q 0.253999,-0.444498 0.698498,-0.761997 0.444498,-0.317499 1.02658,-0.317499 z"
         style="font-weight:900;-inkscape-font-specification:'Noto Sans Heavy'"
         id="path29234" />
      <path
         d="m 97.948593,93.98561 h 1.725078 l 1.090079,3.249073 q 0.0847,0.243416 0.127,0.486832 0.0423,0.243416 0.0635,0.518581 h 0.0318 q 0.0318,-0.275165 0.0847,-0.518581 0.0529,-0.243416 0.13758,-0.486832 l 1.06891,-3.249073 h 1.69333 l -2.44474,6.51931 q -0.33867,0.89958 -0.96308,1.34408 -0.624417,0.45508 -1.449914,0.45508 -0.275166,0 -0.465665,-0.0318 -0.190499,-0.0212 -0.338666,-0.0529 v -1.24883 q 0.105833,0.0212 0.275166,0.0423 0.169333,0.0212 0.349249,0.0212 0.497415,0 0.783164,-0.30692 0.285746,-0.29633 0.433916,-0.71966 l 0.0953,-0.285752 z"
         style="font-weight:900;-inkscape-font-specification:'Noto Sans Heavy'"
         id="path29236" />
    </g>
  </g>
</svg>
