<?xml version="1.0" encoding="UTF-8" standalone="no"?>
<!-- Created with Inkscape (http://www.inkscape.org/) -->

<svg
   width="36.806721mm"
   height="11.16225mm"
   viewBox="0 0 36.806721 11.16225"
   version="1.1"
   id="svg5"
   xmlns="http://www.w3.org/2000/svg"
   xmlns:svg="http://www.w3.org/2000/svg">
  <defs
     id="defs2" />
  <g
     id="layer1"
     transform="translate(-55.113281,-90.457031)">
    <g
       aria-label="Promo"
       id="text1178"
       style="font-size:10.5833px;font-family:'Noto Sans';-inkscape-font-specification:'Noto Sans';word-spacing:0px;fill:none;stroke:#ffffff;stroke-width:2.5;paint-order:stroke fill markers">
      <path
         style="color:#000000;-inkscape-font-specification:'Noto Sans Heavy';fill:#ffffff;stroke:none;-inkscape-stroke:none"
         d="m 55.613281,90.957031 v 10.056639 h 4.09961 v -2.808592 c 0.624371,-0.05098 1.246539,-0.0944 1.769531,-0.380859 0.614938,-0.333263 1.145552,-0.841813 1.451172,-1.476563 0.265871,-0.552193 0.398437,-1.162841 0.398437,-1.779297 0,-0.986295 -0.359208,-1.97047 -1.074219,-2.634765 -0.773986,-0.732841 -1.828886,-0.976563 -2.980468,-0.976563 z"
         id="path42693" />
      <path
         style="color:#000000;-inkscape-font-specification:'Noto Sans Heavy';fill:#ffffff;stroke:none;-inkscape-stroke:none"
         d="m 66.611328,92.628906 c -0.349431,0 -0.662124,0.193685 -0.996094,0.3125 l -0.04883,-0.205078 H 62.13281 v 8.277342 h 4.078125 v -4.191404 c 0,-0.18573 0.0292,-0.191934 -0.0039,-0.140625 0.0012,-6.71e-4 -0.0021,-0.0059 0.01367,-0.01172 l 0.01563,-0.0039 0.01367,-0.0059 c 0.102108,-0.04084 0.193993,-0.05859 0.308594,-0.05859 -0.01279,0 0.0086,-9.27e-4 0.05273,0.0059 l 0.04687,0.0078 0.04883,0.0039 c 0.04772,0.0037 0.06425,0.01069 0.01367,-0.002 l 1.433594,0.357422 0.318359,-4.037109 -1.060547,-0.236328 c -0.164022,-0.03646 -0.296928,-0.04896 -0.441406,-0.05859 -0.126062,-0.0084 -0.243897,-0.01367 -0.359375,-0.01367 z m -1.259766,1.699219 c -0.0031,0.0011 -0.0048,0.0047 -0.0078,0.0059 -0.0068,0.0027 -0.01469,0.0012 -0.02148,0.0039 z"
         id="path42695" />
      <path
         style="color:#000000;-inkscape-font-specification:'Noto Sans Heavy';fill:#ffffff;stroke:none;-inkscape-stroke:none"
         d="m 70.443359,92.628906 c -1.12018,0 -2.20641,0.376563 -2.960937,1.152344 -0.771447,0.793179 -1.105469,1.906909 -1.105469,3.083984 0,0.797731 0.150812,1.558238 0.505859,2.226563 l 0.002,0.0039 0.002,0.002 c 0.340087,0.630162 0.851841,1.165343 1.474609,1.513673 l 0.0039,0.002 0.0039,0.002 c 0.618606,0.34024 1.323875,0.50391 2.041015,0.50391 1.116991,0 2.200682,-0.38388 2.951172,-1.164061 0.772727,-0.796222 1.115234,-1.911269 1.115234,-3.089844 0,-0.792405 -0.151722,-1.551413 -0.509765,-2.214843 C 73.62671,94.02023 73.114955,93.487 72.492187,93.138672 71.873716,92.792747 71.165206,92.628906 70.443359,92.628906 Z m 1.923828,2.25586 0.01953,0.0293 c -0.0037,-0.0059 -0.01181,-0.0078 -0.01563,-0.01367 -0.0032,-0.0048 -6.78e-4,-0.01084 -0.0039,-0.01563 z m 0.01953,3.951171 -0.0039,0.0059 c 7.24e-4,-0.0011 -7.21e-4,-0.0028 0,-0.0039 7.65e-4,-0.0012 0.0031,-7.53e-4 0.0039,-0.002 z"
         id="path42697" />
      <path
         style="color:#000000;-inkscape-font-specification:'Noto Sans Heavy';fill:#ffffff;stroke:none;-inkscape-stroke:none"
         d="m 77.712891,92.628906 c -0.344807,0 -0.674647,0.114865 -1.00586,0.210938 l -0.0293,-0.103516 h -3.40039 v 8.277342 h 3.599609 0.478516 3.11914 0.478516 3.597656 v -5.017576 c 0,-0.925842 -0.213139,-1.831996 -0.875,-2.488282 -0.619529,-0.62697 -1.495921,-0.878906 -2.363281,-0.878906 -0.50005,0 -0.999779,0.10607 -1.460938,0.300781 l -0.0039,0.002 -0.0059,0.002 c -0.119263,0.0515 -0.177602,0.187255 -0.289063,0.255859 -0.09531,-0.05968 -0.142781,-0.177947 -0.24414,-0.224609 -0.499698,-0.239173 -1.04091,-0.335938 -1.595703,-0.335938 z"
         id="path42699" />
      <path
         style="color:#000000;-inkscape-font-specification:'Noto Sans Heavy';fill:#ffffff;stroke:none;-inkscape-stroke:none"
         d="m 87.386719,92.628906 c -1.120181,0 -2.20641,0.376563 -2.960938,1.152344 -0.771447,0.793179 -1.103515,1.906909 -1.103515,3.083984 0,0.797731 0.150811,1.558238 0.505859,2.226563 l 0.002,0.0039 0.002,0.002 c 0.340087,0.630162 0.849888,1.165343 1.472656,1.513673 l 0.0039,0.002 0.0039,0.002 c 0.618607,0.34024 1.325828,0.50391 2.042969,0.50391 1.116992,0 2.200681,-0.38388 2.951172,-1.164061 0.772725,-0.796222 1.113281,-1.91127 1.113281,-3.089844 0,-0.792405 -0.151723,-1.551413 -0.509766,-2.214843 C 90.57007,94.02023 90.058315,93.487 89.435547,93.138672 88.817076,92.792747 88.108566,92.628906 87.386719,92.628906 Z m 1.925781,2.25586 0.01953,0.0293 c -0.0037,-0.0059 -0.01181,-0.0078 -0.01563,-0.01367 -0.0032,-0.0048 -6.77e-4,-0.01084 -0.0039,-0.01563 z"
         id="path42701" />
    </g>
    <g
       aria-label="Promo"
       id="text35439"
       style="font-size:10.5833px;line-height:1.25;font-family:'Noto Sans';-inkscape-font-specification:'Noto Sans';word-spacing:0px;fill:#ff8c68;stroke-width:2.5;paint-order:stroke fill markers">
      <path
         d="m 59.277236,92.207616 q 1.460496,0 2.127243,0.634998 0.677332,0.624414 0.677332,1.725077 0,0.666748 -0.275166,1.238246 -0.275166,0.571499 -0.920747,0.920747 -0.634998,0.349249 -1.735661,0.349249 h -0.687915 v 2.688158 h -1.598078 v -7.556475 z m -0.08467,1.312329 h -0.730248 v 2.243659 h 0.529165 q 0.677331,0 1.068913,-0.264582 0.402166,-0.275166 0.402166,-0.878414 0,-1.100663 -1.269996,-1.100663 z"
         style="font-weight:900;-inkscape-font-specification:'Noto Sans Heavy'"
         id="path42664" />
      <path
         d="m 66.611466,93.879777 q 0.116416,0 0.275166,0.01058 0.158749,0.01058 0.253999,0.03175 l -0.116416,1.481662 q -0.08467,-0.02117 -0.22225,-0.03175 -0.137583,-0.02117 -0.243416,-0.02117 -0.402165,0 -0.772581,0.148166 -0.370415,0.137583 -0.603248,0.455082 -0.222249,0.317499 -0.222249,0.86783 v 2.942157 H 63.383559 V 93.98561 h 1.195913 l 0.232833,0.973663 h 0.07408 q 0.253999,-0.444498 0.698498,-0.761997 0.444498,-0.317499 1.02658,-0.317499 z"
         style="font-weight:900;-inkscape-font-specification:'Noto Sans Heavy'"
         id="path42666" />
      <path
         d="m 73.226029,96.864267 q 0,1.439329 -0.761998,2.222493 -0.751414,0.783164 -2.05316,0.783164 -0.804331,0 -1.439329,-0.349248 -0.624415,-0.349249 -0.984247,-1.015997 -0.359832,-0.677331 -0.359832,-1.640412 0,-1.439328 0.751414,-2.211909 0.751415,-0.772581 2.063744,-0.772581 0.814914,0 1.439329,0.349249 0.624414,0.349249 0.984246,1.015997 0.359833,0.666747 0.359833,1.619244 z m -3.989904,0 q 0,0.857248 0.275165,1.301746 0.28575,0.433916 0.920747,0.433916 0.624415,0 0.899581,-0.433916 0.285749,-0.444498 0.285749,-1.301746 0,-0.857247 -0.285749,-1.280579 -0.275166,-0.433915 -0.910164,-0.433915 -0.624414,0 -0.910164,0.433915 -0.275165,0.423332 -0.275165,1.280579 z"
         style="font-weight:900;-inkscape-font-specification:'Noto Sans Heavy'"
         id="path42668" />
      <path
         d="m 81.311663,93.879777 q 0.984247,0 1.481662,0.507998 0.507998,0.497415 0.507998,1.608662 v 3.767654 h -1.576911 v -3.376072 q 0,-1.248829 -0.867831,-1.248829 -0.624415,0 -0.888997,0.444498 -0.264583,0.444499 -0.264583,1.280579 v 2.899824 H 78.12609 v -3.376072 q 0,-1.248829 -0.867831,-1.248829 -0.656164,0 -0.910164,0.497415 -0.243415,0.486831 -0.243415,1.407578 v 2.719908 H 74.527768 V 93.98561 h 1.206496 l 0.211666,0.740831 h 0.08467 q 0.264583,-0.444499 0.719665,-0.645581 0.465665,-0.201083 0.96308,-0.201083 0.634998,0 1.068913,0.211666 0.444499,0.201083 0.687915,0.634998 h 0.137583 q 0.264582,-0.444499 0.730247,-0.645581 0.476249,-0.201083 0.973664,-0.201083 z"
         style="font-weight:900;-inkscape-font-specification:'Noto Sans Heavy'"
         id="path42670" />
      <path
         d="m 90.16989,96.864267 q 0,1.439329 -0.761998,2.222493 -0.751414,0.783164 -2.05316,0.783164 -0.804331,0 -1.439329,-0.349248 -0.624415,-0.349249 -0.984247,-1.015997 -0.359832,-0.677331 -0.359832,-1.640412 0,-1.439328 0.751414,-2.211909 0.751415,-0.772581 2.063744,-0.772581 0.814914,0 1.439329,0.349249 0.624414,0.349249 0.984246,1.015997 0.359833,0.666747 0.359833,1.619244 z m -3.989904,0 q 0,0.857248 0.275165,1.301746 0.28575,0.433916 0.920747,0.433916 0.624415,0 0.899581,-0.433916 0.285749,-0.444498 0.285749,-1.301746 0,-0.857247 -0.285749,-1.280579 -0.275166,-0.433915 -0.910164,-0.433915 -0.624414,0 -0.910164,0.433915 -0.275165,0.423332 -0.275165,1.280579 z"
         style="font-weight:900;-inkscape-font-specification:'Noto Sans Heavy'"
         id="path42672" />
    </g>
  </g>
</svg>
