<?xml version="1.0" encoding="UTF-8" standalone="no"?>
<!-- Created with Inkscape (http://www.inkscape.org/) -->

<svg
   width="86.25251mm"
   height="11.648721mm"
   viewBox="0 0 86.25251 11.648721"
   version="1.1"
   id="svg5"
   xmlns="http://www.w3.org/2000/svg"
   xmlns:svg="http://www.w3.org/2000/svg">
  <defs
     id="defs2" />
  <g
     id="layer1"
     transform="translate(-55.113281,-89.970703)">
    <g
       aria-label="Newest Product"
       id="text1178"
       style="font-size:10.5833px;font-family:'Noto Sans';-inkscape-font-specification:'Noto Sans';word-spacing:0px;fill:none;stroke:#ffffff;stroke-width:2.5;paint-order:stroke fill markers">
      <path
         style="color:#000000;-inkscape-font-specification:'Noto Sans Heavy';fill:#ffffff;stroke:none;-inkscape-stroke:none"
         d="m 55.613281,90.957031 v 10.056639 h 3.929688 v -2.197264 l 1.265625,2.197264 H 64.8125 v -1.249998 l 0.002,-8.806641 H 60.875 v 2.191406 l -1.269531,-2.191406 z"
         id="path35522" />
      <path
         style="color:#000000;-inkscape-font-specification:'Noto Sans Heavy';fill:#ffffff;stroke:none;-inkscape-stroke:none"
         d="m 67.722656,92.628906 c -0.716435,0 -1.419123,0.155338 -2.033203,0.494141 -0.630043,0.34761 -1.138102,0.897806 -1.46875,1.539062 l -0.0039,0.0059 -0.0039,0.0078 c -0.336415,0.672831 -0.470704,1.431562 -0.470704,2.242188 0,0.828169 0.157572,1.611868 0.550782,2.289062 l 0.002,0.0039 0.002,0.0039 c 0.369108,0.625433 0.92097,1.138511 1.572266,1.458991 l 0.0078,0.004 0.0059,0.004 c 0.634565,0.30217 1.341274,0.4375 2.072266,0.4375 0.505663,0 0.964053,-0.0378 1.396484,-0.13476 0.408953,-0.0849 0.80664,-0.22042 1.183594,-0.4043 l 0.703125,-0.34181 v -1.72265 h 0.328125 v -2.011719 c 0,-1.068807 -0.335304,-2.109128 -1.076172,-2.830078 -0.719535,-0.706257 -1.732496,-1.044922 -2.767578,-1.044922 z m 1.806641,1.949219 0.01563,0.01758 c -0.0028,-0.0037 -0.0089,-0.0022 -0.01172,-0.0059 -0.0026,-0.0034 -0.0013,-0.0084 -0.0039,-0.01172 z"
         id="path35524" />
      <path
         style="color:#000000;-inkscape-font-specification:'Noto Sans Heavy';fill:#ffffff;stroke:none;-inkscape-stroke:none"
         d="m 69.009766,92.736328 2.351562,8.277342 h 3.628906 l 0.07227,-0.31054 0.06836,0.31054 h 1.00586 2.65625 l 2.378906,-8.277342 h -4.164063 l -0.03125,0.115234 -0.02734,-0.115234 h -3.6875 l -0.03125,0.125 -0.0332,-0.125 z"
         id="path35526" />
      <path
         style="color:#000000;-inkscape-font-specification:'Noto Sans Heavy';fill:#ffffff;stroke:none;-inkscape-stroke:none"
         d="m 82.824219,92.628906 c -0.716436,0 -1.41717,0.155338 -2.03125,0.494141 -0.630043,0.34761 -1.140056,0.897807 -1.470703,1.539062 l -0.0039,0.0059 -0.0039,0.0078 c -0.336416,0.672831 -0.470703,1.431562 -0.470703,2.242188 0,0.828169 0.157572,1.611868 0.550781,2.289062 l 0.002,0.0039 0.002,0.0039 c 0.369109,0.625433 0.920971,1.138511 1.572266,1.458991 l 0.0078,0.004 0.0078,0.004 c 0.634564,0.30217 1.341274,0.4375 2.072266,0.4375 0.506358,0 0.963531,-0.0375 1.396484,-0.13476 0.408953,-0.0849 0.80664,-0.22042 1.183594,-0.4043 l 0.701172,-0.34181 v -1.72265 h 0.328125 v -2.011719 c 0,-1.067282 -0.333615,-2.10534 -1.072266,-2.826172 -3.99e-4,-3.93e-4 -0.0016,3.93e-4 -0.002,0 -0.7197,-0.708061 -1.733157,-1.048828 -2.769531,-1.048828 z m 1.808593,1.949219 0.01367,0.01758 c -0.0023,-0.003 -0.0075,-9.5e-4 -0.0098,-0.0039 -0.003,-0.0039 -8.72e-4,-0.0098 -0.0039,-0.01367 z"
         id="path35528" />
      <path
         style="color:#000000;-inkscape-font-specification:'Noto Sans Heavy';fill:#ffffff;stroke:none;-inkscape-stroke:none"
         d="m 88.634766,92.628906 c -0.853006,0 -1.65674,0.162856 -2.337891,0.601563 -0.735206,0.473523 -1.197266,1.398128 -1.197266,2.257812 0,0.299168 0.114554,0.590596 0.197266,0.884766 l -0.1875,-0.08398 v 4.076173 l 0.771484,0.32031 c 0.364365,0.15108 0.739899,0.26177 1.121094,0.32812 0.392392,0.0755 0.80798,0.10547 1.263672,0.10547 0.976487,0 1.866804,-0.16579 2.595703,-0.71875 l 0.002,-0.002 h 0.002 c 0.710934,-0.542234 1.115235,-1.467814 1.115235,-2.349607 0,-0.498937 -0.102572,-1.014037 -0.38086,-1.474609 -0.08871,-0.150414 -0.24904,-0.23199 -0.365234,-0.361328 l 1.050781,-2.5 -1.085937,-0.509766 c -0.41884,-0.196598 -0.842569,-0.346211 -1.271485,-0.439453 -0.418258,-0.09093 -0.851437,-0.134766 -1.292968,-0.134766 z m 1.117187,1.345703 0.0293,0.0098 c -0.0018,-6.12e-4 -0.004,6.09e-4 -0.0059,0 -0.0078,-0.0024 -0.01568,-0.0074 -0.02344,-0.0098 z m 0.861328,1.621094 0.02344,0.01367 c -0.0059,-0.0036 -0.01361,-0.0061 -0.01953,-0.0098 -0.0016,-9.28e-4 -0.0023,-0.003 -0.0039,-0.0039 z m -0.511719,1.623047 0.04297,0.06445 c -0.01129,-0.01775 -0.02007,-0.01068 -0.03125,-0.02734 -0.0073,-0.01069 -0.0041,-0.02668 -0.01172,-0.03711 z"
         id="path35530" />
      <path
         style="color:#000000;-inkscape-font-specification:'Noto Sans Heavy';fill:#ffffff;stroke:none;-inkscape-stroke:none"
         d="m 91.832031,91.507812 -0.607422,1.625 -1.097656,0.669922 v 2.619141 h 0.75 v 1.533203 c 0,0.63005 0.07982,1.219454 0.394531,1.777344 l 0.0059,0.0098 0.0059,0.01172 c 0.277296,0.470198 0.718529,0.880768 1.238281,1.099618 l 0.0059,0.002 0.0039,0.002 c 0.445239,0.18266 0.924475,0.26172 1.40625,0.26172 0.365105,0 0.717947,-0.0297 1.058594,-0.0977 h 0.002 c 0.320248,-0.0627 0.619376,-0.14602 0.910156,-0.27929 l 0.728516,-0.33399 V 96.671875 L 94.976562,97.25 c -0.0073,0.0025 -0.01421,0.0034 -0.02148,0.0059 v -0.833984 h 1.619141 v -3.685547 h -1.619141 v -1.228516 z"
         id="path35532" />
      <path
         style="color:#000000;-inkscape-font-specification:'Noto Sans Heavy';fill:#ffffff;stroke:none;-inkscape-stroke:none"
         d="m 98.179687,90.957031 v 10.056639 h 4.099613 v -2.808592 c 0.62437,-0.05098 1.24654,-0.0944 1.76953,-0.380859 0.61493,-0.333262 1.14359,-0.841817 1.44922,-1.476563 0.26587,-0.552194 0.40039,-1.162838 0.40039,-1.779297 0,-0.986298 -0.3592,-1.970472 -1.07422,-2.634765 -0.77399,-0.732847 -1.82889,-0.976563 -2.98047,-0.976563 z"
         id="path35534" />
      <path
         style="color:#000000;-inkscape-font-specification:'Noto Sans Heavy';fill:#ffffff;stroke:none;-inkscape-stroke:none"
         d="m 109.17773,92.628906 c -0.35005,0 -0.66355,0.193266 -0.99804,0.3125 l -0.0488,-0.205078 h -3.43164 v 8.277342 h 4.07812 v -4.191404 c 0,-0.188307 0.0317,-0.196827 -0.004,-0.142579 0.002,-4.4e-4 -4.7e-4,-0.0045 0.0137,-0.0098 l 0.0156,-0.0039 0.0137,-0.0059 c 0.10211,-0.04085 0.19399,-0.05859 0.30859,-0.05859 -0.0128,0 0.009,-9.28e-4 0.0527,0.0059 l 0.0469,0.0078 0.0469,0.0039 c 0.0477,0.0037 0.0661,0.01065 0.0156,-0.002 l 1.43359,0.357422 0.31641,-4.037109 -1.05859,-0.236328 c -0.16403,-0.03646 -0.29889,-0.04896 -0.44336,-0.05859 -0.12606,-0.0084 -0.24195,-0.01367 -0.35743,-0.01367 z m 0.28516,1.496094 0.0957,0.01172 c -0.0132,-0.002 -0.0278,-0.002 -0.041,-0.0039 -0.0172,-0.0015 -0.0374,-0.0065 -0.0547,-0.0078 z m -1.54687,0.203125 c -0.003,0.0011 -0.005,0.0047 -0.008,0.0059 -0.006,0.0024 -0.0133,0.0014 -0.0195,0.0039 z"
         id="path35536" />
      <path
         style="color:#000000;-inkscape-font-specification:'Noto Sans Heavy';fill:#ffffff;stroke:none;-inkscape-stroke:none"
         d="m 113.00781,92.628906 c -1.12018,0 -2.20445,0.376565 -2.95898,1.152344 -0.77145,0.793179 -1.10547,1.90691 -1.10547,3.083984 0,0.79773 0.15081,1.558238 0.50586,2.226563 l 0.002,0.0039 0.002,0.002 c 0.34008,0.630165 0.85183,1.165343 1.4746,1.513673 l 0.004,0.002 0.004,0.002 c 0.6186,0.34024 1.32387,0.50391 2.04101,0.50391 1.11699,0 2.20068,-0.38388 2.95117,-1.164061 0.77272,-0.796223 1.11524,-1.911271 1.11524,-3.089844 0,-0.792403 -0.15173,-1.551414 -0.50977,-2.214843 -0.34008,-0.630165 -0.85183,-1.163392 -1.47461,-1.511719 -0.61847,-0.345926 -1.32893,-0.509766 -2.05078,-0.509766 z m 1.92578,2.25586 0.0195,0.0293 c -0.004,-0.0059 -0.0118,-0.0078 -0.0156,-0.01367 -0.003,-0.0048 -6.8e-4,-0.01084 -0.004,-0.01563 z m 0.0195,3.951171 -0.004,0.0059 c 7.2e-4,-0.0011 -7.2e-4,-0.0028 0,-0.0039 7.6e-4,-0.0012 0.003,-7.53e-4 0.004,-0.002 z"
         id="path35538" />
      <path
         style="color:#000000;-inkscape-font-specification:'Noto Sans Heavy';fill:#ffffff;stroke:none;-inkscape-stroke:none"
         d="m 119.31445,90.470703 v 2.246094 c -0.11978,-0.01053 -0.2275,-0.08789 -0.34765,-0.08789 -0.98237,0 -1.96586,0.463606 -2.58203,1.228516 -0.65753,0.816231 -0.89063,1.866949 -0.89063,3.027344 0,1.151582 0.2279,2.194839 0.87305,3.009765 l 0.006,0.0078 0.006,0.0078 c 0.61185,0.748998 1.57777,1.208988 2.54492,1.208988 0.37932,0 0.73718,-0.15998 1.09961,-0.2832 l 0.0723,0.17773 h 3.29688 V 90.470703 Z m -1.71484,4.451172 c -0.001,0.0018 -7.5e-4,0.0041 -0.002,0.0059 -0.001,0.0022 -0.004,0.0036 -0.006,0.0059 z"
         id="path35540" />
      <path
         style="color:#000000;-inkscape-font-specification:'Noto Sans Heavy';fill:#ffffff;stroke:none;-inkscape-stroke:none"
         d="m 122.51172,92.736328 v 5.017578 c 0,0.951146 0.26063,1.90183 0.9707,2.544924 l 0.006,0.004 0.004,0.006 c 0.63089,0.55947 1.47884,0.81055 2.32226,0.81055 0.37644,0 0.73786,-0.11207 1.09766,-0.21875 l 0.0332,0.11328 h 3.40039 v -8.277342 h -1.25 -2.50781 -0.32031 z"
         id="path35542" />
      <path
         style="color:#000000;-inkscape-font-specification:'Noto Sans Heavy';fill:#ffffff;stroke:none;-inkscape-stroke:none"
         d="m 133.23242,92.628906 c -0.71561,0 -1.41105,0.141291 -2.0332,0.447266 l -0.002,0.002 -0.004,0.002 c -0.65191,0.325954 -1.19065,0.865844 -1.53711,1.507813 -0.37117,0.687755 -0.50977,1.471141 -0.50977,2.318359 0,1.218463 0.27438,2.33476 1.0586,3.130856 l 0.004,0.004 0.002,0.004 c 0.74096,0.74097 1.79517,1.07422 2.88476,1.07422 0.46825,0 0.88948,-0.0376 1.30078,-0.14648 0.40221,-0.0976 0.78724,-0.26146 1.13477,-0.48633 l 0.57227,-0.3711 v -4.320304 l -0.41797,0.271484 0.92382,-2.419922 -1.0332,-0.5 c -0.30778,-0.148922 -0.63715,-0.264011 -0.99219,-0.357422 -0.42684,-0.11452 -0.8746,-0.160156 -1.35156,-0.160156 z m 0.0879,3.785156 c 0.0604,0.0056 0.11994,0.0065 0.18946,0.02734 l 0.004,0.002 0.006,0.002 c 0.17303,0.05023 0.36945,0.11731 0.58399,0.203125 l 0.41992,0.167969 -0.34961,0.226563 c -0.15993,0.103481 -0.31546,0.178936 -0.47071,0.236328 -0.0843,0.02702 -0.2294,0.04395 -0.39843,0.05078 0.003,-0.0087 -0.0488,-0.07665 -0.0488,-0.433594 0,-0.355025 0.0511,-0.440916 0.0644,-0.482422 z"
         id="path35544" />
      <path
         style="color:#000000;-inkscape-font-specification:'Noto Sans Heavy';fill:#ffffff;stroke:none;-inkscape-stroke:none"
         d="m 136.06055,91.507812 -0.60743,1.625 -1.0996,0.669922 v 2.619141 h 0.75195 v 1.533203 c 0,0.630055 0.0798,1.219452 0.39453,1.777344 l 0.006,0.0098 0.006,0.01172 c 0.27729,0.470208 0.71657,0.880768 1.23633,1.099618 l 0.006,0.002 0.006,0.002 c 0.44523,0.18266 0.92447,0.26172 1.40625,0.26172 0.36577,0 0.71736,-0.0294 1.05859,-0.0977 0.32096,-0.0627 0.62076,-0.14576 0.91211,-0.27929 l 0.72851,-0.33399 V 96.671875 L 139.20508,97.25 c -0.008,0.0028 -0.0156,0.0032 -0.0234,0.0059 v -0.833984 h 1.61914 v -3.685547 h -1.61914 v -1.228516 z"
         id="path35546" />
    </g>
    <g
       aria-label="Newest Product"
       id="text35439"
       style="font-size:10.5833px;line-height:1.25;font-family:'Noto Sans';-inkscape-font-specification:'Noto Sans';word-spacing:0px;fill:#ff8c68;stroke-width:2.5;paint-order:stroke fill markers">
      <path
         d="M 63.563473,99.764091 H 61.531479 L 58.240073,94.04911 h -0.04233 q 0.02117,0.539748 0.04233,1.079496 0.03175,0.539749 0.05292,1.079497 v 3.555988 h -1.428745 v -7.556475 h 2.02141 l 3.280823,5.662065 h 0.03175 q -0.02117,-0.518582 -0.04233,-1.037164 -0.02117,-0.518581 -0.03175,-1.047746 v -3.577155 h 1.439329 z"
         style="font-weight:900;-inkscape-font-specification:'Noto Sans Heavy'"
         id="path35477" />
      <path
         d="m 67.722706,93.879777 q 1.195913,0 1.894411,0.687914 0.698498,0.677332 0.698498,1.936744 v 0.761998 h -3.725322 q 0.02117,0.666748 0.391582,1.047746 0.380999,0.380999 1.047747,0.380999 0.550331,0 1.005413,-0.105833 0.465666,-0.116416 0.952497,-0.349249 v 1.21708 q -0.433915,0.211666 -0.89958,0.306915 -0.465665,0.105833 -1.132413,0.105833 -0.867831,0 -1.534579,-0.317499 -0.666748,-0.328082 -1.047746,-0.973663 -0.380999,-0.656165 -0.380999,-1.661578 0,-1.005414 0.338665,-1.682745 0.349249,-0.677331 0.963081,-1.015997 0.613831,-0.338665 1.428745,-0.338665 z m 0.01058,1.12183 q -0.465666,0 -0.761998,0.296332 -0.296332,0.296332 -0.349249,0.920747 h 2.21191 q -0.01058,-0.518582 -0.285749,-0.86783 -0.264583,-0.349249 -0.814914,-0.349249 z"
         style="font-weight:900;-inkscape-font-specification:'Noto Sans Heavy'"
         id="path35479" />
      <path
         d="m 76.13642,99.764091 -0.444499,-2.02141 q -0.04233,-0.179916 -0.126999,-0.529165 -0.07408,-0.359832 -0.169333,-0.761997 -0.09525,-0.412749 -0.179916,-0.751415 -0.08467,-0.349248 -0.116416,-0.507998 h -0.04233 q -0.03175,0.15875 -0.116416,0.507998 -0.07408,0.338666 -0.169333,0.751415 -0.09525,0.402165 -0.179916,0.761997 -0.08467,0.359832 -0.126999,0.550332 l -0.465666,2.000243 H 72.305265 L 70.664854,93.98561 h 1.566328 l 0.666748,2.561158 q 0.07408,0.275166 0.127,0.645582 0.0635,0.359832 0.105833,0.709081 0.05292,0.338665 0.08467,0.539748 h 0.04233 q 0.01058,-0.148166 0.04233,-0.391582 0.03175,-0.253999 0.07408,-0.518582 0.05292,-0.264582 0.08467,-0.476248 0.04233,-0.211666 0.0635,-0.296333 l 0.709081,-2.772824 h 1.735661 l 0.677331,2.772824 q 0.03175,0.148167 0.09525,0.476249 0.0635,0.328082 0.105833,0.666748 0.04233,0.338665 0.05292,0.539748 h 0.04233 q 0.02117,-0.179916 0.07408,-0.518582 0.05292,-0.349249 0.116416,-0.719664 0.07408,-0.380999 0.148166,-0.656165 l 0.687915,-2.561158 h 1.545161 l -1.661578,5.778481 z"
         style="font-weight:900;-inkscape-font-specification:'Noto Sans Heavy'"
         id="path35481" />
      <path
         d="m 82.825076,93.879777 q 1.195912,0 1.89441,0.687914 0.698498,0.677332 0.698498,1.936744 v 0.761998 h -3.725322 q 0.02117,0.666748 0.391583,1.047746 0.380998,0.380999 1.047746,0.380999 0.550332,0 1.005414,-0.105833 0.465665,-0.116416 0.952497,-0.349249 v 1.21708 q -0.433916,0.211666 -0.899581,0.306915 -0.465665,0.105833 -1.132413,0.105833 -0.86783,0 -1.534578,-0.317499 -0.666748,-0.328082 -1.047747,-0.973663 -0.380999,-0.656165 -0.380999,-1.661578 0,-1.005414 0.338666,-1.682745 0.349249,-0.677331 0.96308,-1.015997 0.613831,-0.338665 1.428746,-0.338665 z m 0.01058,1.12183 q -0.465665,0 -0.761998,0.296332 -0.296332,0.296332 -0.349249,0.920747 h 2.21191 q -0.01058,-0.518582 -0.285749,-0.86783 -0.264583,-0.349249 -0.814914,-0.349249 z"
         style="font-weight:900;-inkscape-font-specification:'Noto Sans Heavy'"
         id="path35483" />
      <path
         d="m 90.730797,98.049597 q 0,0.878414 -0.624415,1.354662 -0.613831,0.465665 -1.841494,0.465665 -0.603248,0 -1.037164,-0.08467 -0.433915,-0.07408 -0.86783,-0.253999 v -1.301746 q 0.465665,0.211666 1.005413,0.349249 0.539749,0.137583 0.952497,0.137583 0.455082,0 0.656165,-0.137583 0.201083,-0.137583 0.201083,-0.359832 0,-0.148166 -0.08467,-0.264583 -0.07408,-0.116416 -0.338665,-0.264582 -0.264583,-0.148166 -0.825498,-0.380999 -0.550331,-0.232833 -0.89958,-0.455082 -0.338666,-0.232833 -0.507999,-0.550331 -0.169332,-0.328083 -0.169332,-0.814915 0,-0.80433 0.624414,-1.206496 0.624415,-0.402165 1.661578,-0.402165 0.539749,0 1.02658,0.105833 0.486832,0.105833 1.005414,0.349249 l -0.476249,1.132413 q -0.423332,-0.179916 -0.80433,-0.296333 -0.380999,-0.126999 -0.772581,-0.126999 -0.698498,0 -0.698498,0.380999 0,0.137583 0.08467,0.253999 0.09525,0.105833 0.349249,0.232832 0.264583,0.127 0.772581,0.338666 0.497415,0.201083 0.857247,0.423332 0.359833,0.211666 0.550332,0.539748 0.201083,0.328083 0.201083,0.836081 z"
         style="font-weight:900;-inkscape-font-specification:'Noto Sans Heavy'"
         id="path35485" />
      <path
         d="m 94.392614,98.610512 q 0.264582,0 0.507998,-0.04233 0.243416,-0.05292 0.486832,-0.137583 v 1.174746 q -0.253999,0.116416 -0.634998,0.190499 -0.370416,0.07408 -0.814914,0.07408 -0.518582,0 -0.931331,-0.169332 -0.402165,-0.169333 -0.645581,-0.582082 -0.232832,-0.412748 -0.232832,-1.164163 v -2.783408 h -0.751415 v -0.666747 l 0.867831,-0.529165 0.455082,-1.21708 h 1.005413 v 1.227663 h 1.619245 v 1.185329 h -1.619245 v 2.783408 q 0,0.328083 0.1905,0.497415 0.190499,0.15875 0.497415,0.15875 z"
         style="font-weight:900;-inkscape-font-specification:'Noto Sans Heavy'"
         id="path35487" />
      <path
         d="m 101.84326,92.207616 q 1.4605,0 2.12724,0.634998 0.67734,0.624414 0.67734,1.725077 0,0.666748 -0.27517,1.238246 -0.27517,0.571499 -0.92075,0.920747 -0.635,0.349249 -1.73566,0.349249 h -0.68791 v 2.688158 h -1.598081 v -7.556475 z m -0.0847,1.312329 h -0.73024 v 2.243659 h 0.52916 q 0.67733,0 1.06892,-0.264582 0.40216,-0.275166 0.40216,-0.878414 0,-1.100663 -1.27,-1.100663 z"
         style="font-weight:900;-inkscape-font-specification:'Noto Sans Heavy'"
         id="path35489" />
      <path
         d="m 109.17749,93.879777 q 0.11641,0 0.27516,0.01058 0.15875,0.01058 0.254,0.03175 l -0.11641,1.481662 q -0.0847,-0.02117 -0.22225,-0.03175 -0.13759,-0.02117 -0.24342,-0.02117 -0.40216,0 -0.77258,0.148166 -0.37041,0.137583 -0.60325,0.455082 -0.22225,0.317499 -0.22225,0.86783 v 2.942157 h -1.57691 V 93.98561 h 1.19591 l 0.23284,0.973663 h 0.0741 q 0.254,-0.444498 0.6985,-0.761997 0.4445,-0.317499 1.02658,-0.317499 z"
         style="font-weight:900;-inkscape-font-specification:'Noto Sans Heavy'"
         id="path35491" />
      <path
         d="m 115.79205,96.864267 q 0,1.439329 -0.76199,2.222493 -0.75142,0.783164 -2.05316,0.783164 -0.80434,0 -1.43933,-0.349248 -0.62442,-0.349249 -0.98425,-1.015997 -0.35983,-0.677331 -0.35983,-1.640412 0,-1.439328 0.75141,-2.211909 0.75142,-0.772581 2.06375,-0.772581 0.81491,0 1.43932,0.349249 0.62442,0.349249 0.98425,1.015997 0.35983,0.666747 0.35983,1.619244 z m -3.9899,0 q 0,0.857248 0.27517,1.301746 0.28574,0.433916 0.92074,0.433916 0.62442,0 0.89958,-0.433916 0.28575,-0.444498 0.28575,-1.301746 0,-0.857247 -0.28575,-1.280579 -0.27516,-0.433915 -0.91016,-0.433915 -0.62442,0 -0.91016,0.433915 -0.27517,0.423332 -0.27517,1.280579 z"
         style="font-weight:900;-inkscape-font-specification:'Noto Sans Heavy'"
         id="path35493" />
      <path
         d="m 118.9247,99.869924 q -0.96308,0 -1.57691,-0.751414 -0.60325,-0.761997 -0.60325,-2.233076 0,-1.481662 0.61384,-2.24366 0.61383,-0.761997 1.60866,-0.761997 0.62441,0 1.02658,0.243416 0.40216,0.243416 0.63499,0.603248 h 0.0529 q -0.0317,-0.169333 -0.0741,-0.486832 -0.0423,-0.328082 -0.0423,-0.666748 v -1.852077 h 1.57692 v 8.043307 h -1.2065 l -0.30692,-0.751414 h -0.0635 q -0.23283,0.359832 -0.62441,0.613832 -0.39158,0.243415 -1.016,0.243415 z m 0.55034,-1.259412 q 0.64558,0 0.91016,-0.380999 0.26458,-0.391582 0.28575,-1.164163 v -0.169333 q 0,-0.83608 -0.26458,-1.280579 -0.254,-0.455082 -0.9525,-0.455082 -0.51858,0 -0.81492,0.455082 -0.29633,0.444499 -0.29633,1.291163 0,0.846664 0.29633,1.280579 0.29634,0.423332 0.83609,0.423332 z"
         style="font-weight:900;-inkscape-font-specification:'Noto Sans Heavy'"
         id="path35495" />
      <path
         d="m 129.09525,93.98561 v 5.778481 h -1.2065 l -0.21166,-0.74083 h -0.0847 q -0.27517,0.444498 -0.762,0.645581 -0.47625,0.201082 -1.01599,0.201082 -0.93133,0 -1.49225,-0.497415 -0.56091,-0.507998 -0.56091,-1.619244 V 93.98561 h 1.57691 v 3.376072 q 0,0.624415 0.22225,0.941914 0.22225,0.306916 0.70908,0.306916 0.71966,0 0.98424,-0.486832 0.26459,-0.497415 0.26459,-1.418162 V 93.98561 Z"
         style="font-weight:900;-inkscape-font-specification:'Noto Sans Heavy'"
         id="path35497" />
      <path
         d="m 133.09573,99.869924 q -1.29116,0 -2.00024,-0.709081 -0.6985,-0.709081 -0.6985,-2.254242 0,-1.05833 0.35983,-1.725078 0.35983,-0.666748 0.99483,-0.984247 0.64558,-0.317499 1.48166,-0.317499 0.59267,0 1.02658,0.116416 0.4445,0.116416 0.77259,0.275166 l -0.46567,1.217079 q -0.37041,-0.148166 -0.6985,-0.243415 -0.3175,-0.09525 -0.635,-0.09525 -1.22766,0 -1.22766,1.746244 0,0.867831 0.3175,1.28058 0.32808,0.412748 0.91016,0.412748 0.49742,0 0.87842,-0.126999 0.381,-0.137583 0.74083,-0.370416 v 1.344079 q -0.35983,0.232833 -0.762,0.328082 -0.39158,0.105833 -0.99483,0.105833 z"
         style="font-weight:900;-inkscape-font-specification:'Noto Sans Heavy'"
         id="path35499" />
      <path
         d="m 138.62021,98.610512 q 0.26458,0 0.508,-0.04233 0.24341,-0.05292 0.48683,-0.137583 v 1.174746 q -0.254,0.116416 -0.635,0.190499 -0.37041,0.07408 -0.81491,0.07408 -0.51858,0 -0.93133,-0.169332 -0.40217,-0.169333 -0.64558,-0.582082 -0.23284,-0.412748 -0.23284,-1.164163 v -2.783408 h -0.75141 v -0.666747 l 0.86783,-0.529165 0.45508,-1.21708 h 1.00542 v 1.227663 h 1.61924 v 1.185329 h -1.61924 v 2.783408 q 0,0.328083 0.19049,0.497415 0.1905,0.15875 0.49742,0.15875 z"
         style="font-weight:900;-inkscape-font-specification:'Noto Sans Heavy'"
         id="path35501" />
    </g>
  </g>
</svg>
