<?xml version="1.0" encoding="UTF-8" standalone="no"?>
<!-- Created with Inkscape (http://www.inkscape.org/) -->

<svg
   width="33.38723mm"
   height="11.162309mm"
   viewBox="0 0 33.38723 11.162309"
   version="1.1"
   id="svg5"
   xmlns="http://www.w3.org/2000/svg"
   xmlns:svg="http://www.w3.org/2000/svg">
  <defs
     id="defs2" />
  <g
     id="layer1"
     transform="translate(-55.114244,-90.457616)">
    <g
       aria-label="Home"
       id="text1178"
       style="font-size:10.5833px;font-family:'Noto Sans';-inkscape-font-specification:'Noto Sans';word-spacing:0px;fill:#ff8c68;stroke:#ffffff;stroke-width:2.5;paint-order:stroke fill markers">
      <g
         id="path19703">
        <path
           style="color:#000000;-inkscape-font-specification:'Noto Sans Heavy';fill:#ffffff;stroke:none;-inkscape-stroke:none"
           d="m 55.613281,90.957031 v 10.056639 h 4.09961 v -3.259764 h 0.49414 v 3.259764 h 4.097656 v -1.249998 -8.806641 h -4.097656 v 2.964844 h -0.49414 v -2.964844 z"
           id="path19714" />
        <path
           style="color:#000000;-inkscape-font-specification:'Noto Sans Heavy';stroke:none;-inkscape-stroke:none"
           d="m 63.055474,99.764091 h -1.598078 v -3.259656 h -2.995074 v 3.259656 h -1.598078 v -7.556475 h 1.598078 v 2.963323 h 2.995074 v -2.963323 h 1.598078 z"
           id="path19716" />
      </g>
      <g
         id="path19705">
        <path
           style="color:#000000;-inkscape-font-specification:'Noto Sans Heavy';fill:#ffffff;stroke:none;-inkscape-stroke:none"
           d="m 67.298828,92.628906 c -1.120181,0 -2.204457,0.376562 -2.958984,1.152344 -0.771447,0.793179 -1.105469,1.906909 -1.105469,3.083984 0,0.797731 0.150812,1.558238 0.505859,2.226563 l 0.002,0.0039 0.002,0.002 c 0.340087,0.630162 0.851841,1.165344 1.474609,1.513674 l 0.0039,0.002 0.0039,0.002 c 0.618607,0.34024 1.323876,0.50391 2.041016,0.50391 1.116992,0 2.200681,-0.38388 2.951172,-1.164062 0.772725,-0.796222 1.113281,-1.91127 1.113281,-3.089844 0,-0.792404 -0.151723,-1.551413 -0.509765,-2.214843 C 70.482179,94.020229 69.972378,93.487 69.349609,93.138672 68.731138,92.792747 68.020675,92.628906 67.298828,92.628906 Z m 1.925781,2.25586 0.01953,0.0293 c -0.0037,-0.0059 -0.01181,-0.0078 -0.01563,-0.01367 -0.0032,-0.0048 -6.79e-4,-0.01084 -0.0039,-0.01563 z m 0.01953,3.951171 -0.0039,0.0059 c 7.24e-4,-0.0011 -7.21e-4,-0.0028 0,-0.0039 7.65e-4,-0.0012 0.0031,-7.53e-4 0.0039,-0.002 z"
           id="path19720" />
        <path
           style="color:#000000;-inkscape-font-specification:'Noto Sans Heavy';stroke:none;-inkscape-stroke:none"
           d="m 70.082779,96.864267 q 0,1.439329 -0.761997,2.222493 -0.751415,0.783164 -2.053161,0.783164 -0.80433,0 -1.439328,-0.349248 -0.624415,-0.349249 -0.984247,-1.015997 -0.359832,-0.677331 -0.359832,-1.640412 0,-1.439328 0.751414,-2.211909 0.751414,-0.772581 2.063743,-0.772581 0.814914,0 1.439329,0.349249 0.624415,0.349249 0.984247,1.015997 0.359832,0.666747 0.359832,1.619244 z m -3.989904,0 q 0,0.857248 0.275166,1.301746 0.285749,0.433916 0.920747,0.433916 0.624415,0 0.89958,-0.433916 0.28575,-0.444498 0.28575,-1.301746 0,-0.857247 -0.28575,-1.280579 -0.275165,-0.433915 -0.910163,-0.433915 -0.624415,0 -0.910164,0.433915 -0.275166,0.423332 -0.275166,1.280579 z"
           id="path19722" />
      </g>
      <g
         id="path19707">
        <path
           style="color:#000000;-inkscape-font-specification:'Noto Sans Heavy';fill:#ffffff;stroke:none;-inkscape-stroke:none"
           d="m 74.570312,92.628906 c -0.345448,0 -0.676032,0.114515 -1.007812,0.210938 l -0.0293,-0.103516 h -3.398437 v 8.277342 h 3.597656 0.478515 3.121094 0.478516 3.597656 v -5.017576 c 0,-0.925843 -0.213138,-1.831997 -0.875,-2.488282 -0.61953,-0.626977 -1.497869,-0.878906 -2.365234,-0.878906 -0.50005,0 -0.997825,0.106069 -1.458985,0.300781 l -0.0059,0.002 -0.0039,0.002 c -0.119263,0.0515 -0.177602,0.187255 -0.289063,0.255859 -0.09531,-0.05968 -0.142781,-0.177946 -0.24414,-0.224609 -0.499698,-0.239172 -1.04091,-0.335938 -1.595704,-0.335938 z"
           id="path19726" />
        <path
           style="color:#000000;-inkscape-font-specification:'Noto Sans Heavy';stroke:none;-inkscape-stroke:none"
           d="m 78.168414,93.879777 q 0.984247,0 1.481662,0.507998 0.507999,0.497415 0.507999,1.608662 v 3.767654 h -1.576912 v -3.376072 q 0,-1.248829 -0.86783,-1.248829 -0.624415,0 -0.888998,0.444498 -0.264582,0.444499 -0.264582,1.280579 v 2.899824 h -1.576912 v -3.376072 q 0,-1.248829 -0.86783,-1.248829 -0.656165,0 -0.910164,0.497415 -0.243416,0.486831 -0.243416,1.407578 v 2.719908 H 71.384519 V 93.98561 h 1.206496 l 0.211666,0.740831 h 0.08467 q 0.264582,-0.444499 0.719664,-0.645581 0.465665,-0.201083 0.963081,-0.201083 0.634997,0 1.068913,0.211666 0.444498,0.201083 0.687914,0.634998 h 0.137583 q 0.264583,-0.444499 0.730248,-0.645581 0.476248,-0.201083 0.973663,-0.201083 z"
           id="path19728" />
      </g>
      <g
         id="path19709">
        <path
           style="color:#000000;-inkscape-font-specification:'Noto Sans Heavy';fill:#ffffff;stroke:none;-inkscape-stroke:none"
           d="m 84.158203,92.628906 c -0.716435,0 -1.419123,0.155339 -2.033203,0.494141 -0.630043,0.34761 -1.138102,0.897807 -1.46875,1.539062 l -0.0039,0.0059 -0.0039,0.0078 c -0.336414,0.672831 -0.470703,1.431562 -0.470703,2.242188 0,0.828169 0.157573,1.611868 0.550782,2.289062 l 0.002,0.0039 0.002,0.0039 c 0.369108,0.625433 0.920971,1.138506 1.572265,1.458986 l 0.0078,0.004 0.0078,0.004 c 0.634564,0.30217 1.339321,0.4375 2.070313,0.4375 0.505663,0 0.964053,-0.0378 1.396484,-0.13476 0.408953,-0.0849 0.80664,-0.22042 1.183594,-0.4043 l 0.703125,-0.3418 v -1.722655 h 0.328125 v -2.011719 c 0,-1.067279 -0.333619,-2.10534 -1.072266,-2.826172 -3.99e-4,-3.93e-4 -0.0016,3.93e-4 -0.002,0 -0.7197,-0.708061 -1.733157,-1.048828 -2.769531,-1.048828 z m 1.808594,1.949219 0.01367,0.01758 c -0.0023,-0.003 -0.0075,-9.5e-4 -0.0098,-0.0039 -0.003,-0.0039 -8.72e-4,-0.0098 -0.0039,-0.01367 z"
           id="path19732" />
        <path
           style="color:#000000;-inkscape-font-specification:'Noto Sans Heavy';stroke:none;-inkscape-stroke:none"
           d="m 84.158566,93.879777 q 1.195913,0 1.894411,0.687914 0.698497,0.677332 0.698497,1.936744 v 0.761998 h -3.725321 q 0.02117,0.666748 0.391582,1.047746 0.380999,0.380999 1.047747,0.380999 0.550331,0 1.005413,-0.105833 0.465665,-0.116416 0.952497,-0.349249 v 1.21708 q -0.433915,0.211666 -0.89958,0.306915 -0.465666,0.105833 -1.132414,0.105833 -0.86783,0 -1.534578,-0.317499 -0.666748,-0.328082 -1.047747,-0.973663 -0.380998,-0.656165 -0.380998,-1.661578 0,-1.005414 0.338665,-1.682745 0.349249,-0.677331 0.96308,-1.015997 0.613832,-0.338665 1.428746,-0.338665 z m 0.01058,1.12183 q -0.465665,0 -0.761997,0.296332 -0.296333,0.296332 -0.349249,0.920747 h 2.211909 q -0.01058,-0.518582 -0.285749,-0.86783 -0.264582,-0.349249 -0.814914,-0.349249 z"
           id="path19734" />
      </g>
    </g>
  </g>
</svg>
