<?xml version="1.0" encoding="UTF-8" standalone="no"?>
<!-- Created with Inkscape (http://www.inkscape.org/) -->

<svg
   width="28.571835mm"
   height="14.0833mm"
   viewBox="0 0 28.571835 14.0833"
   version="1.1"
   id="svg5"
   xmlns="http://www.w3.org/2000/svg"
   xmlns:svg="http://www.w3.org/2000/svg">
  <defs
     id="defs2" />
  <g
     aria-label="Shop"
     id="text1178"
     style="font-size:10.5833px;font-family:'Noto Sans';-inkscape-font-specification:'Noto Sans';word-spacing:0px;fill:#fffffd;stroke:none;stroke-width:2.5;paint-order:stroke fill markers;fill-opacity:1">
    <path
       style="color:#000000;-inkscape-font-specification:'Noto Sans Heavy';fill:#fffffd;stroke:none;-inkscape-stroke:none;fill-opacity:1"
       d="m 4.3964844,0.88085938 c -0.9886341,0 -1.9366907,0.25224172 -2.6660157,0.85546872 -0.74371042,0.6076564 -1.14648433,1.5844412 -1.14648433,2.5429688 10e-9,0.4902784 0.0865369,0.9823921 0.30664063,1.4355468 0.1318542,0.2714648 0.3306614,0.5025489 0.5273437,0.7324219 L 0.5,6.0507812 v 4.1777348 l 0.7070312,0.341797 c 0.8145297,0.393536 1.7258118,0.578125 2.6816407,0.578125 1.0741812,0 2.0754226,-0.240997 2.8476562,-0.876954 v -0.002 C 7.4860417,9.6502026 7.921875,8.6701719 7.921875,7.6972656 7.921875,7.1459063 7.8168674,6.5932824 7.5429687,6.0976562 7.3797984,5.8023956 7.1164585,5.5867985 6.8730469,5.3554687 L 8.2675781,1.9980469 7.1328125,1.5117187 C 6.6890056,1.3215159 6.2561219,1.1688573 5.8320312,1.0585937 5.3692615,0.93827361 4.8883199,0.88085938 4.3964844,0.88085938 Z m 1.390625,5.51953122 0.023437,0.025391 c -0.00534,-0.00564 -0.012205,-0.0081 -0.017578,-0.013672 -0.00301,-0.00305 -0.00284,-0.0087 -0.00586,-0.011719 z"
       id="path1098" />
    <path
       style="color:#000000;-inkscape-font-specification:'Noto Sans Heavy';fill:#fffffd;stroke:none;-inkscape-stroke:none;fill-opacity:1"
       d="m 6.6699219,0.5 v 10.542969 h 3.7578121 0.31836 3.757812 V 6.0253906 c 0,-0.9526956 -0.271532,-1.9106226 -0.996093,-2.5449218 -0.632509,-0.5597606 -1.482083,-0.8222657 -2.328125,-0.8222657 -0.148839,0 -0.285736,0.074286 -0.433594,0.091797 V 0.5 H 9.4960938 Z"
       id="path1100" />
    <path
       style="color:#000000;-inkscape-font-specification:'Noto Sans Heavy';fill:#fffffd;stroke:none;-inkscape-stroke:none;fill-opacity:1"
       d="m 17.339844,2.6582031 c -1.120181,0 -2.206411,0.3765623 -2.960938,1.1523438 -0.771448,0.7931784 -1.105468,1.9049552 -1.105468,3.0820312 0,0.7977308 0.15081,1.5601907 0.505859,2.2285157 l 0.002,0.00195 0.002,0.00391 c 0.340087,0.630161 0.851842,1.1653439 1.47461,1.5136719 l 0.0039,0.002 0.0039,0.002 c 0.618607,0.340234 1.323875,0.503906 2.041016,0.503907 1.117562,-1e-6 2.202592,-0.385031 2.953125,-1.1660161 0.771387,-0.7960934 1.113281,-1.9122333 1.113281,-3.0898438 0,-0.7924045 -0.151724,-1.5494604 -0.509766,-2.2128906 C 20.523194,4.0495261 20.01144,3.5162967 19.388672,3.1679688 18.770201,2.8220443 18.06169,2.6582031 17.339844,2.6582031 Z m 1.923828,2.2558594 0.01953,0.029297 c -0.0037,-0.00591 -0.01181,-0.00781 -0.01563,-0.013672 -0.0032,-0.00479 -6.75e-4,-0.010838 -0.0039,-0.015625 z m 0.01953,3.9511719 -0.0039,0.00586 c 7.23e-4,-0.00112 -7.21e-4,-0.00278 0,-0.00391 7.64e-4,-0.0012 0.0031,-7.527e-4 0.0039,-0.00195 z"
       id="path1102" />
    <path
       style="color:#000000;-inkscape-font-specification:'Noto Sans Heavy';fill:#fffffd;stroke:none;-inkscape-stroke:none;fill-opacity:1"
       d="m 24.642578,2.6582031 c -0.330932,0 -0.638172,0.1639404 -0.958984,0.2578125 L 23.638672,2.765625 h -3.464844 v 10.818359 h 4.078125 v -2.519531 c 0.118935,0.0095 0.227953,0.08399 0.347656,0.08399 0.975196,0 1.946291,-0.464382 2.564453,-1.2187505 0.668026,-0.8152168 0.908204,-1.8737405 0.908204,-3.0371094 0,-1.1505994 -0.226768,-2.1907793 -0.876954,-3.0019531 C 26.589746,3.1285651 25.615935,2.6582031 24.642578,2.6582031 Z"
       id="path1104" />
  </g>
  <g
     aria-label="Shop"
     id="text35439"
     style="font-size:10.5833px;font-family:'Noto Sans';-inkscape-font-specification:'Noto Sans';word-spacing:0px;fill:#ff8c68;stroke-width:2.5;paint-order:stroke fill markers"
     transform="translate(-54.648579,-89.970784)">
    <path
       d="m 61.319813,97.668598 q 0,1.005414 -0.730248,1.608662 -0.719664,0.592664 -2.05316,0.592664 -1.195913,0 -2.137826,-0.455081 v -1.492246 q 0.539748,0.232833 1.111246,0.433916 0.582082,0.190499 1.15358,0.190499 0.592665,0 0.836081,-0.222249 0.253999,-0.232833 0.253999,-0.582082 0,-0.285749 -0.201083,-0.486832 -0.190499,-0.201082 -0.518582,-0.370415 -0.328082,-0.179916 -0.751414,-0.380999 -0.264582,-0.126999 -0.571498,-0.296332 -0.306916,-0.179916 -0.592665,-0.433915 -0.275166,-0.264583 -0.455082,-0.634998 -0.179916,-0.370416 -0.179916,-0.888998 0,-1.015996 0.687915,-1.576911 0.687914,-0.571498 1.873244,-0.571498 0.592664,0 1.121829,0.137582 0.529165,0.137583 1.12183,0.391583 l -0.518581,1.248829 q -0.518582,-0.211666 -0.931331,-0.328082 -0.412749,-0.116417 -0.846664,-0.116417 -0.455082,0 -0.698498,0.211666 -0.243415,0.211666 -0.243415,0.550332 0,0.402165 0.359832,0.634998 0.359832,0.232832 1.068913,0.571498 0.582081,0.275166 0.984247,0.571498 0.412749,0.296333 0.634998,0.698498 0.222249,0.402165 0.222249,0.99483 z"
       style="-inkscape-font-specification:'Noto Sans Heavy'"
       id="path43632" />
    <path
       d="m 64.14556,91.720784 v 1.640411 q 0,0.433915 -0.03175,0.825498 -0.02117,0.380998 -0.04233,0.539748 h 0.08467 q 0.275165,-0.444499 0.709081,-0.645581 0.433915,-0.201083 0.96308,-0.201083 0.93133,0 1.502828,0.507998 0.571499,0.497415 0.571499,1.608662 v 3.767654 H 66.32572 v -3.376072 q 0,-1.248829 -0.93133,-1.248829 -0.709082,0 -0.984247,0.497415 -0.264583,0.486831 -0.264583,1.407578 v 2.719908 h -1.576911 v -8.043307 z"
       style="-inkscape-font-specification:'Noto Sans Heavy'"
       id="path43634" />
    <path
       d="m 74.771189,96.864267 q 0,1.439329 -0.761998,2.222493 -0.751414,0.783164 -2.05316,0.783164 -0.804331,0 -1.439329,-0.349248 -0.624414,-0.349249 -0.984246,-1.015997 -0.359833,-0.677331 -0.359833,-1.640412 0,-1.439328 0.751415,-2.211909 0.751414,-0.772581 2.063743,-0.772581 0.814914,0 1.439329,0.349249 0.624415,0.349249 0.984247,1.015997 0.359832,0.666747 0.359832,1.619244 z m -3.989904,0 q 0,0.857248 0.275166,1.301746 0.285749,0.433916 0.920747,0.433916 0.624414,0 0.89958,-0.433916 0.285749,-0.444498 0.285749,-1.301746 0,-0.857247 -0.285749,-1.280579 -0.275166,-0.433915 -0.910164,-0.433915 -0.624414,0 -0.910163,0.433915 -0.275166,0.423332 -0.275166,1.280579 z"
       style="-inkscape-font-specification:'Noto Sans Heavy'"
       id="path43636" />
    <path
       d="m 79.290253,93.879777 q 0.973664,0 1.576912,0.761997 0.603248,0.751415 0.603248,2.222493 0,1.481662 -0.624415,2.24366 -0.624414,0.761997 -1.598078,0.761997 -0.624415,0 -0.99483,-0.222249 -0.370416,-0.232832 -0.603248,-0.518581 h -0.08467 q 0.08467,0.444498 0.08467,0.846663 v 2.328323 H 76.07293 v -8.31847 h 1.280579 l 0.22225,0.751414 h 0.07408 q 0.232832,-0.349249 0.624414,-0.603248 0.391582,-0.253999 1.015997,-0.253999 z m -0.507998,1.259413 q -0.613832,0 -0.867831,0.391582 -0.253999,0.380998 -0.264582,1.153579 v 0.169333 q 0,0.836081 0.243416,1.291163 0.253999,0.444498 0.910163,0.444498 0.539749,0 0.793748,-0.444498 0.264582,-0.455082 0.264582,-1.301746 0,-1.703911 -1.079496,-1.703911 z"
       style="-inkscape-font-specification:'Noto Sans Heavy'"
       id="path43638" />
  </g>
</svg>
